<svg id="icon-burger" width="33" height="32" viewBox="0 0 33 32" fill="none" xmlns="http://www.w3.org/2000/svg">
<path fill-rule="evenodd" clip-rule="evenodd" d="M6.29622 10.6667C5.56289 10.6667 4.96289 10.0667 4.96289 9.33333C4.96289 8.6 5.56289 8 6.29622 8H27.6296C28.3629 8 28.9629 8.6 28.9629 9.33333C28.9629 10.0667 28.3629 10.6667 27.6296 10.6667H6.29622ZM6.29622 17.3333H27.6296C28.3629 17.3333 28.9629 16.7333 28.9629 16C28.9629 15.2667 28.3629 14.6667 27.6296 14.6667H6.29622C5.56289 14.6667 4.96289 15.2667 4.96289 16C4.96289 16.7333 5.56289 17.3333 6.29622 17.3333ZM6.29622 24H27.6296C28.3629 24 28.9629 23.4 28.9629 22.6667C28.9629 21.9333 28.3629 21.3333 27.6296 21.3333H6.29622C5.56289 21.3333 4.96289 21.9333 4.96289 22.6667C4.96289 23.4 5.56289 24 6.29622 24Z" fill="white" fill-opacity="0.95"/>
</svg>
