<svg width="38" height="37" viewBox="0 0 38 37" fill="none" xmlns="http://www.w3.org/2000/svg">
<g clip-path="url(#clip0)">
<path d="M37.082 10.7626C36.9972 8.82309 36.6862 7.48969 36.2406 6.33428C35.7809 5.10783 35.0737 4.0098 34.1472 3.097C33.2419 2.17 32.1458 1.44968 30.9436 0.993419C29.7911 0.544123 28.4756 0.23048 26.5521 0.144966C24.6142 0.0522098 23.999 0.0307617 19.0841 0.0307617C14.1691 0.0307617 13.5539 0.0522098 11.6232 0.137724C9.69969 0.223238 8.3773 0.53716 7.23171 0.986177C6.01512 1.44968 4.92616 2.16276 4.0209 3.097C3.10155 4.0098 2.38745 5.11508 1.93469 6.32731C1.4891 7.48969 1.17805 8.81585 1.09324 10.7554C1.00125 12.7094 0.97998 13.3297 0.97998 18.2856C0.97998 23.2415 1.00125 23.8618 1.08606 25.8086C1.17087 27.7481 1.4822 29.0815 1.92778 30.2369C2.38745 31.4634 3.10155 32.5614 4.0209 33.4742C4.92616 34.4012 6.0223 35.1215 7.22453 35.5778C8.3773 36.0271 9.69251 36.3407 11.6163 36.4262C13.5467 36.512 14.1622 36.5332 19.0771 36.5332C23.9921 36.5332 24.6073 36.512 26.538 36.4262C28.4615 36.3407 29.7839 36.0271 30.9295 35.5778C33.3624 34.6293 35.2859 32.6898 36.2265 30.2369C36.6718 29.0746 36.9831 27.7481 37.068 25.8086C37.1528 23.8618 37.174 23.2415 37.174 18.2856C37.174 13.3297 37.1669 12.7094 37.082 10.7626ZM33.8221 25.666C33.7442 27.4487 33.4472 28.4113 33.1997 29.0531C32.5914 30.6433 31.3397 31.9054 29.7626 32.5188C29.1262 32.7684 28.1645 33.0678 26.4035 33.1461C24.4941 33.2319 23.9214 33.253 19.0912 33.253C14.2611 33.253 13.6812 33.2319 11.7787 33.1461C10.0107 33.0678 9.05604 32.7684 8.41957 32.5188C7.63475 32.2263 6.92038 31.7628 6.34054 31.1567C5.73943 30.5648 5.27975 29.8517 4.98969 29.0604C4.74218 28.4186 4.44521 27.4487 4.36759 25.6732C4.2825 23.7479 4.26151 23.1702 4.26151 18.2998C4.26151 13.4294 4.2825 12.8448 4.36759 10.9267C4.44521 9.14398 4.74218 8.18132 4.98969 7.53955C5.27975 6.74792 5.73943 6.02787 6.34772 5.44293C6.93447 4.83681 7.64166 4.37331 8.42675 4.08111C9.06322 3.83153 10.0251 3.53209 11.7859 3.45354C13.6953 3.36803 14.2683 3.34658 19.0981 3.34658C23.9355 3.34658 24.5081 3.36803 26.4107 3.45354C28.1786 3.53209 29.1333 3.83153 29.7698 4.08111C30.5546 4.37331 31.269 4.83681 31.8488 5.44293C32.4499 6.03484 32.9096 6.74792 33.1997 7.53955C33.4472 8.18132 33.7442 9.15094 33.8221 10.9267C33.9069 12.852 33.9281 13.4294 33.9281 18.2998C33.9281 23.1702 33.9069 23.7407 33.8221 25.666Z" fill="white"/>
<path d="M19.0832 8.90869C13.9492 8.90869 9.78369 13.1086 9.78369 18.2857C9.78369 23.4628 13.9492 27.6627 19.0832 27.6627C24.2176 27.6627 28.3828 23.4628 28.3828 18.2857C28.3828 13.1086 24.2176 8.90869 19.0832 8.90869ZM19.0832 24.3683C15.7525 24.3683 13.0509 21.6444 13.0509 18.2857C13.0509 14.927 15.7525 12.2031 19.0832 12.2031C22.4142 12.2031 25.1156 14.927 25.1156 18.2857C25.1156 21.6444 22.4142 24.3683 19.0832 24.3683Z" fill="white"/>
<path d="M30.9219 8.53798C30.9219 9.74687 29.9498 10.7271 28.7506 10.7271C27.5517 10.7271 26.5796 9.74687 26.5796 8.53798C26.5796 7.32881 27.5517 6.34888 28.7506 6.34888C29.9498 6.34888 30.9219 7.32881 30.9219 8.53798Z" fill="white"/>
</g>
<defs>
<clipPath id="clip0">
<rect width="36.2011" height="36.5026" fill="white" transform="translate(0.916016 0.0307617)"/>
</clipPath>
</defs>
</svg>
