<svg width="50" height="48" viewBox="0 0 50 48" fill="none" xmlns="http://www.w3.org/2000/svg">
<path fill-rule="evenodd" clip-rule="evenodd" d="M24.6711 0C11.0456 0 0 10.7452 0 24C0 37.2548 11.0456 48 24.6711 48C38.2965 48 49.3421 37.2548 49.3421 24C49.3421 10.7452 38.2965 0 24.6711 0ZM19.2468 11.2773C20.6503 11.2152 21.0988 11.2 24.6723 11.2H24.6682C28.2428 11.2 28.6896 11.2152 30.0931 11.2773C31.4939 11.3397 32.4506 11.5555 33.2894 11.872C34.1557 12.1987 34.8876 12.636 35.6195 13.348C36.3514 14.0595 36.801 14.7736 37.1382 15.6155C37.4616 16.4294 37.6837 17.3595 37.7495 18.7222C37.8125 20.0876 37.8289 20.5238 37.8289 24.0001C37.8289 27.4764 37.8125 27.9116 37.7495 29.277C37.6837 30.6391 37.4616 31.5695 37.1382 32.3837C36.801 33.2253 36.3514 33.9394 35.6195 34.6509C34.8884 35.3629 34.1554 35.8013 33.2903 36.1283C32.4531 36.4448 31.4958 36.6605 30.095 36.7229C28.6915 36.7851 28.2444 36.8003 24.6706 36.8003C21.0974 36.8003 20.6492 36.7851 19.2457 36.7229C17.8452 36.6605 16.8888 36.4448 16.0516 36.1283C15.1867 35.8013 14.4526 35.3629 13.7215 34.6509C12.9899 33.9394 12.5403 33.2253 12.204 32.3834C11.8788 31.5695 11.6571 30.6394 11.5927 29.2767C11.5291 27.9114 11.5132 27.4764 11.5132 24.0001C11.5132 20.5238 11.5296 20.0873 11.5924 18.7219C11.6554 17.3598 11.8775 16.4294 12.2037 15.6152C12.5409 14.7736 12.9904 14.0595 13.7223 13.348C14.4537 12.6363 15.1878 12.1989 16.0532 11.872C16.8899 11.5555 17.846 11.3397 19.2468 11.2773Z" fill="#25AFF4"/>
<path fill-rule="evenodd" clip-rule="evenodd" d="M23.4917 13.5066C23.7209 13.5063 23.9675 13.5064 24.2335 13.5065L24.6721 13.5066C28.1853 13.5066 28.6017 13.5189 29.989 13.5802C31.2719 13.6373 31.9682 13.8458 32.432 14.021C33.0461 14.253 33.4839 14.5304 33.9441 14.9784C34.4047 15.4264 34.6897 15.853 34.9288 16.4504C35.1089 16.9011 35.3235 17.5784 35.3819 18.8264C35.445 20.1758 35.4587 20.5811 35.4587 23.9971C35.4587 27.4132 35.445 27.8185 35.3819 29.1678C35.3232 30.4159 35.1089 31.0932 34.9288 31.5439C34.6903 32.1412 34.4047 32.5665 33.9441 33.0143C33.4836 33.4623 33.0464 33.7396 32.432 33.9716C31.9688 34.1476 31.2719 34.3556 29.989 34.4127C28.602 34.474 28.1853 34.4874 24.6721 34.4874C21.1586 34.4874 20.7422 34.474 19.3552 34.4127C18.0722 34.3551 17.376 34.1466 16.9119 33.9714C16.2978 33.7394 15.8592 33.462 15.3987 33.014C14.9382 32.566 14.6531 32.1404 14.414 31.5428C14.2339 31.0921 14.0193 30.4148 13.9609 29.1668C13.8979 27.8174 13.8853 27.4121 13.8853 23.9939C13.8853 20.5758 13.8979 20.1726 13.9609 18.8232C14.0196 17.5752 14.2339 16.8979 14.414 16.4466C14.6525 15.8493 14.9382 15.4226 15.3987 14.9746C15.8592 14.5266 16.2978 14.2493 16.9119 14.0168C17.3757 13.8408 18.0722 13.6328 19.3552 13.5754C20.569 13.5221 21.0394 13.5061 23.4917 13.5034V13.5066ZM31.6957 15.632C30.824 15.632 30.1168 16.3192 30.1168 17.1675C30.1168 18.0155 30.824 18.7035 31.6957 18.7035C32.5675 18.7035 33.2747 18.0155 33.2747 17.1675C33.2747 16.3194 32.5675 15.6314 31.6957 15.6314V15.632ZM17.9149 24.0001C17.9149 20.37 20.9403 17.4268 24.6718 17.4267C28.4035 17.4267 31.4282 20.3699 31.4282 24.0001C31.4282 27.6302 28.4038 30.5721 24.6721 30.5721C20.9404 30.5721 17.9149 27.6302 17.9149 24.0001Z" fill="#25AFF4"/>
<path d="M24.6721 19.7334C27.0943 19.7334 29.0582 21.6436 29.0582 24.0001C29.0582 26.3564 27.0943 28.2668 24.6721 28.2668C22.2497 28.2668 20.2861 26.3564 20.2861 24.0001C20.2861 21.6436 22.2497 19.7334 24.6721 19.7334Z" fill="#25AFF4"/>
</svg>
