<svg width="50" height="48" viewBox="0 0 50 48" fill="none" xmlns="http://www.w3.org/2000/svg">
<path fill-rule="evenodd" clip-rule="evenodd" d="M24.6711 48C11.0456 48 0 37.2548 0 24C0 10.7452 11.0456 0 24.6711 0C38.2965 0 49.3421 10.7452 49.3421 24C49.3421 37.2548 38.2965 48 24.6711 48ZM25.0148 22.653C27.0349 22.653 36.8569 17.28 36.8569 17.28L36.8727 16.32C36.8727 15.2602 35.9885 14.4 34.896 14.4H15.1335C14.0421 14.4 13.1579 15.2602 13.1579 16.32V17.1754C13.1579 17.1754 23.0875 22.653 25.0148 22.653ZM13.1737 20.16C13.1727 20.16 23.0875 25.293 25.0148 25.293C27.1276 25.293 36.8569 20.16 36.8569 20.16L36.8727 31.68C36.8727 32.7398 35.9885 33.6 34.896 33.6H15.1335C14.0431 33.6 13.1579 32.7398 13.1579 31.68L13.1737 20.16Z" fill="#25AFF4"/>
</svg>
