<svg width="50" height="48" viewBox="0 0 50 48" fill="none" xmlns="http://www.w3.org/2000/svg">
<path fill-rule="evenodd" clip-rule="evenodd" d="M24.6711 0C11.0456 0 0 10.7452 0 24C0 37.2548 11.0456 48 24.6711 48C38.2965 48 49.3421 37.2548 49.3421 24C49.3421 10.7452 38.2965 0 24.6711 0ZM17.2572 12C17.3302 12.0563 17.3881 12.0563 17.446 12.049C17.7455 12.0245 18.0023 12.0955 18.1685 12.3625C18.1978 12.4087 18.2271 12.4549 18.2565 12.5012C18.6 13.0428 18.9441 13.5854 19.2711 14.1404C19.5079 14.5417 19.7337 14.9495 19.9598 15.3577C20.1256 15.657 20.2915 15.9566 20.4619 16.254C20.5279 16.3745 20.6103 16.488 20.6928 16.6016C20.7393 16.6657 20.7859 16.7298 20.8295 16.7952C20.9346 16.9579 21.0352 17.125 21.1334 17.2881L21.1492 17.3144C21.3607 17.7038 21.3506 18.0956 21.0359 18.4066C20.7047 18.7361 20.3486 19.0482 19.9933 19.3597C19.8679 19.4696 19.7426 19.5794 19.6186 19.6899C19.4643 19.8276 19.3078 19.9632 19.1513 20.0986C18.9043 20.3124 18.6576 20.526 18.4202 20.7479C18.1181 21.032 18.0401 21.3871 18.244 21.7618C18.2629 21.7962 18.2818 21.8306 18.3006 21.8649C18.5963 22.4036 18.8916 22.9416 19.2158 23.4688C20.4947 25.5431 22.1285 27.3064 24.1929 28.6656C24.9884 29.1921 25.8166 29.6746 26.6525 30.135C27.4404 30.5685 27.7476 30.495 28.3593 29.8313C28.6824 29.4822 28.999 29.13 29.3161 28.7773C29.5573 28.5089 29.7988 28.2402 30.0435 27.9725C30.1795 27.8231 30.3431 27.6909 30.5017 27.5635C30.8239 27.299 31.1764 27.2696 31.5465 27.4509C31.5697 27.4619 31.5932 27.4726 31.6169 27.4834C31.6985 27.5207 31.7808 27.5582 31.8511 27.6076C32.5075 28.0645 33.2158 28.4315 33.9231 28.7981C34.2737 28.9798 34.624 29.1614 34.9677 29.3538C35.3221 29.5518 35.6703 29.7589 36.0176 29.9653C36.2156 30.0831 36.4133 30.2006 36.6117 30.3162C36.9062 30.4852 37.0245 30.7326 37.0044 31.073C36.949 32.0305 36.7854 32.971 36.2139 33.7791C35.9747 34.1147 35.6349 34.4085 35.2925 34.6461C34.3434 35.2926 33.2835 35.6918 32.1557 35.9367C31.1311 36.1596 30.109 36.0788 29.1272 35.78C27.2315 35.2118 25.3635 34.5604 23.644 33.5734C22.0832 32.6746 20.6633 31.5897 19.3492 30.3775C17.6851 28.837 16.1998 27.157 14.999 25.2443C14.216 24.0027 13.6571 22.6655 13.1511 21.3014C12.844 20.4785 12.5419 19.663 12.4059 18.7911C12.2498 17.8042 12.3581 16.854 12.6829 15.9184C12.9749 15.0735 13.3399 14.2653 13.8913 13.5429C14.3243 12.9821 14.8655 12.5706 15.5654 12.3869C15.9608 12.2852 16.3588 12.198 16.7566 12.1108C16.9235 12.0742 17.0905 12.0376 17.2572 12Z" fill="#25AFF4"/>
</svg>
