<svg width="40" height="37" viewBox="0 0 40 37" fill="none" xmlns="http://www.w3.org/2000/svg">
<g clip-path="url(#clip0)">
<path d="M1.36828 17.6305L10.364 20.7697L13.8459 31.2395C14.0686 31.9101 14.9456 32.1579 15.5277 31.7129L20.5421 27.8909C21.0677 27.4904 21.8163 27.4705 22.3656 27.8433L31.4097 33.9827C32.0324 34.4059 32.9146 34.0868 33.0708 33.3833L39.6961 3.58614C39.8665 2.81764 39.0589 2.17654 38.2763 2.45955L1.35774 15.7758C0.446666 16.1043 0.454604 17.3104 1.36828 17.6305ZM13.2847 19.0986L30.8656 8.97441C31.1816 8.79299 31.5067 9.19245 31.2354 9.42777L16.726 22.0382C16.216 22.4821 15.887 23.0761 15.7938 23.7208L15.2996 27.1455C15.2341 27.6028 14.5471 27.6481 14.4122 27.2056L12.5113 20.9606C12.2936 20.2483 12.6109 19.4875 13.2847 19.0986Z" fill="white"/>
</g>
<defs>
<clipPath id="clip0">
<rect width="39.0404" height="36.5026" fill="white" transform="translate(0.678711 0.0307617)"/>
</clipPath>
</defs>
</svg>
