<svg width="50" height="48" viewBox="0 0 50 48" fill="none" xmlns="http://www.w3.org/2000/svg">
<path fill-rule="evenodd" clip-rule="evenodd" d="M24.6711 0C11.0456 0 0 10.7452 0 24C0 37.2548 11.0456 48 24.6711 48C38.2965 48 49.3421 37.2548 49.3421 24C49.3421 10.7452 38.2965 0 24.6711 0ZM26.6798 31.5762C26.4366 31.8257 25.9616 31.8761 25.9616 31.8761H24.3888C24.3888 31.8761 20.9187 32.0752 17.8619 29.037C14.5283 25.7222 11.5846 19.1455 11.5846 19.1455C11.5846 19.1455 11.4147 18.7141 11.5988 18.5064C11.806 18.2717 12.3711 18.2569 12.3711 18.2569L16.1307 18.2336C16.1307 18.2336 16.4847 18.2889 16.7382 18.4671C16.948 18.6146 17.0651 18.8887 17.0651 18.8887C17.0651 18.8887 17.6727 20.3562 18.4771 21.6835C20.0487 24.2756 20.7797 24.8422 21.3126 24.5644C22.09 24.1601 21.857 20.9006 21.857 20.9006C21.857 20.9006 21.8712 19.7183 21.4658 19.191C21.1517 18.783 20.5596 18.6637 20.2984 18.6306C20.086 18.6035 20.4335 18.134 20.884 17.9239C21.561 17.608 22.7554 17.5896 24.1674 17.6031C25.2679 17.6141 25.5845 17.6793 26.0144 17.7788C27.0121 18.0087 26.981 18.7455 26.9138 20.3357C26.8937 20.8113 26.8703 21.3631 26.8703 22.0006C26.8703 22.1439 26.8659 22.2966 26.8614 22.4537C26.8381 23.2683 26.8114 24.2012 27.3736 24.5485C27.6619 24.7254 28.3659 24.5743 30.128 21.7179C30.9633 20.3635 31.5889 18.7719 31.5889 18.7719C31.5889 18.7719 31.7266 18.488 31.9389 18.3663C32.1565 18.2422 32.4499 18.2803 32.4499 18.2803L36.4065 18.2569C36.4065 18.2569 37.5958 18.1205 37.7876 18.6343C37.9896 19.1713 37.3435 20.4274 35.7269 22.4849C34.1956 24.4343 33.4493 25.1538 33.5154 25.7887C33.5638 26.2543 34.049 26.6745 34.9817 27.5006C36.9249 29.2235 37.4458 30.1299 37.5709 30.3476C37.5813 30.3657 37.589 30.379 37.5945 30.3877C38.4659 31.7679 36.6279 31.8761 36.6279 31.8761L33.1128 31.9228C33.1128 31.9228 32.3585 32.0654 31.3649 31.414C30.8444 31.073 30.3358 30.5162 29.8513 29.9858C29.1115 29.1758 28.428 28.4276 27.8447 28.6043C26.8652 28.9018 26.8948 30.9162 26.8948 30.9162C26.8948 30.9162 26.9025 31.3476 26.6798 31.5762Z" fill="#25AFF4"/>
</svg>
