<svg width="50" height="48" viewBox="0 0 50 48" fill="none" xmlns="http://www.w3.org/2000/svg">
<path fill-rule="evenodd" clip-rule="evenodd" d="M0 24C0 37.2548 11.0456 48 24.6711 48C38.2965 48 49.3421 37.2548 49.3421 24C49.3421 10.7452 38.2965 0 24.6711 0C11.0456 0 0 10.7452 0 24ZM40.1543 23.0815C40.1511 30.9483 33.5727 37.3493 25.4842 37.3525H25.4782C23.0229 37.3517 20.6104 36.7524 18.4677 35.6155L10.6908 37.6L12.772 30.2048C11.4882 28.0405 10.8127 25.5855 10.8138 23.0702C10.817 15.2017 17.398 8.8 25.4841 8.8C29.4086 8.80165 33.0919 10.2879 35.8616 12.9854C38.6314 15.6828 40.1559 19.2683 40.1543 23.0815Z" fill="#25AFF4"/>
<path fill-rule="evenodd" clip-rule="evenodd" d="M14.2129 34.2096L18.8278 33.0319L19.2731 33.289C21.1452 34.3697 23.2912 34.9415 25.4792 34.9424H25.4841C32.2047 34.9424 37.6745 29.6212 37.6772 23.0807C37.6785 19.9112 36.4114 16.9311 34.1093 14.689C31.8072 12.4469 28.7457 11.2115 25.4889 11.2104C18.7631 11.2104 13.2932 16.5311 13.2905 23.0711C13.2896 25.3124 13.9342 27.4951 15.1548 29.3836L15.4447 29.8324L14.2129 34.2096ZM32.3728 26.1541C32.6285 26.2743 32.8011 26.3554 32.8748 26.4751C32.9664 26.6238 32.9664 27.3378 32.6611 28.1709C32.3555 29.0038 30.8911 29.764 30.1868 29.8663C29.5553 29.9582 28.7562 29.9965 27.8781 29.725C27.3457 29.5607 26.663 29.3413 25.7884 28.9739C22.352 27.5304 20.0297 24.2904 19.5908 23.678C19.56 23.6351 19.5385 23.6051 19.5265 23.5896L19.5236 23.5857C19.3296 23.3339 18.0298 21.6468 18.0298 19.9008C18.0298 18.2583 18.8592 17.3973 19.2409 17.001C19.2671 16.9739 19.2912 16.9489 19.3127 16.926C19.6487 16.569 20.0458 16.4798 20.2902 16.4798C20.5345 16.4798 20.7792 16.482 20.9927 16.4924C21.0191 16.4937 21.0465 16.4935 21.0748 16.4934C21.2884 16.4921 21.5548 16.4906 21.8175 17.1045C21.9185 17.3408 22.0664 17.691 22.2224 18.0604C22.5378 18.8074 22.8863 19.6328 22.9476 19.7522C23.0393 19.9307 23.1004 20.1389 22.9782 20.377C22.9598 20.4127 22.9429 20.4464 22.9267 20.4785C22.8349 20.6608 22.7674 20.7949 22.6116 20.9718C22.5504 21.0414 22.4871 21.1163 22.4238 21.1913C22.2977 21.3407 22.1716 21.4901 22.0618 21.5965C21.8783 21.7743 21.6873 21.9673 21.9011 22.3243C22.1149 22.6813 22.8506 23.8489 23.9403 24.7945C25.1117 25.8109 26.1297 26.2405 26.6458 26.4583C26.7466 26.5008 26.8282 26.5352 26.8881 26.5644C27.2545 26.7429 27.4683 26.7131 27.6822 26.4751C27.896 26.2372 28.5985 25.4339 28.8428 25.0769C29.0871 24.7201 29.3316 24.7795 29.6675 24.8985C30.0036 25.0176 31.8058 25.8801 32.1723 26.0586C32.2439 26.0935 32.3108 26.1249 32.3728 26.1541Z" fill="#25AFF4"/>
</svg>
