<svg width="37" height="37" viewBox="0 0 37 37" fill="none" xmlns="http://www.w3.org/2000/svg">
<g clip-path="url(#clip0)">
<path d="M33.1644 18.511C32.7904 16.8722 31.4609 15.6633 29.8608 15.4833C26.0725 15.0566 22.2363 15.0546 18.4188 15.0566C14.5998 15.0546 10.7644 15.0566 6.97488 15.4833C5.37556 15.6637 4.04692 16.8726 3.67324 18.511C3.14067 20.8446 3.13428 23.3919 3.13428 25.7948C3.13428 28.1977 3.13428 30.7446 3.66685 33.0782C4.04053 34.7167 5.36917 35.9255 6.96929 36.1059C10.758 36.533 14.5934 36.5346 18.4121 36.533C22.2311 36.535 26.0657 36.533 29.8556 36.1059C31.4549 35.9255 32.7844 34.7167 33.1581 33.0782C33.6902 30.7446 33.693 28.1977 33.693 25.7948C33.6926 23.3915 33.6966 20.8446 33.1644 18.511ZM11.8507 20.3196H9.63895V32.1701H7.58451V20.3196H5.41309V18.3785H11.8507V20.3196ZM17.4307 32.1705H15.5827V31.0494C14.8485 31.898 14.1515 32.3118 13.4724 32.3118C12.8771 32.3118 12.4675 32.0686 12.2827 31.5481C12.1821 31.2374 12.1198 30.7454 12.1198 30.02V21.894H13.9662V29.4601C13.9662 29.8964 13.9662 30.1231 13.983 30.1843C14.0273 30.4733 14.1674 30.6198 14.415 30.6198C14.7854 30.6198 15.1727 30.332 15.5823 29.7479V21.894H17.4303L17.4307 32.1705ZM24.4464 29.0861C24.4464 30.0365 24.383 30.7213 24.2596 31.1568C24.0129 31.9213 23.519 32.3118 22.7844 32.3118C22.1273 32.3118 21.4933 31.9438 20.8757 31.175V32.1709H19.0293V18.3785H20.8757V22.8827C21.4722 22.1424 22.1053 21.768 22.7844 21.768C23.519 21.768 24.0133 22.1581 24.2596 22.9274C24.3838 23.3408 24.4464 24.0203 24.4464 24.9933V29.0861ZM31.4158 27.3716H27.7225V29.1932C27.7225 30.1444 28.0311 30.6194 28.6659 30.6194C29.1206 30.6194 29.3853 30.3703 29.4907 29.8727C29.5079 29.7717 29.5322 29.3578 29.5322 28.6111H31.4162V28.8828C31.4162 29.483 31.3935 29.8964 31.3767 30.0824C31.3148 30.4946 31.1695 30.8686 30.9455 31.1979C30.4341 31.9442 29.6764 32.3122 28.7118 32.3122C27.7457 32.3122 27.0103 31.9616 26.4765 31.2599C26.0849 30.7454 25.8837 29.9355 25.8837 28.8434V25.2441C25.8837 24.1455 26.0621 23.342 26.4546 22.8227C26.9879 22.1195 27.7229 21.7692 28.6663 21.7692C29.5929 21.7692 30.3275 22.1195 30.8449 22.8227C31.2318 23.342 31.4166 24.1455 31.4166 25.2441V27.3716H31.4158Z" fill="white"/>
<path d="M28.6498 23.4446C28.0325 23.4446 27.7231 23.92 27.7231 24.87V25.8209H29.5696V24.87C29.5692 23.92 29.2606 23.4446 28.6498 23.4446Z" fill="white"/>
<path d="M21.7965 23.4446C21.4923 23.4446 21.1841 23.5895 20.8755 23.8975V30.1608C21.1837 30.4724 21.4923 30.6197 21.7965 30.6197C22.3291 30.6197 22.5998 30.1608 22.5998 29.2329V24.8467C22.5998 23.92 22.3291 23.4446 21.7965 23.4446Z" fill="white"/>
<path d="M22.8282 14.1093C23.5089 14.1093 24.2171 13.6923 24.9601 12.834V13.9668H26.8265V3.5813H24.9601V11.5189C24.5465 12.1082 24.1545 12.3997 23.7812 12.3997C23.5313 12.3997 23.3843 12.2507 23.3436 11.9589C23.3209 11.8973 23.3209 11.6682 23.3209 11.2274V3.5813H21.4604V11.7934C21.4604 12.5269 21.5227 13.0232 21.6257 13.3376C21.8134 13.8638 22.2274 14.1093 22.8282 14.1093Z" fill="white"/>
<path d="M9.83528 8.32261V13.9668H11.9049V8.32261L14.3945 0.0307617H12.3017L10.8897 5.50351L9.42048 0.0307617H7.24268C7.67904 1.32256 8.13296 2.62081 8.56932 3.91382C9.23324 5.85735 9.64764 7.32266 9.83528 8.32261Z" fill="white"/>
<path d="M17.1682 14.1092C18.1032 14.1092 18.8298 13.7546 19.3452 13.0461C19.7369 12.5264 19.9245 11.7076 19.9245 10.6037V6.96706C19.9245 5.85681 19.7373 5.04526 19.3452 4.52073C18.8298 3.81022 18.1036 3.45557 17.1682 3.45557C16.238 3.45557 15.5118 3.81022 14.9952 4.52073C14.5988 5.04526 14.4111 5.85681 14.4111 6.96706V10.6037C14.4111 11.7076 14.5988 12.5264 14.9952 13.0461C15.5114 13.7546 16.238 14.1092 17.1682 14.1092ZM16.2775 6.58987C16.2775 5.62897 16.5666 5.14992 17.1682 5.14992C17.7699 5.14992 18.0581 5.62856 18.0581 6.58987V10.9584C18.0581 11.9193 17.7699 12.4 17.1682 12.4C16.5666 12.4 16.2775 11.9193 16.2775 10.9584V6.58987Z" fill="white"/>
</g>
<defs>
<clipPath id="clip0">
<rect width="36.2011" height="36.5026" fill="white" transform="translate(0.312988 0.0307617)"/>
</clipPath>
</defs>
</svg>
