<svg width="705" height="554" viewBox="0 0 705 554" fill="none" xmlns="http://www.w3.org/2000/svg">
<path fill-rule="evenodd" clip-rule="evenodd" d="M696.375 249.457C672.851 336.649 608.363 406.467 527.874 458.801C443.038 513.962 343.638 561.827 230.722 552.227C118.184 542.659 1.80968 488.934 -71.0792 407.878C-137.632 333.868 -97.0066 235.557 -131.82 149.063C-166.781 62.2014 -280.618 -6.86542 -273.228 -94.3601C-265.559 -185.156 -185.125 -257.333 -94.188 -296.468C-7.5068 -333.771 100.039 -307.691 202.116 -298.925C303.117 -290.251 410.828 -300.383 496.565 -245.734C583.625 -190.24 619.678 -96.8771 654.504 -10.5667C689.445 76.0279 718.968 165.712 696.375 249.457Z" fill="white"/>
</svg>
