<svg width="1440" height="784" viewBox="0 0 1440 784" fill="none" xmlns="http://www.w3.org/2000/svg">
<path fill-rule="evenodd" clip-rule="evenodd" d="M697.995 783.09C475.077 776.358 260.621 736.227 74.5457 681.679C-121.578 624.185 -312.072 554.674 -378.506 467.515C-444.718 380.648 -410.443 285.206 -277.848 219.354C-156.779 159.226 105.674 177.548 281.005 139.975C457.083 102.242 529.321 6.76506 740.241 1.18053C959.12 -4.61467 1191.67 47.3489 1355.03 111.538C1510.75 172.724 1534.32 257.907 1594.17 336.711C1653.39 414.683 1761.98 495.353 1701.41 567.599C1639.89 640.961 1449.44 680.357 1274.54 717.916C1099.08 755.599 912.1 789.555 697.995 783.09Z" fill="white"/>
</svg>
