<svg width="1440" height="672" viewBox="0 0 1440 672" fill="none" xmlns="http://www.w3.org/2000/svg">
<path fill-rule="evenodd" clip-rule="evenodd" d="M803.072 626.942C621.859 621.053 447.383 590.661 295.914 549.798C136.264 506.728 -18.8611 454.853 -73.2266 390.537C-127.41 326.437 -99.9554 256.461 7.53691 208.641C105.686 164.978 319.081 179.55 461.428 152.688C604.382 125.711 662.692 55.8702 834.101 52.66C1011.98 49.3285 1201.21 88.4897 1334.26 136.34C1461.08 181.952 1480.6 244.635 1529.58 302.784C1578.04 360.32 1666.65 420.047 1617.72 472.869C1568.03 526.507 1413.4 554.645 1271.41 581.499C1128.95 608.442 977.121 632.598 803.072 626.942Z" fill="white"/>
</svg>
