<svg width="1440" height="1538" viewBox="0 0 1440 1538" fill="none" xmlns="http://www.w3.org/2000/svg">
<path fill-rule="evenodd" clip-rule="evenodd" d="M809.808 220.12C1029.01 261.509 1231.46 347.444 1402.16 449.037C1582.09 556.117 1753.42 678.852 1797.39 807.868C1841.21 936.451 1783.31 1062.29 1635.4 1133.39C1500.35 1198.31 1244.88 1135.33 1061.71 1161.52C877.771 1187.82 782.242 1308.22 571.836 1285.44C353.491 1261.8 136.09 1157.04 -9.69129 1045.51C-148.65 939.204 -150.644 819.08 -190.187 702.463C-229.313 587.076 -316.686 460.869 -238.54 370.613C-159.188 278.965 39.4222 252.464 222.147 226.233C405.472 199.916 599.268 180.367 809.808 220.12Z" fill="white"/>
</svg>
