<svg width="304" height="569" viewBox="0 0 304 569" fill="none" xmlns="http://www.w3.org/2000/svg">
<path d="M128.685 568.605C57.9926 568.605 0.685059 560.182 0.685059 549.791C0.685059 539.4 57.9926 530.977 128.685 530.977C199.378 530.977 256.685 539.4 256.685 549.791C256.685 560.182 199.378 568.605 128.685 568.605Z" fill="#F5FBFF"/>
<path d="M247.318 100.868L254.863 91.6276L265.4 98.2755C265.4 98.2755 260.581 103.428 254.73 110.624L247.318 100.868Z" fill="#FFC6A6"/>
<path d="M153.232 101.616C153.664 102.547 153.963 103.112 154.329 103.827L155.376 105.821C156.09 107.134 156.788 108.43 157.536 109.71C158.999 112.258 160.533 114.763 162.14 117.222C165.37 122.259 168.935 127.073 172.81 131.632C176.917 136.497 181.543 140.9 186.605 144.762C189.406 146.831 192.387 148.645 195.513 150.18L198.023 151.293L200.665 152.274C201.546 152.59 202.493 152.822 203.424 153.088L204.122 153.288L205.119 153.504C205.851 153.653 206.565 153.753 207.263 153.836C209.806 154.085 212.372 153.951 214.875 153.437C216.927 153.034 218.936 152.439 220.875 151.659C224.11 150.334 227.205 148.692 230.116 146.756C235.153 143.36 239.895 139.546 244.293 135.355C248.564 131.383 252.52 127.277 256.309 123.089C258.204 120.978 260.082 118.884 261.91 116.724C263.738 114.563 265.483 112.486 267.378 110.076L248.996 95.8158C247.567 97.6273 245.855 99.7048 244.21 101.616C242.564 103.527 240.886 105.489 239.124 107.367C235.634 111.106 232.06 114.713 228.387 118.02C224.926 121.197 221.195 124.067 217.235 126.596C215.66 127.604 213.99 128.456 212.249 129.139C210.82 129.687 209.756 129.671 210.072 129.588H210.238C210.238 129.588 210.371 129.588 210.238 129.588L209.956 129.504C209.59 129.355 209.241 129.272 208.859 129.122L207.745 128.64L206.582 128.059C204.92 127.138 203.341 126.076 201.862 124.884C198.465 122.058 195.404 118.852 192.738 115.328C189.822 111.533 187.173 107.54 184.81 103.378C183.591 101.25 182.444 99.0899 181.369 96.8961C180.821 95.8158 180.289 94.7188 179.707 93.5721L178.976 91.9101C178.76 91.4115 178.478 90.7633 178.361 90.4641L153.232 101.616Z" fill="#25AFF4"/>
<path opacity="0.8" d="M153.232 101.616C153.664 102.547 153.963 103.112 154.329 103.827L155.376 105.821C156.09 107.134 156.788 108.43 157.536 109.71C158.999 112.258 160.533 114.763 162.14 117.222C165.37 122.259 168.935 127.073 172.81 131.632C176.917 136.497 181.543 140.9 186.605 144.762C189.406 146.831 192.387 148.645 195.513 150.18L198.023 151.293L200.665 152.274C201.546 152.59 202.493 152.822 203.424 153.088L204.122 153.288L205.119 153.504C205.851 153.653 206.565 153.753 207.263 153.836C209.806 154.085 212.372 153.951 214.875 153.437C216.927 153.034 218.936 152.439 220.875 151.659C224.11 150.334 227.205 148.692 230.116 146.756C235.153 143.36 239.895 139.546 244.293 135.355C248.564 131.383 252.52 127.277 256.309 123.089C258.204 120.978 260.082 118.884 261.91 116.724C263.738 114.563 265.483 112.486 267.378 110.076L248.996 95.8158C247.567 97.6273 245.855 99.7048 244.21 101.616C242.564 103.527 240.886 105.489 239.124 107.367C235.634 111.106 232.06 114.713 228.387 118.02C224.926 121.197 221.195 124.067 217.235 126.596C215.66 127.604 213.99 128.456 212.249 129.139C210.82 129.687 209.756 129.671 210.072 129.588H210.238C210.238 129.588 210.371 129.588 210.238 129.588L209.956 129.504C209.59 129.355 209.241 129.272 208.859 129.122L207.745 128.64L206.582 128.059C204.92 127.138 203.341 126.076 201.862 124.884C198.465 122.058 195.404 118.852 192.738 115.328C189.822 111.533 187.173 107.54 184.81 103.378C183.591 101.25 182.444 99.0899 181.369 96.8961C180.821 95.8158 180.289 94.7188 179.707 93.5721L178.976 91.9101C178.76 91.4115 178.478 90.7633 178.361 90.4641L153.232 101.616Z" fill="white"/>
<path d="M156.922 367.237H103.272L123.615 265.556H149.892L156.922 367.237Z" fill="#25AFF4"/>
<path opacity="0.6" d="M156.922 367.237H103.272L123.615 265.556H149.892L156.922 367.237Z" fill="white"/>
<path d="M145.42 534.6H159.098L159.68 502.939H146.002L145.42 534.6Z" fill="#FFC6A6"/>
<path d="M69.6832 534.6H83.3614L89.4609 502.939H75.7827L69.6832 534.6Z" fill="#FFC6A6"/>
<path d="M84.2924 533.021H69.002C68.7327 533.02 68.4711 533.112 68.262 533.281C68.0529 533.451 67.9091 533.688 67.8552 533.952L65.4619 546.101C65.4079 546.401 65.4209 546.709 65.5 547.003C65.5791 547.296 65.7222 547.569 65.9193 547.801C66.1163 548.033 66.3623 548.219 66.6396 548.344C66.9168 548.47 67.2184 548.533 67.5228 548.528C72.8744 548.445 75.4672 548.129 82.2315 548.129C86.3865 548.129 94.9625 548.561 100.696 548.561C106.43 548.561 107.045 542.894 104.685 542.378C94.0982 540.068 90.0429 536.894 86.6026 533.852C85.9578 533.306 85.1375 533.011 84.2924 533.021Z" fill="#263238"/>
<path d="M158.966 533.021H144.008C143.741 533.02 143.482 533.113 143.275 533.283C143.069 533.453 142.928 533.69 142.878 533.952L140.468 546.068C140.412 546.366 140.422 546.673 140.498 546.966C140.574 547.26 140.714 547.533 140.907 547.767C141.101 548 141.344 548.188 141.618 548.316C141.893 548.445 142.193 548.512 142.496 548.511C147.881 548.412 155.659 548.096 162.44 548.096C170.351 548.096 170.999 548.528 180.273 548.528C185.891 548.528 187.303 542.86 184.943 542.345C174.19 540.002 171.647 539.753 162.274 534.035C161.284 533.402 160.14 533.052 158.966 533.021Z" fill="#263238"/>
<path d="M259.965 88.4697L268.807 88.3367L270.469 99.7381C264.84 100.767 259.034 100.191 253.716 98.0761L253.866 94.3698C253.934 92.7924 254.604 91.3012 255.739 90.2035C256.874 89.1058 258.387 88.4853 259.965 88.4697Z" fill="#FFC6A6"/>
<path d="M282.635 88.8686L280.923 96.0651L270.503 99.7381L268.807 88.3367L282.635 88.8686Z" fill="#FFC6A6"/>
<path opacity="0.2" d="M159.68 502.956L159.381 519.277H145.703L146.002 502.956H159.68Z" fill="#535353"/>
<path opacity="0.2" d="M75.7826 502.956H89.4609L86.3031 519.277H72.6248L75.7826 502.956Z" fill="#535353"/>
<path d="M175.818 93.1233C179.608 107.616 186.405 144.18 178.976 202.333H105.848C105.134 192.145 109.787 146.058 101.56 98.076C101.214 96.1226 101.271 94.1189 101.729 92.1885C102.187 90.2581 103.035 88.442 104.222 86.852C105.409 85.2621 106.908 83.9321 108.629 82.944C110.349 81.956 112.253 81.3308 114.225 81.107C117.067 80.7912 120.075 80.5253 123.05 80.3757C133.271 80.0916 143.5 80.4246 153.681 81.3729C158.023 81.7875 162.322 82.5771 166.528 83.733C168.767 84.3407 170.805 85.5293 172.436 87.1783C174.068 88.8273 175.235 90.8782 175.818 93.1233Z" fill="white"/>
<path d="M126.407 51.3074C128.618 61.2794 129.897 73.6945 123.083 80.3757C123.083 80.3757 127.354 90.5139 145.936 90.5139C162.921 90.5139 154.246 80.3757 154.246 80.3757C143.027 77.7165 143.26 63.9219 145.022 56.1438L126.407 51.3074Z" fill="#FFC6A6"/>
<path d="M146.784 89.1345L150.806 93.572C150.948 93.7256 151.047 93.9147 151.09 94.1194C151.134 94.3242 151.122 94.537 151.055 94.7354L149.775 98.6578C149.704 98.8777 149.567 99.0706 149.383 99.2102C149.199 99.3499 148.976 99.4297 148.745 99.4389L144.407 99.6549C144.202 99.6638 143.997 99.6195 143.814 99.5263C143.63 99.4331 143.474 99.2943 143.36 99.1231L140.767 95.3171C140.611 95.1117 140.526 94.8606 140.526 94.6025C140.526 94.3443 140.611 94.0932 140.767 93.8878L144.956 89.1179C145.066 88.9806 145.205 88.87 145.365 88.7946C145.524 88.7192 145.698 88.6808 145.874 88.6824C146.05 88.684 146.223 88.7255 146.381 88.8038C146.538 88.8822 146.676 88.9952 146.784 89.1345Z" fill="#25AFF4"/>
<path d="M147.797 99.4056C147.797 99.4056 154.445 148.335 154.595 156.861C154.507 164.913 153.242 172.909 150.839 180.594C150.839 180.594 146.268 171.952 145.487 156.495C144.706 141.039 145.653 108.081 145.304 99.4056H147.797Z" fill="#25AFF4"/>
<path opacity="0.2" d="M144.922 56.1604C143.875 60.7143 143.376 67.329 145.404 72.5809C144.074 73.1626 138.59 71.0519 136.313 69.606C131.244 66.3817 129.282 63.2239 127.421 56.4928C127.122 54.7145 126.789 52.986 126.407 51.3074L144.922 56.1604Z" fill="#535353"/>
<path d="M162.273 46.4377C161.661 47.9926 160.744 49.4096 159.577 50.6054C158.41 51.8013 157.015 52.7519 155.476 53.4015C151.337 55.0635 148.662 51.4404 149.326 47.2023C149.908 43.3963 152.783 37.9117 157.171 38.028C158.138 38.0827 159.077 38.3718 159.907 38.8705C160.737 39.3691 161.433 40.0623 161.935 40.8901C162.438 41.718 162.731 42.6557 162.79 43.6222C162.849 44.5887 162.671 45.555 162.273 46.4377Z" fill="#FFC6A6"/>
<path opacity="0.2" d="M162.273 46.4377C161.661 47.9926 160.744 49.4096 159.577 50.6054C158.41 51.8013 157.015 52.7519 155.476 53.4015C151.337 55.0635 148.662 51.4404 149.326 47.2023C149.908 43.3963 152.783 37.9117 157.171 38.028C158.138 38.0827 159.077 38.3718 159.907 38.8705C160.737 39.3691 161.433 40.0623 161.935 40.8901C162.438 41.718 162.731 42.6557 162.79 43.6222C162.849 44.5887 162.671 45.555 162.273 46.4377Z" fill="#535353"/>
<path d="M145.453 31.4631C146.235 37.3134 149.891 41.6678 153.614 41.1692C157.337 40.6706 159.713 35.5184 158.916 29.6515C158.118 23.7847 154.478 19.4302 150.755 19.9288C147.032 20.4274 144.622 25.5963 145.453 31.4631Z" fill="#263238"/>
<path d="M119.859 38.3438C123.183 51.6398 124.479 59.551 132.474 65.3015C144.473 73.9605 159.68 65.0522 160.312 51.1246C160.894 38.5931 155.326 18.9815 141.365 15.8237C138.304 15.1156 135.111 15.2165 132.101 16.1166C129.091 17.0167 126.367 18.6849 124.197 20.9572C122.027 23.2294 120.486 26.0275 119.725 29.076C118.964 32.1245 119.011 35.3185 119.859 38.3438Z" fill="#FFC6A6"/>
<path d="M141.93 11.1867C149.891 12.8487 158.7 19.3471 151.105 24.0838C143.509 28.8205 126.407 29.5518 126.407 29.5518C126.407 29.5518 132.058 42.8478 124.33 49.7119C121.754 48.4321 127.255 60.0329 127.255 60.0329C124.424 59.058 122.056 57.0684 120.607 54.4486C115.986 53.2686 102.325 31.1806 111.433 24.9315C113.161 12.0509 131.244 8.87652 141.93 11.1867Z" fill="#263238"/>
<path d="M122.718 46.3546H122.9L134.867 40.87C134.926 40.853 134.982 40.8234 135.029 40.7832C135.076 40.743 135.114 40.6932 135.14 40.6371C135.166 40.5809 135.18 40.5199 135.18 40.458C135.181 40.3961 135.168 40.3348 135.143 40.2782C135.117 40.2217 135.08 40.1713 135.034 40.1303C134.987 40.0894 134.933 40.0589 134.873 40.041C134.814 40.023 134.752 40.018 134.69 40.0263C134.629 40.0345 134.57 40.0559 134.518 40.0889L122.535 45.5735C122.432 45.6206 122.352 45.7062 122.311 45.8119C122.271 45.9176 122.274 46.0348 122.319 46.1386C122.359 46.208 122.417 46.265 122.488 46.3031C122.558 46.3413 122.638 46.3591 122.718 46.3546Z" fill="white"/>
<path d="M116.651 54.1162C118.95 56.6616 122.153 58.2066 125.576 58.4208C130.08 58.6534 131.244 54.3489 129.083 50.5927C127.138 47.2687 122.435 43.014 118.38 44.5597C114.325 46.1054 113.876 50.975 116.651 54.1162Z" fill="#FFC6A6"/>
<path d="M178.976 202.333C178.976 202.333 183.364 304.546 182.899 346.246C182.417 389.607 164.384 516.102 164.384 516.102H141.232C141.232 516.102 143.31 392.134 141.232 349.553C138.972 303.117 130.895 202.333 130.895 202.333H178.976Z" fill="#25AFF4"/>
<path d="M140.152 505.881C140.036 505.881 139.72 516.584 139.72 516.584H166.412L167.941 504.95L140.152 505.881Z" fill="#263238"/>
<path opacity="0.2" d="M147.647 229.391C148.445 280.115 146.152 310.928 140.484 335.759C139.088 311.56 136.811 279.567 134.8 252.991L147.647 229.391Z" fill="#535353"/>
<path d="M153.032 202.333C153.032 202.333 140.069 306.807 132.523 345.947C124.213 388.81 92.6351 516.102 92.6351 516.102H67.5887C67.5887 516.102 87.3499 392.283 91.6379 349.902C96.2749 303.848 105.881 202.4 105.881 202.4L153.032 202.333Z" fill="#25AFF4"/>
<path d="M68.1874 506.446C68.0711 506.446 66.326 516.584 66.326 516.584H93.8487L96.8735 505.416L68.1874 506.446Z" fill="#263238"/>
<path d="M140.651 38.6928C140.867 39.7897 141.598 40.5709 142.312 40.4545C143.027 40.3382 143.426 39.3576 143.227 38.2607C143.027 37.1638 142.279 36.3826 141.565 36.499C140.85 36.6153 140.468 37.5959 140.651 38.6928Z" fill="#263238"/>
<path d="M154.063 35.535C154.262 36.6319 155.01 37.4131 155.725 37.2967C156.44 37.1804 156.839 36.1998 156.639 35.1029C156.44 34.006 155.692 33.2248 154.977 33.3412C154.262 33.4575 153.864 34.4381 154.063 35.535Z" fill="#263238"/>
<path d="M148.479 38.2773C150.754 41.1494 153.403 43.7039 156.356 45.8727C155.798 46.6004 155.084 47.1955 154.268 47.615C153.452 48.0345 152.553 48.2682 151.636 48.2992L148.479 38.2773Z" fill="#A02724"/>
<path d="M148.445 51.7063C148.528 51.6865 148.599 51.6358 148.646 51.5647C148.692 51.4937 148.709 51.4075 148.694 51.324C148.678 51.2385 148.629 51.1627 148.558 51.113C148.486 51.0632 148.398 51.0436 148.312 51.0581C146.963 51.3056 145.574 51.2362 144.256 50.8555C142.938 50.4748 141.726 49.7931 140.717 48.8643C140.66 48.8026 140.58 48.7662 140.496 48.763C140.412 48.7599 140.33 48.7904 140.268 48.8477C140.206 48.905 140.17 48.9844 140.167 49.0686C140.164 49.1527 140.194 49.2347 140.251 49.2964C141.328 50.3195 142.633 51.0717 144.057 51.4907C145.482 51.9098 146.986 51.9837 148.445 51.7063Z" fill="#263238"/>
<path d="M134.152 35.1361C134.25 35.1126 134.341 35.0655 134.416 34.9988C134.491 34.9322 134.549 34.8481 134.584 34.7539C134.848 34.0031 135.287 33.3261 135.865 32.7797C136.443 32.2332 137.144 31.8331 137.908 31.6127C138.076 31.5767 138.222 31.4762 138.315 31.3331C138.409 31.1899 138.442 31.0156 138.407 30.8482C138.371 30.6801 138.271 30.5326 138.129 30.4365C137.986 30.3404 137.812 30.3033 137.643 30.3329C136.651 30.5766 135.736 31.0625 134.979 31.7471C134.222 32.4317 133.647 33.2935 133.305 34.2553C133.249 34.4187 133.258 34.5971 133.329 34.7544C133.4 34.9117 133.528 35.0363 133.687 35.1029C133.833 35.1698 133.998 35.1816 134.152 35.1361Z" fill="#263238"/>
<path d="M157.503 30.2997C157.597 30.2795 157.683 30.2334 157.753 30.1667C157.869 30.0432 157.935 29.8797 157.935 29.7097C157.935 29.5397 157.869 29.3761 157.753 29.2526C157.109 28.4431 156.286 27.7947 155.349 27.3591C154.411 26.9234 153.385 26.7125 152.351 26.743C152.268 26.7532 152.188 26.7799 152.115 26.8215C152.042 26.8631 151.978 26.9188 151.927 26.9854C151.876 27.0519 151.839 27.1279 151.817 27.209C151.796 27.2901 151.791 27.3746 151.803 27.4577C151.811 27.543 151.836 27.6258 151.877 27.7013C151.917 27.7768 151.972 27.8435 152.039 27.8976C152.105 27.9517 152.182 27.9921 152.264 28.0164C152.346 28.0408 152.432 28.0486 152.517 28.0394C153.335 28.0218 154.145 28.1978 154.882 28.5531C155.618 28.9084 156.26 29.4328 156.755 30.0836C156.843 30.1917 156.962 30.2703 157.095 30.309C157.229 30.3476 157.371 30.3443 157.503 30.2997Z" fill="#263238"/>
<path d="M140.9 46.4709C141.228 46.4675 141.556 46.4397 141.88 46.3878C142.659 46.2398 143.401 45.9388 144.063 45.5023C144.725 45.0659 145.293 44.5026 145.736 43.845C146.303 42.9994 146.697 42.0504 146.897 41.0523C147.097 40.0542 147.098 39.0265 146.9 38.028C146.674 36.2098 145.747 34.5519 144.315 33.4089C142.883 32.266 141.061 31.7286 139.238 31.9118C137.667 32.2161 136.28 33.1305 135.382 34.4547C134.244 36.1653 133.826 38.2551 134.219 40.2717C134.446 41.9174 135.235 43.4339 136.453 44.5638C137.671 45.6938 139.242 46.3676 140.9 46.4709ZM140.235 32.693C141.688 32.7958 143.062 33.3981 144.122 34.3977C145.182 35.3972 145.864 36.7327 146.052 38.1776C146.408 39.9721 146.044 41.8348 145.038 43.363C144.655 43.9273 144.164 44.4101 143.594 44.7838C143.023 45.1575 142.384 45.4145 141.714 45.5402C140.118 45.685 138.528 45.1991 137.286 44.1864C136.043 43.1738 135.246 41.7149 135.066 40.1221C134.715 38.3254 135.085 36.4625 136.097 34.9367C136.478 34.3712 136.969 33.8874 137.54 33.5135C138.11 33.1397 138.75 32.8834 139.421 32.7595C139.69 32.7144 139.962 32.6922 140.235 32.693Z" fill="white"/>
<path d="M146.484 38.5266C146.553 38.526 146.62 38.5091 146.681 38.4773C146.741 38.4455 146.794 38.3997 146.833 38.3438C147.103 37.7987 147.563 37.3712 148.126 37.1416C148.689 36.912 149.317 36.8962 149.891 37.0973C149.997 37.1371 150.115 37.1352 150.22 37.092C150.324 37.0488 150.409 36.9676 150.456 36.8646C150.501 36.7609 150.504 36.6436 150.464 36.5379C150.423 36.4323 150.343 36.3467 150.24 36.2995C149.48 36.0294 148.648 36.0382 147.893 36.3243C147.138 36.6104 146.509 37.1553 146.119 37.8618C146.088 37.9098 146.067 37.9633 146.057 38.0194C146.047 38.0755 146.048 38.133 146.061 38.1886C146.073 38.2442 146.096 38.2968 146.129 38.3434C146.162 38.39 146.203 38.4297 146.251 38.4601C146.32 38.5069 146.401 38.5302 146.484 38.5266Z" fill="white"/>
<path d="M156.307 42.9641C156.641 42.9615 156.974 42.9337 157.304 42.881C158.083 42.7329 158.824 42.432 159.486 41.9955C160.148 41.559 160.717 40.9957 161.16 40.3382C162.297 38.6276 162.715 36.5377 162.323 34.5212C162.098 32.7042 161.17 31.0479 159.737 29.9076C158.305 28.7673 156.482 28.2338 154.661 28.4217C153.882 28.5633 153.14 28.8599 152.477 29.2938C151.815 29.7278 151.246 30.2902 150.805 30.9479C149.667 32.6643 149.249 34.7596 149.642 36.7815C149.869 38.4228 150.656 39.9351 151.871 41.0619C153.086 42.1888 154.653 42.8608 156.307 42.9641ZM155.658 29.1862C157.112 29.289 158.485 29.8913 159.545 30.8908C160.605 31.8904 161.287 33.2259 161.475 34.6708C161.653 35.5604 161.654 36.4763 161.477 37.3661C161.3 38.2559 160.949 39.1021 160.445 39.8562C160.063 40.4217 159.573 40.9055 159.002 41.2793C158.431 41.6531 157.792 41.9095 157.121 42.0334C155.525 42.1782 153.935 41.6923 152.692 40.6796C151.45 39.6669 150.653 38.2081 150.473 36.6153C150.116 34.8186 150.487 32.9536 151.503 31.4299C152.28 30.2929 153.475 29.51 154.827 29.2527C155.102 29.2067 155.38 29.1845 155.658 29.1862Z" fill="white"/>
<path d="M88.9457 535.398C89.8674 535.471 90.7868 535.231 91.5551 534.717C91.7849 534.51 91.9621 534.251 92.0719 533.962C92.1817 533.673 92.2211 533.362 92.1866 533.055C92.1783 532.863 92.1203 532.676 92.0184 532.513C91.9164 532.35 91.774 532.216 91.6049 532.124C90.0925 531.359 85.738 534.069 85.2394 534.368C85.1844 534.401 85.1417 534.452 85.1178 534.512C85.0938 534.572 85.0899 534.638 85.1065 534.7C85.1155 534.765 85.1443 534.825 85.1889 534.873C85.2336 534.92 85.2919 534.953 85.3558 534.966C86.5323 535.245 87.7366 535.39 88.9457 535.398ZM90.9069 532.573C91.0496 532.571 91.1911 532.6 91.3224 532.656C91.3905 532.693 91.4468 532.749 91.485 532.816C91.5232 532.884 91.5417 532.961 91.5384 533.038C91.5728 533.254 91.5528 533.475 91.4802 533.681C91.4077 533.887 91.2849 534.071 91.1229 534.218C90.3916 534.85 88.6133 534.933 86.2699 534.467C87.6563 533.546 89.2085 532.902 90.8404 532.573H90.9069Z" fill="#25AFF4"/>
<path d="M85.3561 534.933C85.4046 534.949 85.4572 534.949 85.5057 534.933C86.9017 534.168 89.5775 531.177 89.2451 529.648C89.1897 529.41 89.0567 529.198 88.8671 529.044C88.6774 528.891 88.442 528.805 88.1981 528.8C87.9518 528.768 87.7017 528.789 87.4639 528.86C87.2262 528.932 87.0063 529.053 86.8186 529.215C85.273 530.512 85.0403 534.451 85.0237 534.634C85.0335 534.72 85.0712 534.801 85.1312 534.864C85.1912 534.927 85.2702 534.969 85.3561 534.983V534.933ZM87.982 529.448H88.1316C88.5471 529.448 88.5969 529.681 88.6136 529.764C88.7964 530.661 87.1178 532.938 85.7384 534.002C85.797 532.453 86.3244 530.957 87.2508 529.714C87.4546 529.54 87.7142 529.446 87.982 529.448Z" fill="#25AFF4"/>
<path d="M164.7 535.415C165.872 535.526 167.047 535.226 168.024 534.567C168.243 534.373 168.41 534.126 168.508 533.85C168.607 533.574 168.635 533.278 168.589 532.988C168.578 532.812 168.521 532.641 168.425 532.493C168.329 532.344 168.197 532.223 168.04 532.141C166.378 531.193 160.927 533.985 160.312 534.318C160.25 534.347 160.2 534.396 160.168 534.457C160.137 534.518 160.126 534.587 160.137 534.654C160.148 534.722 160.181 534.784 160.231 534.831C160.28 534.878 160.344 534.908 160.412 534.916C161.822 535.215 163.258 535.382 164.7 535.415ZM167.06 532.573C167.27 532.57 167.48 532.609 167.675 532.689C167.736 532.724 167.787 532.775 167.822 532.837C167.857 532.898 167.875 532.968 167.874 533.038C167.908 533.229 167.893 533.426 167.829 533.61C167.765 533.793 167.654 533.957 167.508 534.085C166.694 534.833 164.45 534.966 161.409 534.451C163.172 533.509 165.083 532.874 167.06 532.573Z" fill="#25AFF4"/>
<path d="M160.412 534.933H160.545C162.207 534.185 165.364 531.243 165.082 529.681C165.082 529.332 164.749 528.866 163.852 528.783C163.534 528.744 163.211 528.773 162.904 528.868C162.598 528.962 162.315 529.12 162.074 529.332C160.412 530.761 160.096 534.451 160.079 534.6C160.078 534.657 160.089 534.713 160.112 534.765C160.135 534.817 160.169 534.863 160.212 534.899C160.275 534.925 160.344 534.936 160.412 534.933ZM163.653 529.448H163.852C164.434 529.448 164.484 529.731 164.5 529.814C164.666 530.728 162.506 533.055 160.844 534.068C160.947 532.523 161.528 531.048 162.506 529.847C162.824 529.574 163.234 529.432 163.653 529.448Z" fill="#25AFF4"/>
<path d="M122.186 79.4617L106.397 81.3563C103.778 81.6673 101.372 82.9501 99.6546 84.9507C97.9371 86.9514 97.0335 89.5241 97.1227 92.1594C97.9205 116.774 101.178 150.595 98.5687 202.333C97.2557 228.427 79.0235 370.112 79.0235 370.112L114.939 376.411C132.09 321.965 144.108 266.033 150.839 209.347C153.449 184.712 153.539 159.875 151.104 135.222L122.186 79.4617Z" fill="#25AFF4"/>
<path opacity="0.8" d="M122.186 79.4617L106.397 81.3563C103.778 81.6673 101.372 82.9501 99.6546 84.9507C97.9371 86.9514 97.0335 89.5241 97.1227 92.1594C97.9205 116.774 101.178 150.595 98.5687 202.333C97.2557 228.427 79.0235 370.112 79.0235 370.112L114.939 376.411C132.09 321.965 144.108 266.033 150.839 209.347C153.449 184.712 153.539 159.875 151.104 135.222L122.186 79.4617Z" fill="white"/>
<path opacity="0.2" d="M109.289 110.873C109.289 114.563 106.463 133.344 99.4662 146.307C99.2667 137.465 98.951 129.388 98.5853 121.976L109.289 110.873Z" fill="#25AFF4"/>
<path opacity="0.2" d="M177.248 107.583C179.275 111.455 185.126 127.876 188.101 145.809C186.738 144.861 185.441 143.881 184.195 142.884C179.6 139.069 175.382 134.822 171.597 130.203L170.866 129.305L177.248 107.583Z" fill="#25AFF4"/>
<path d="M155.542 81.0739L164.866 82.204C169.335 82.7539 173.462 84.8774 176.508 88.194C179.553 91.5106 181.318 95.8035 181.486 100.303C182.549 127.926 184.71 183.104 185.89 202.333C187.552 228.41 186.372 370.112 186.372 370.112L163.985 374.034C163.985 374.034 158.301 296.02 150.772 209.347C148.841 183.622 148.38 157.808 149.393 132.031L155.542 81.0739Z" fill="#25AFF4"/>
<path opacity="0.8" d="M155.541 81.0001L164.865 82.1303C169.334 82.6801 173.462 84.8037 176.507 88.1203C179.553 91.4369 181.318 95.7297 181.485 100.229C182.549 127.852 184.71 183.03 185.89 202.26C187.552 228.336 186.372 370.038 186.372 370.038L163.984 373.961C163.984 373.961 158.3 295.946 150.772 209.273C148.84 183.548 148.38 157.734 149.392 131.957L155.541 81.0001Z" fill="white"/>
<path d="M145.903 88.7356C143.819 92.0795 142.145 95.6619 140.917 99.4057C140.917 99.4057 119.095 91.91 119.876 79.8938C119.876 79.8938 123.2 77.9326 125.194 76.3371C125.211 76.3371 126.192 83.9158 145.903 88.7356Z" fill="#F5F5F5"/>
<path d="M145.903 88.7356C148.39 91.6094 150.475 94.8075 152.102 98.2423C154.785 96.2246 156.763 93.4102 157.751 90.2014C158.739 86.9925 158.687 83.5535 157.603 80.3758C155.655 79.5898 153.649 78.9564 151.603 78.4811C151.603 78.4811 153.182 86.1595 145.903 88.7356Z" fill="#F5F5F5"/>
<path opacity="0.2" d="M123.233 209.596L98.2198 231.086L115.305 222.726L123.233 209.596Z" fill="#25AFF4"/>
<path d="M98.1199 87.6553C97.0563 89.1345 96.2585 90.2979 95.361 91.6108L92.8181 95.4501C91.1561 98.0206 89.5441 100.619 87.9818 103.245C84.8406 108.513 81.8822 113.898 79.1565 119.532C76.3405 125.296 73.9465 131.256 71.9933 137.366C70.9534 140.632 70.1317 143.963 69.5336 147.338C68.9008 150.992 68.617 154.698 68.6859 158.407C68.9956 165.404 70.3456 172.316 72.6914 178.916C74.8159 184.989 77.4398 190.876 80.536 196.516C83.4836 201.97 86.7294 207.258 90.2587 212.355C91.9872 214.893 93.7711 217.385 95.6103 219.834C96.5244 221.064 97.4718 222.294 98.4357 223.507C99.3997 224.72 100.314 225.851 101.51 227.247L119.078 212.006C118.413 211.208 117.416 210.078 116.684 209.048L114.225 205.857C112.563 203.696 111.034 201.502 109.521 199.209C106.537 194.777 103.802 190.183 101.328 185.447C98.9549 180.92 96.97 176.2 95.3943 171.337C93.9401 167.05 93.1498 162.567 93.0509 158.041C93.2492 153.632 94.1525 149.284 95.7266 145.16C97.4716 140.339 99.5888 135.66 102.059 131.166C104.585 126.513 107.394 121.893 110.369 117.388C111.881 115.145 113.444 112.918 115.039 110.74L117.466 107.5C118.263 106.469 119.128 105.306 119.842 104.491L98.1199 87.6553Z" fill="#25AFF4"/>
<path opacity="0.8" d="M98.1199 87.6553C97.0563 89.1345 96.2585 90.2979 95.361 91.6108L92.8181 95.4501C91.1561 98.0206 89.5441 100.619 87.9818 103.245C84.8406 108.513 81.8822 113.898 79.1565 119.532C76.3405 125.296 73.9465 131.256 71.9933 137.366C70.9534 140.632 70.1317 143.963 69.5336 147.338C68.9008 150.992 68.617 154.698 68.6859 158.407C68.9956 165.404 70.3456 172.316 72.6914 178.916C74.8159 184.989 77.4398 190.876 80.536 196.516C83.4836 201.97 86.7294 207.258 90.2587 212.355C91.9872 214.893 93.7711 217.385 95.6103 219.834C96.5244 221.064 97.4718 222.294 98.4357 223.507C99.3997 224.72 100.314 225.851 101.51 227.247L119.078 212.006C118.413 211.208 117.416 210.078 116.684 209.048L114.225 205.857C112.563 203.696 111.034 201.502 109.521 199.209C106.537 194.777 103.802 190.183 101.328 185.447C98.9549 180.92 96.97 176.2 95.3943 171.337C93.9401 167.05 93.1498 162.567 93.0509 158.041C93.2492 153.632 94.1525 149.284 95.7266 145.16C97.4716 140.339 99.5888 135.66 102.059 131.166C104.585 126.513 107.394 121.893 110.369 117.388C111.881 115.145 113.444 112.918 115.039 110.74L117.466 107.5C118.263 106.469 119.128 105.306 119.842 104.491L98.1199 87.6553Z" fill="white"/>
<path d="M120.524 116.474C121.061 117.729 122.018 118.758 123.232 119.383C124.445 120.008 125.838 120.19 127.172 119.898C127.78 119.765 128.35 119.498 128.841 119.117C129.333 118.735 129.732 118.248 130.011 117.692C130.29 117.136 130.441 116.525 130.453 115.903C130.465 115.281 130.338 114.664 130.08 114.098C129.543 112.844 128.585 111.817 127.371 111.195C126.157 110.573 124.764 110.394 123.432 110.691C122.825 110.821 122.255 111.086 121.764 111.466C121.272 111.846 120.872 112.331 120.593 112.886C120.314 113.441 120.163 114.051 120.151 114.672C120.139 115.293 120.267 115.909 120.524 116.474Z" fill="#263238"/>
<path opacity="0.2" d="M120.524 116.474C121.061 117.729 122.018 118.758 123.232 119.383C124.445 120.008 125.838 120.19 127.172 119.898C127.78 119.765 128.35 119.498 128.841 119.117C129.333 118.735 129.732 118.248 130.011 117.692C130.29 117.136 130.441 116.525 130.453 115.903C130.465 115.281 130.338 114.664 130.08 114.098C129.543 112.844 128.585 111.817 127.371 111.195C126.157 110.573 124.764 110.394 123.432 110.691C122.825 110.821 122.255 111.086 121.764 111.466C121.272 111.846 120.872 112.331 120.593 112.886C120.314 113.441 120.163 114.051 120.151 114.672C120.139 115.293 120.267 115.909 120.524 116.474Z" fill="white"/>
<path d="M125.992 113.948C126.128 113.951 126.262 113.91 126.374 113.832C126.512 113.732 126.605 113.582 126.633 113.414C126.661 113.246 126.622 113.074 126.524 112.934C114.158 95.7326 117.615 80.4422 117.649 80.2926C117.684 80.2062 117.7 80.1132 117.695 80.02C117.691 79.9268 117.667 79.8356 117.624 79.7527C117.582 79.6697 117.521 79.597 117.448 79.5394C117.375 79.4818 117.29 79.4407 117.199 79.4189C117.108 79.3971 117.014 79.3952 116.923 79.4132C116.831 79.4313 116.744 79.4688 116.669 79.5234C116.593 79.5779 116.53 79.6482 116.484 79.7293C116.438 79.8104 116.41 79.9006 116.402 79.9935C116.402 80.1431 112.746 95.9819 125.477 113.682C125.533 113.767 125.61 113.835 125.7 113.882C125.79 113.928 125.89 113.951 125.992 113.948Z" fill="#263238"/>
<path d="M169.104 105.223C169.267 105.219 169.422 105.157 169.542 105.046C169.661 104.936 169.736 104.786 169.752 104.624C171.098 87.7384 162.157 81.5059 161.775 81.2566C161.632 81.1646 161.46 81.1305 161.293 81.1614C161.126 81.1923 160.977 81.2858 160.877 81.4228C160.783 81.5661 160.749 81.7411 160.783 81.9094C160.817 82.0776 160.917 82.2255 161.06 82.3203C161.143 82.3203 169.752 88.4365 168.456 104.525C168.447 104.694 168.504 104.86 168.616 104.987C168.728 105.115 168.885 105.193 169.054 105.206L169.104 105.223Z" fill="#263238"/>
<path d="M122.336 116.026C122.875 117.279 123.833 118.305 125.046 118.93C126.258 119.554 127.65 119.738 128.984 119.449C129.593 119.319 130.165 119.054 130.658 118.673C131.151 118.292 131.552 117.805 131.832 117.248C132.111 116.691 132.261 116.078 132.272 115.455C132.282 114.832 132.153 114.215 131.892 113.649C131.341 112.41 130.376 111.402 129.164 110.796C127.951 110.189 126.566 110.023 125.244 110.325C124.649 110.461 124.091 110.726 123.61 111.101C123.129 111.476 122.735 111.952 122.458 112.496C122.181 113.039 122.026 113.637 122.005 114.247C121.984 114.857 122.097 115.464 122.336 116.026Z" fill="#263238"/>
<path opacity="0.4" d="M122.336 116.026C122.875 117.279 123.833 118.305 125.046 118.93C126.258 119.554 127.65 119.738 128.984 119.449C129.593 119.319 130.165 119.054 130.658 118.673C131.151 118.292 131.552 117.805 131.832 117.248C132.111 116.691 132.261 116.078 132.272 115.455C132.282 114.832 132.153 114.215 131.892 113.649C131.341 112.41 130.376 111.402 129.164 110.796C127.951 110.189 126.566 110.023 125.244 110.325C124.649 110.461 124.091 110.726 123.61 111.101C123.129 111.476 122.735 111.952 122.458 112.496C122.181 113.039 122.026 113.637 122.005 114.247C121.984 114.857 122.097 115.464 122.336 116.026Z" fill="white"/>
<path opacity="0.4" d="M125.127 115.128C125.412 115.788 125.918 116.329 126.558 116.657C127.198 116.984 127.932 117.078 128.634 116.923C128.953 116.853 129.251 116.713 129.509 116.513C129.766 116.312 129.976 116.057 130.122 115.766C130.269 115.475 130.348 115.154 130.355 114.829C130.363 114.503 130.297 114.179 130.163 113.882C129.876 113.223 129.37 112.685 128.731 112.358C128.091 112.03 127.358 111.935 126.656 112.087C126.338 112.157 126.039 112.297 125.782 112.497C125.525 112.697 125.315 112.952 125.169 113.244C125.022 113.535 124.942 113.855 124.935 114.181C124.928 114.507 124.994 114.831 125.127 115.128Z" fill="white"/>
<path d="M164.052 144.512C164.221 144.508 164.381 144.438 164.499 144.317C164.617 144.196 164.683 144.033 164.683 143.864C164.686 143.78 164.671 143.696 164.64 143.617C164.609 143.539 164.563 143.467 164.504 143.407C164.446 143.346 164.375 143.298 164.297 143.266C164.22 143.233 164.136 143.216 164.052 143.216C162.833 143.18 161.669 142.699 160.78 141.863C159.892 141.026 159.341 139.894 159.232 138.679L158.002 117.073C157.899 115.557 158.11 114.036 158.623 112.606C159.136 111.176 159.938 109.867 160.981 108.762C162.024 107.657 163.283 106.78 164.681 106.185C166.079 105.59 167.585 105.291 169.104 105.306C172.3 105.344 175.364 106.585 177.687 108.781C180.009 110.977 181.419 113.967 181.636 117.156L182.882 138.762C182.926 139.339 182.849 139.919 182.656 140.465C182.463 141.011 182.158 141.51 181.76 141.931C181.363 142.352 180.882 142.685 180.348 142.909C179.814 143.133 179.24 143.244 178.661 143.233C178.489 143.233 178.324 143.301 178.203 143.422C178.081 143.544 178.013 143.709 178.013 143.881C178.017 144.051 178.087 144.214 178.207 144.334C178.328 144.455 178.49 144.525 178.661 144.529C179.414 144.535 180.159 144.386 180.852 144.091C181.544 143.795 182.168 143.36 182.684 142.813C183.201 142.265 183.599 141.617 183.853 140.908C184.107 140.2 184.212 139.446 184.162 138.695L182.916 117.089C182.678 113.574 181.124 110.278 178.564 107.857C176.005 105.436 172.627 104.068 169.104 104.026C167.408 104.011 165.728 104.346 164.167 105.011C162.607 105.677 161.202 106.657 160.039 107.892C158.876 109.127 157.981 110.588 157.41 112.185C156.84 113.783 156.605 115.48 156.722 117.172L157.952 138.778C158.065 140.325 158.754 141.773 159.884 142.835C161.014 143.897 162.501 144.496 164.052 144.512Z" fill="#263238"/>
<path d="M177.597 143.864C177.597 144.895 178.179 145.742 178.76 145.742C179.342 145.742 179.791 144.895 179.724 143.864C179.658 142.834 179.143 141.969 178.544 141.969C177.946 141.969 177.531 142.817 177.597 143.864Z" fill="#263238"/>
<path d="M162.971 143.864C162.971 144.895 163.553 145.742 164.151 145.742C164.75 145.742 165.182 144.895 165.115 143.864C165.049 142.834 164.534 141.969 163.935 141.969C163.337 141.969 162.921 142.817 162.971 143.864Z" fill="#263238"/>
<path d="M296.796 12.5661L297.976 11.7185C294.503 6.96238 289.619 3.42142 284.019 1.59851C278.419 -0.224397 272.387 -0.236581 266.78 1.56369L267.229 2.95978C272.542 1.25682 278.256 1.26815 283.562 2.99217C288.868 4.71619 293.498 8.06556 296.796 12.5661Z" fill="#25AFF4"/>
<path d="M301.815 27.5241H303.277C303.202 24.8695 302.749 22.2392 301.931 19.7127L300.535 20.1614C301.31 22.5422 301.741 25.0215 301.815 27.5241Z" fill="#25AFF4"/>
<path d="M223.684 28.6876C224.961 25.8669 226.798 23.3351 229.083 21.2454C231.368 19.1557 234.053 17.5517 236.976 16.5308C239.899 15.5098 242.999 15.093 246.088 15.3057C249.177 15.5184 252.191 16.3562 254.947 17.7682C256.333 15.0634 258.244 12.662 260.569 10.7044C262.894 8.7468 265.586 7.2723 268.487 6.36706C271.389 5.46182 274.441 5.14401 277.467 5.43221C280.493 5.7204 283.431 6.60881 286.109 8.04553C297.195 13.9955 301.067 28.0892 295.3 39.3077L280.342 68.5091C279.616 69.9304 278.616 71.1944 277.401 72.2288C276.185 73.2632 274.777 74.0476 273.258 74.537C271.739 75.0264 270.138 75.2113 268.547 75.081C266.957 74.9507 265.407 74.5077 263.988 73.7776L234.67 58.8196C229.323 56.1651 225.201 51.5571 223.156 45.9487C221.112 40.3403 221.301 34.1605 223.684 28.6876V28.6876Z" fill="#25AFF4"/>
</svg>
