<svg width="513" height="477" viewBox="0 0 513 477" fill="none" xmlns="http://www.w3.org/2000/svg">
<path d="M256.5 476.524C115.365 476.524 0.95285 469.844 0.95285 461.604C0.95285 453.364 115.365 446.685 256.5 446.685C397.635 446.685 512.047 453.364 512.047 461.604C512.047 469.844 397.635 476.524 256.5 476.524Z" fill="#F5F5F5"/>
<path d="M136.944 369.318C113.884 369.318 95.19 350.624 95.19 327.564C95.19 304.503 113.884 285.809 136.944 285.809C160.004 285.809 178.698 304.503 178.698 327.564C178.698 350.624 160.004 369.318 136.944 369.318Z" fill="white"/>
<path d="M136.944 369.832C145.305 369.835 153.478 367.358 160.431 362.715C167.384 358.072 172.803 351.471 176.004 343.748C179.206 336.025 180.045 327.526 178.415 319.326C176.786 311.126 172.761 303.593 166.85 297.68C160.939 291.768 153.408 287.741 145.208 286.109C137.009 284.477 128.509 285.313 120.785 288.512C113.061 291.71 106.459 297.128 101.814 304.079C97.1685 311.031 94.6892 319.203 94.6892 327.564C94.6997 338.768 99.1545 349.511 107.076 357.436C114.998 365.36 125.74 369.818 136.944 369.832ZM136.944 286.337C145.101 286.337 153.075 288.756 159.857 293.288C166.64 297.82 171.926 304.262 175.047 311.798C178.168 319.334 178.983 327.627 177.391 335.627C175.799 343.627 171.87 350.976 166.101 356.743C160.332 362.51 152.982 366.437 144.982 368.026C136.981 369.616 128.689 368.798 121.153 365.674C113.618 362.551 107.178 357.263 102.648 350.479C98.1179 343.695 95.7014 335.721 95.704 327.564C95.7145 316.631 100.063 306.148 107.795 298.419C115.528 290.689 126.011 286.344 136.944 286.337Z" fill="#25AFF4"/>
<path d="M130.222 303.892H143.666V351.235H130.222V303.892Z" fill="#25AFF4"/>
<path d="M113.273 334.299V320.855H160.616V334.299H113.273Z" fill="#25AFF4"/>
<path d="M419.787 11.9423L420.683 10.9801C414.582 5.21258 406.84 1.48219 398.528 0.304321L398.343 1.62232C406.388 2.75687 413.881 6.3631 419.787 11.9423Z" fill="#25AFF4"/>
<path d="M429.54 26.348L430.766 25.8735C429.436 22.5159 427.663 19.3511 425.494 16.463L424.44 17.2538C426.531 20.0488 428.246 23.1063 429.54 26.348Z" fill="#25AFF4"/>
<path d="M392.768 76.8405C372.794 76.8405 356.602 60.6485 356.602 40.6746C356.602 20.7008 372.794 4.50873 392.768 4.50873C412.742 4.50873 428.934 20.7008 428.934 40.6746C428.934 60.6485 412.742 76.8405 392.768 76.8405Z" fill="#25AFF4"/>
<path d="M371.166 24.3842C372.559 22.9382 374.226 21.7844 376.07 20.9903C377.914 20.1961 379.898 19.7776 381.906 19.7592C383.913 19.7408 385.905 20.1229 387.763 20.883C389.621 21.6432 391.309 22.7662 392.728 24.1865C394.147 22.7666 395.834 21.6439 397.691 20.8839C399.548 20.1239 401.538 19.7419 403.545 19.7603C405.551 19.7787 407.534 20.1971 409.377 20.9911C411.22 21.785 412.886 22.9386 414.278 24.3842C417.005 27.3345 418.475 31.2321 418.374 35.2487C418.273 39.2654 416.61 43.0843 413.737 45.8939L396.603 63.0279C396.089 63.542 395.479 63.9498 394.807 64.2281C394.136 64.5063 393.416 64.6495 392.689 64.6495C391.962 64.6495 391.242 64.5063 390.57 64.2281C389.899 63.9498 389.289 63.542 388.774 63.0279L371.64 45.8939C368.777 43.0756 367.126 39.2519 367.037 35.2353C366.949 31.2188 368.43 27.326 371.166 24.3842Z" fill="white"/>
<path d="M392.768 56.4775C393.034 56.4684 393.29 56.3792 393.504 56.2217C393.719 56.0641 393.88 55.8454 393.967 55.5945L401.599 33.2807L404.788 42.6122C404.879 42.8715 405.048 43.096 405.273 43.2543C405.497 43.4126 405.766 43.4969 406.04 43.4952H418.812C419.161 43.4952 419.497 43.3564 419.744 43.1092C419.991 42.862 420.13 42.5268 420.13 42.1772C420.13 41.8277 419.991 41.4924 419.744 41.2453C419.497 40.9981 419.161 40.8592 418.812 40.8592H406.95L402.811 28.7731C402.722 28.5142 402.553 28.2896 402.33 28.1306C402.107 27.9717 401.84 27.8862 401.566 27.8862C401.292 27.8862 401.024 27.9717 400.801 28.1306C400.578 28.2896 400.41 28.5142 400.32 28.7731L392.557 51.4823L385.018 33.7288C384.923 33.5025 384.766 33.3074 384.566 33.1653C384.366 33.0233 384.13 32.94 383.885 32.9249C383.638 32.9107 383.392 32.9662 383.175 33.085C382.959 33.2039 382.78 33.3813 382.659 33.597L378.679 40.846H366.672C366.322 40.846 365.987 40.9849 365.74 41.2321C365.493 41.4792 365.354 41.8145 365.354 42.164C365.354 42.5136 365.493 42.8488 365.74 43.096C365.987 43.3432 366.322 43.482 366.672 43.482H379.443C379.679 43.484 379.911 43.4226 380.115 43.3044C380.319 43.1862 380.487 43.0154 380.603 42.8099L383.727 37.2215L391.556 55.6735C391.656 55.9118 391.825 56.115 392.041 56.258C392.256 56.401 392.509 56.4773 392.768 56.4775Z" fill="#25AFF4"/>
<path d="M192.103 415.422H329.662C331.904 415.447 334.126 415.005 336.187 414.124C338.249 413.244 340.104 411.945 341.637 410.308C343.169 408.672 344.344 406.735 345.087 404.62C345.83 402.505 346.125 400.259 345.953 398.024L323.718 68.524C323.329 63.8183 321.206 59.425 317.759 56.1976C314.313 52.9703 309.789 51.1393 305.068 51.0605H167.482C165.235 51.0348 163.007 51.4783 160.94 52.3625C158.874 53.2468 157.015 54.5524 155.482 56.1959C153.949 57.8395 152.775 59.7848 152.037 61.9075C151.298 64.0303 151.01 66.2838 151.192 68.524L173.466 398.024C173.867 402.717 175.995 407.094 179.437 410.308C182.88 413.522 187.393 415.344 192.103 415.422Z" fill="#263238"/>
<path d="M161.604 185.246H165.07C165.698 185.254 166.32 185.13 166.897 184.883C167.475 184.637 167.994 184.272 168.422 183.813C168.85 183.354 169.177 182.81 169.383 182.217C169.589 181.624 169.669 180.995 169.617 180.369L165.36 117.382C165.261 116.065 164.671 114.833 163.707 113.93C162.743 113.027 161.475 112.518 160.154 112.506H156.688C156.06 112.498 155.438 112.622 154.861 112.868C154.284 113.115 153.764 113.48 153.336 113.939C152.908 114.398 152.581 114.941 152.375 115.534C152.169 116.127 152.089 116.757 152.141 117.382L156.398 180.369C156.497 181.687 157.087 182.919 158.051 183.822C159.015 184.725 160.283 185.233 161.604 185.246Z" fill="#263238"/>
<path d="M325.721 143.228H329.175C329.685 143.235 330.192 143.136 330.663 142.936C331.133 142.737 331.557 142.442 331.908 142.07C332.259 141.699 332.528 141.258 332.7 140.777C332.871 140.296 332.941 139.784 332.904 139.274L331.362 116.526C331.265 115.458 330.777 114.463 329.991 113.733C329.205 113.004 328.178 112.59 327.105 112.572H323.639C323.13 112.569 322.625 112.671 322.157 112.871C321.689 113.072 321.268 113.367 320.919 113.738C320.57 114.11 320.301 114.549 320.13 115.028C319.958 115.508 319.888 116.017 319.922 116.526L321.464 139.274C321.559 140.343 322.046 141.339 322.833 142.07C323.619 142.8 324.648 143.213 325.721 143.228Z" fill="#25AFF4"/>
<path d="M328.463 183.849H331.929C332.439 183.854 332.944 183.753 333.413 183.553C333.882 183.353 334.305 183.058 334.654 182.686C335.003 182.315 335.272 181.875 335.442 181.395C335.613 180.914 335.682 180.404 335.646 179.895L334.104 157.146C334.007 156.078 333.518 155.084 332.732 154.354C331.947 153.624 330.919 153.211 329.847 153.192H326.354C325.845 153.189 325.34 153.291 324.872 153.492C324.404 153.693 323.983 153.988 323.634 154.359C323.285 154.73 323.016 155.169 322.845 155.649C322.674 156.128 322.603 156.638 322.637 157.146L324.179 179.895C324.274 180.969 324.766 181.968 325.558 182.699C326.349 183.43 327.385 183.84 328.463 183.849Z" fill="#25AFF4"/>
<path d="M195.015 415.422H332.575C334.816 415.446 337.039 415.005 339.1 414.124C341.162 413.244 343.017 411.945 344.549 410.308C346.082 408.672 347.256 406.735 348 404.62C348.743 402.505 349.037 400.259 348.865 398.024L326.618 68.524C326.216 63.8165 324.077 59.4269 320.618 56.2089C317.159 52.9909 312.626 51.1746 307.902 51.1132H170.395C168.152 51.0881 165.929 51.5302 163.867 52.4113C161.804 53.2924 159.948 54.5932 158.415 56.2309C156.883 57.8686 155.708 59.8073 154.966 61.9238C154.224 64.0402 153.931 66.2879 154.105 68.524L176.366 398.024C176.767 402.719 178.896 407.098 182.342 410.312C185.788 413.526 190.304 415.347 195.015 415.422Z" fill="#3D4F5C" fill-opacity="0.15"/>
<path opacity="0.3" d="M347.416 394.334L325.695 72.7943H155.594L177.315 394.334H347.416Z" fill="white"/>
<path opacity="0.1" d="M280.264 394.334L219.556 72.7943H181.453L242.16 394.334H280.264Z" fill="white"/>
<path opacity="0.1" d="M309.049 394.334L248.342 72.7943H229.033L289.74 394.334H309.049Z" fill="white"/>
<path d="M256.315 59.1926H223.141C222.865 59.1878 222.59 59.2413 222.335 59.3496C222.08 59.4578 221.851 59.6184 221.662 59.8209C221.473 60.0235 221.329 60.2635 221.238 60.5253C221.148 60.7871 221.114 61.065 221.138 61.3409C221.184 61.9216 221.444 62.4645 221.868 62.864C222.292 63.2636 222.849 63.4911 223.431 63.5024H256.605C256.883 63.5053 257.158 63.4501 257.413 63.3403C257.668 63.2306 257.897 63.0687 258.086 62.8652C258.274 62.6616 258.418 62.4209 258.508 62.1583C258.599 61.8958 258.633 61.6174 258.609 61.3409C258.563 60.7615 258.302 60.22 257.878 59.8227C257.454 59.4253 256.897 59.2006 256.315 59.1926Z" fill="white"/>
<path d="M263.222 447.119L274.847 448.227L279.038 421.405L267.413 420.285L263.222 447.119Z" fill="#FFB573"/>
<path d="M276.178 442.546L264 438.763C263.79 438.69 263.56 438.702 263.358 438.795C263.156 438.889 262.999 439.057 262.919 439.264L258.965 448.925C258.866 449.184 258.823 449.461 258.837 449.737C258.851 450.014 258.922 450.284 259.046 450.532C259.17 450.78 259.344 450.999 259.556 451.176C259.769 451.353 260.017 451.484 260.283 451.561C264.685 452.879 268.876 453.182 274.188 455.515C280.395 458.151 282.992 461.683 289.674 461.683C294.458 461.683 295.539 457.294 293.509 456.688C284.284 453.894 285.496 451.601 278.801 444.391C278.104 443.556 277.199 442.919 276.178 442.546Z" fill="#263238"/>
<path opacity="0.2" d="M279.038 421.405L276.876 435.244L265.238 434.124L267.4 420.285L279.038 421.405Z" fill="black"/>
<path d="M270.629 82.4948C285.878 80.7023 301.048 81.9016 316.271 84.854C318.808 85.3464 321.122 86.6338 322.878 88.5295C324.634 90.4253 325.741 92.831 326.038 95.398C327.685 109.975 329.57 142.648 322.215 191.388L259.9 186.116C259.782 177.272 266.069 136.981 260.876 95.1739C260.663 93.6981 260.748 92.1947 261.127 90.7523C261.505 89.31 262.168 87.958 263.077 86.7762C263.986 85.5944 265.123 84.6066 266.42 83.8713C267.717 83.1359 269.148 82.6679 270.629 82.4948Z" fill="white"/>
<path d="M306.914 94.9894L304.686 99.4443C304.582 99.669 304.417 99.8599 304.21 99.9951C304.002 100.13 303.761 100.204 303.513 100.209L301.101 100.34C300.671 100.359 300.247 100.229 299.902 99.9715L295.75 96.8741L300.877 93.1442L306.914 94.9894Z" fill="#263238"/>
<path d="M301.022 99.0621C301.901 98.6548 302.897 98.5753 303.829 98.838C305.793 105.758 307.941 125.62 308.166 134.424C302.208 151.782 300.258 153.535 300.258 153.535L297.239 132.645C297.239 132.645 300.627 111.28 301.022 99.0621Z" fill="#263238"/>
<path d="M283.822 52.4444C285.246 61.0378 286.458 76.7351 280.29 82.2839C284.811 87.0287 290.728 92.5248 300.877 93.1442C311.026 93.7637 309.457 86.7388 306.887 82.9825C297.411 80.4519 297.872 73.3874 299.73 66.7842L283.822 52.4444Z" fill="#FFB573"/>
<path d="M277.707 81.5326C278.425 81.2227 279.171 80.98 279.934 80.8077C280.121 80.7583 280.319 80.7715 280.497 80.8453C280.676 80.9191 280.825 81.0495 280.923 81.2163C281.898 82.877 284.877 90.2973 300.877 93.1442C298.241 94.6994 294.748 99.5233 293.246 101.843C288.448 99.352 275.967 91.9053 277.153 82.2707C277.177 82.1116 277.241 81.9609 277.337 81.8321C277.434 81.7033 277.561 81.6004 277.707 81.5326Z" fill="#F5F5F5"/>
<path d="M306.795 83.3779C306.761 83.2279 306.765 83.0719 306.807 82.924C306.849 82.7761 306.927 82.641 307.035 82.531C307.142 82.421 307.275 82.3396 307.422 82.2941C307.569 82.2487 307.725 82.2406 307.876 82.2707C308.43 82.3783 308.976 82.5236 309.51 82.7057C309.634 82.7539 309.749 82.8206 309.853 82.9034C311.078 84.0369 317.761 93.6846 311.5 101.487C310.182 99.3652 305.635 94.5545 300.877 93.1442C305.385 91.1145 307.599 87.3319 306.795 83.3779Z" fill="#F5F5F5"/>
<path opacity="0.2" d="M290.307 58.2963L299.717 66.7842C299.264 68.3173 298.946 69.8874 298.768 71.4763C295.131 70.8568 290.241 66.7315 289.977 62.9093C289.799 61.3645 289.911 59.8001 290.307 58.2963Z" fill="black"/>
<path d="M302.88 26.4666C310.999 29.643 311.526 36.312 310.788 43.6006C310.05 50.8891 302.116 46.0653 300.35 41.505C298.584 36.9447 291.638 22.0645 302.88 26.4666Z" fill="#263238"/>
<path d="M276.982 41.0041C279.236 52.4839 279.987 59.298 286.55 64.5832C296.449 72.4912 309.853 65.6639 311.039 53.8283C312.106 43.1657 308.245 26.1503 296.422 22.8289C293.844 22.0698 291.112 21.9966 288.497 22.6164C285.882 23.2363 283.474 24.5278 281.51 26.3633C279.547 28.1988 278.096 30.5149 277.302 33.0825C276.508 35.6502 276.398 38.3807 276.982 41.0041Z" fill="#FFB573"/>
<path d="M277.456 50.5069C287.117 51.0209 285.074 45.538 283.321 42.388C281.568 39.238 285.14 34.0319 282.807 31.33C286.972 32.9907 291.361 31.62 296.936 27.745C301.259 24.7268 306.676 36.7865 311.948 30.7369C316.93 25.03 312.304 16.4234 300.337 15.0395C288.369 13.6556 286.195 22.1172 278.339 21.3659C270.484 20.6147 273.212 27.086 274.754 28.404C268.164 28.839 264.566 35.139 277.456 50.5069Z" fill="#263238"/>
<path d="M276.27 29.208C274.759 28.379 273.496 27.1611 272.613 25.6804C271.73 24.1997 271.259 22.5099 271.248 20.786C268.639 25.3595 268.916 30.5524 276.27 29.208Z" fill="#263238"/>
<path d="M301.312 53.2616C300.262 53.4433 299.186 53.4109 298.148 53.1663C297.111 52.9217 296.134 52.4699 295.276 51.8381C295.25 51.8135 295.229 51.7838 295.215 51.751C295.201 51.7181 295.194 51.6828 295.194 51.647C295.194 51.6113 295.201 51.5759 295.215 51.543C295.229 51.5102 295.25 51.4805 295.276 51.4559C295.327 51.4068 295.396 51.3793 295.467 51.3793C295.538 51.3793 295.606 51.4068 295.658 51.4559C296.619 52.1373 297.725 52.586 298.89 52.7667C300.054 52.9473 301.244 52.8551 302.366 52.4971C302.438 52.4793 302.514 52.4882 302.579 52.5222C302.645 52.5561 302.696 52.6128 302.722 52.6816C302.743 52.7516 302.735 52.8267 302.7 52.8909C302.666 52.955 302.607 53.003 302.538 53.0243C302.137 53.1399 301.727 53.2193 301.312 53.2616Z" fill="#263238"/>
<path d="M274.649 54.026C276.454 56.3516 279.099 57.8757 282.017 58.2699C285.852 58.7708 287.13 55.199 285.522 51.8645C284.059 48.8594 280.25 44.9845 276.718 46.0257C273.186 47.0669 272.435 51.1264 274.649 54.026Z" fill="#FFB573"/>
<path d="M278.458 303.616C277.997 269.203 273.595 187.236 273.595 187.236L322.176 191.335C322.176 191.335 312.515 275.806 306.69 310.917C300.627 347.413 282.03 432.911 282.03 432.911L262.26 431.224C262.26 431.224 269.482 330.226 278.458 303.616Z" fill="#263238"/>
<path d="M283.216 433.452L259.769 431.462L260.691 423.896L285.127 425.531L283.216 433.452Z" fill="#25AFF4"/>
<path d="M294.3 41.6895C294.419 42.6253 295.025 43.337 295.618 43.2711C296.211 43.2052 296.62 42.388 296.488 41.4391C296.356 40.4901 295.763 39.7916 295.17 39.8575C294.577 39.9234 294.168 40.7537 294.3 41.6895Z" fill="#263238"/>
<path d="M305.055 40.846C305.174 41.795 305.78 42.4935 306.373 42.4276C306.966 42.3617 307.375 41.5446 307.243 40.6088C307.111 39.673 306.518 38.9613 305.925 39.0272C305.332 39.0931 304.923 39.8575 305.055 40.846Z" fill="#263238"/>
<path d="M302.024 41.9531C303.611 44.3921 305.517 46.6083 307.691 48.5431C306.294 50.0061 303.408 49.6107 303.408 49.6107L302.024 41.9531Z" fill="#ED893E"/>
<path opacity="0.4" d="M311.856 41.0833C312.054 42.5858 310.538 43.8379 308.442 44.1015C306.347 44.365 304.409 43.2184 304.225 41.7159" fill="#25AFF4"/>
<path opacity="0.4" d="M299.401 42.4803C299.691 43.9696 298.228 45.314 296.172 45.7094C294.116 46.1048 292.099 45.0504 291.822 43.5742" fill="#25AFF4"/>
<path d="M295.355 46.118C295.592 46.1311 295.829 46.1311 296.066 46.118C297.079 45.9968 298.031 45.5692 298.795 44.8922C299.128 44.6075 299.388 44.2471 299.553 43.8412C299.718 43.4353 299.783 42.9958 299.744 42.5594C300.413 42.2681 301.125 42.09 301.852 42.0322C302.584 41.8497 303.349 41.8497 304.08 42.0322C304.264 43.6401 306.268 44.7473 308.508 44.4705C309.522 44.3597 310.475 43.9359 311.237 43.2579C311.568 42.9718 311.827 42.6112 311.992 42.2057C312.157 41.8001 312.223 41.3612 312.186 40.925L311.553 41.0041C311.58 41.3412 311.525 41.6797 311.395 41.9914C311.264 42.3032 311.061 42.5793 310.802 42.7966C310.138 43.381 309.309 43.7448 308.429 43.8378C306.531 44.0883 304.844 43.2052 304.673 41.8872C304.581 41.1491 303.052 41.2018 301.787 41.36C300.521 41.5182 299.019 41.874 299.151 42.5989C299.178 42.936 299.124 43.2749 298.994 43.5869C298.863 43.8988 298.659 44.1748 298.399 44.3914C297.727 44.968 296.901 45.3351 296.023 45.4476C295.144 45.56 294.252 45.4128 293.457 45.024C293.15 44.8811 292.882 44.6664 292.675 44.398C292.469 44.1296 292.33 43.8154 292.271 43.482V43.1657L276.006 45.2613L276.086 45.8939L291.743 43.8774C291.857 44.2442 292.044 44.5841 292.294 44.8764C292.543 45.1687 292.849 45.4073 293.193 45.5776C293.859 45.9301 294.601 46.1156 295.355 46.118Z" fill="#263238"/>
<path d="M290.162 37.551C290.068 37.5512 289.976 37.5237 289.898 37.4719C289.77 37.3974 289.676 37.2756 289.637 37.1327C289.597 36.9898 289.615 36.8371 289.687 36.7074C290.096 35.9409 290.687 35.2871 291.409 34.8042C292.131 34.3214 292.961 34.0244 293.826 33.9396C293.974 33.9324 294.119 33.9835 294.23 34.0821C294.341 34.1807 294.409 34.3188 294.419 34.4668C294.426 34.6115 294.376 34.7533 294.28 34.8617C294.184 34.9702 294.049 35.0366 293.905 35.0468C293.221 35.1271 292.567 35.3731 291.999 35.7636C291.432 36.1541 290.969 36.6771 290.649 37.2874C290.599 37.3713 290.528 37.44 290.442 37.4865C290.356 37.5329 290.259 37.5552 290.162 37.551Z" fill="#263238"/>
<path d="M308.535 36.0616C308.443 36.0706 308.351 36.0573 308.267 36.0228C308.182 35.9884 308.106 35.9339 308.047 35.8639C307.621 35.3058 307.07 34.8554 306.438 34.5487C305.806 34.242 305.112 34.0875 304.409 34.0978C304.337 34.1051 304.263 34.0979 304.193 34.0766C304.123 34.0553 304.058 34.0203 304.002 33.9738C303.945 33.9272 303.899 33.8699 303.865 33.8053C303.831 33.7406 303.81 33.6698 303.803 33.597C303.794 33.5259 303.799 33.4538 303.818 33.3847C303.837 33.3156 303.869 33.251 303.913 33.1945C303.958 33.1381 304.012 33.0911 304.075 33.0561C304.138 33.0211 304.206 32.9989 304.278 32.9907C305.163 32.9675 306.041 33.1522 306.842 33.5299C307.644 33.9075 308.345 34.4677 308.891 35.1654C308.984 35.2775 309.03 35.4221 309.018 35.5678C309.006 35.7135 308.936 35.8484 308.825 35.943C308.739 36.0048 308.639 36.0455 308.535 36.0616Z" fill="#263238"/>
<path d="M237.982 298.067C248.065 246.243 250.332 205.715 259.9 186.037L306.966 191.309C306.966 191.309 278.932 268.53 265.238 301.494C251.017 335.762 222.944 394.307 222.944 394.307H199.431C199.431 394.307 221.375 321.672 237.982 298.067Z" fill="#263238"/>
<path d="M387.167 101.883L392.254 98.6666C393.08 98.1346 394.065 97.9056 395.04 98.0185C396.016 98.1315 396.923 98.5795 397.605 99.2861L401.058 102.924C401.43 103.316 401.718 103.781 401.903 104.289C402.088 104.797 402.167 105.338 402.135 105.878C402.103 106.418 401.96 106.945 401.716 107.428C401.472 107.91 401.131 108.338 400.716 108.683L398.251 110.792C396.107 112.609 393.606 113.956 390.91 114.746L383.463 116.947L378.573 111.675C377.084 106.179 387.167 101.883 387.167 101.883Z" fill="#FFB573"/>
<path d="M311.856 99.4179C313.701 103.925 315.507 108.117 317.471 112.4C319.434 116.684 321.425 120.914 323.626 125.119C325.827 129.323 328.173 133.501 330.835 137.693C332.153 139.775 333.616 141.857 335.277 143.953C337.062 146.264 339.095 148.372 341.34 150.24C342.822 151.451 344.457 152.462 346.203 153.245C346.757 153.456 347.271 153.667 347.877 153.851L348.8 154.102C349.264 154.216 349.735 154.299 350.21 154.352C351.816 154.533 353.443 154.417 355.007 154.009C356.963 153.462 358.822 152.613 360.517 151.492C361.786 150.7 362.997 149.819 364.141 148.856C367.945 145.535 371.451 141.888 374.619 137.956C377.69 134.266 380.59 130.562 383.371 126.78C386.152 122.997 388.827 119.28 391.569 115.313L376.992 105.902C372.391 113.328 367.301 120.439 361.755 127.188C359.206 130.314 356.398 133.22 353.36 135.874C352.771 136.355 352.15 136.796 351.501 137.192C351.014 137.521 350.526 137.653 350.869 137.534C351.332 137.407 351.818 137.38 352.292 137.455C352.484 137.473 352.674 137.508 352.859 137.561H352.964C353.03 137.561 353.03 137.561 353.043 137.561C352.744 137.365 352.458 137.149 352.187 136.915C350.984 135.823 349.893 134.613 348.931 133.304C347.811 131.801 346.691 130.114 345.623 128.361C343.441 124.717 341.452 120.959 339.666 117.105C337.821 113.151 336.041 109.197 334.394 105.085C332.746 100.973 331.178 96.7951 329.847 92.8015L311.856 99.4179Z" fill="#25AFF4"/>
<g opacity="0.6">
<path opacity="0.6" d="M311.856 99.4179C313.701 103.925 315.507 108.117 317.471 112.4C319.434 116.684 321.425 120.914 323.626 125.119C325.827 129.323 328.173 133.501 330.835 137.693C332.153 139.775 333.616 141.857 335.277 143.953C337.062 146.264 339.095 148.372 341.34 150.24C342.822 151.451 344.457 152.462 346.203 153.245C346.757 153.456 347.271 153.667 347.877 153.851L348.8 154.102C349.264 154.216 349.735 154.299 350.21 154.352C351.816 154.533 353.443 154.417 355.007 154.009C356.963 153.462 358.822 152.613 360.517 151.492C361.786 150.7 362.997 149.819 364.141 148.856C367.945 145.535 371.451 141.888 374.619 137.956C377.69 134.266 380.59 130.562 383.371 126.78C386.152 122.997 388.827 119.28 391.569 115.313L376.992 105.902C372.391 113.328 367.301 120.439 361.755 127.188C359.206 130.314 356.398 133.22 353.36 135.874C352.771 136.355 352.15 136.796 351.501 137.192C351.014 137.521 350.526 137.653 350.869 137.534C351.332 137.407 351.818 137.38 352.292 137.455C352.484 137.473 352.674 137.508 352.859 137.561H352.964C353.03 137.561 353.03 137.561 353.043 137.561C352.744 137.365 352.458 137.149 352.187 136.915C350.984 135.823 349.893 134.613 348.931 133.304C347.811 131.801 346.691 130.114 345.623 128.361C343.441 124.717 341.452 120.959 339.666 117.105C337.821 113.151 336.041 109.197 334.394 105.085C332.746 100.973 331.178 96.7951 329.847 92.8015L311.856 99.4179Z" fill="white"/>
</g>
<path d="M277.351 79.1866C282.293 88.4126 299.889 123.564 302.024 145.258C309.813 125.488 308.113 81.7567 308.113 81.7567C313.664 82.2978 319.11 83.6292 324.285 85.7107C325.953 86.3959 327.398 87.5295 328.461 88.9857C329.524 90.442 330.163 92.1642 330.308 93.9614C331.825 116.589 331.11 139.311 328.173 161.799C322.703 204.37 317.629 270.573 317.629 270.573C317.629 270.573 274.069 268.755 240.46 261.664C244.559 229.122 258.582 174.583 258.714 159.98C258.872 141.185 258.437 104.439 257.844 89.098C257.745 86.932 258.424 84.8019 259.758 83.0928C261.092 81.3838 262.994 80.2086 265.12 79.7797C269.151 79.0325 273.266 78.833 277.351 79.1866Z" fill="#25AFF4"/>
<path opacity="0.7" d="M277.351 79.1866C282.293 88.4126 299.889 123.564 302.024 145.258C309.813 125.488 308.113 81.7567 308.113 81.7567C313.664 82.2978 319.11 83.6292 324.285 85.7107C325.953 86.3959 327.398 87.5295 328.461 88.9858C329.524 90.442 330.163 92.1642 330.308 93.9614C331.825 116.589 331.11 139.311 328.173 161.799C322.703 204.37 317.629 270.573 317.629 270.573C317.629 270.573 274.069 268.755 240.46 261.664C244.559 229.122 258.582 174.583 258.714 159.98C258.872 141.185 258.437 104.426 257.844 89.0848C257.72 86.9847 258.34 84.9079 259.596 83.2203C260.852 81.5326 262.664 80.3423 264.711 79.8588C268.872 79.0433 273.127 78.817 277.351 79.1866Z" fill="white"/>
<path d="M287.618 263.509C295.183 221.768 301.18 160.52 301.668 153.153H300.996C300.508 160.52 294.498 221.689 286.946 263.43L287.618 263.509Z" fill="white"/>
<path d="M291.387 189.253H331.56C332.371 189.216 333.149 188.918 333.776 188.402C334.403 187.886 334.847 187.181 335.04 186.393L348.47 123.959C348.568 123.618 348.584 123.259 348.517 122.911C348.449 122.563 348.3 122.235 348.081 121.956C347.862 121.677 347.58 121.454 347.258 121.305C346.937 121.156 346.584 121.085 346.229 121.099H306.07C305.256 121.133 304.476 121.43 303.846 121.946C303.216 122.462 302.771 123.168 302.577 123.959L289.147 186.393C289.049 186.734 289.033 187.093 289.1 187.441C289.168 187.789 289.317 188.116 289.536 188.396C289.755 188.675 290.037 188.898 290.358 189.047C290.68 189.196 291.033 189.267 291.387 189.253Z" fill="white"/>
<path d="M292.64 189.78H333.498C334.324 189.741 335.115 189.437 335.754 188.912C336.393 188.387 336.845 187.67 337.043 186.867L350.711 123.379C350.809 123.031 350.823 122.665 350.752 122.311C350.682 121.956 350.528 121.623 350.305 121.339C350.081 121.055 349.794 120.828 349.466 120.677C349.138 120.525 348.779 120.453 348.417 120.466H307.559C306.733 120.505 305.942 120.809 305.303 121.334C304.664 121.859 304.212 122.576 304.014 123.379L290.359 186.867C290.259 187.214 290.242 187.58 290.311 187.935C290.38 188.289 290.531 188.623 290.754 188.907C290.977 189.192 291.264 189.419 291.592 189.571C291.919 189.723 292.279 189.794 292.64 189.78Z" fill="#25AFF4"/>
<path d="M287.961 153.957L298.122 153.574C299.344 153.532 300.561 153.748 301.694 154.207L306.966 156.316C307.461 156.512 307.911 156.806 308.289 157.179C308.668 157.553 308.967 158 309.169 158.492C309.37 158.984 309.471 159.512 309.464 160.044C309.457 160.576 309.342 161.101 309.128 161.588L307.019 166.148C306.593 167.033 305.876 167.744 304.988 168.161C304.1 168.579 303.095 168.678 302.142 168.442L296.33 166.992C296.33 166.992 285.417 166.122 285.022 160.402L287.961 153.957Z" fill="#FFB573"/>
<path d="M259.9 84.8408C257.383 88.7948 255.077 92.4061 252.81 96.281C250.543 100.156 248.315 103.991 246.22 107.998C244.124 112.005 242.134 116.143 240.328 120.572C239.391 122.891 238.59 125.263 237.929 127.676C237.08 130.616 236.688 133.671 236.77 136.73V137.244C236.765 137.332 236.765 137.42 236.77 137.508C236.77 137.983 236.901 138.457 236.994 138.932C237.086 139.406 237.204 139.775 237.336 140.25C237.468 140.724 237.613 140.974 237.758 141.343C238.262 142.484 238.908 143.556 239.682 144.533C240.759 145.879 241.984 147.099 243.333 148.171C245.406 149.804 247.61 151.263 249.923 152.533C253.992 154.758 258.181 156.756 262.471 158.517C266.622 160.283 270.761 161.891 274.926 163.407C279.091 164.922 283.19 166.385 287.526 167.835L292.547 151.228C288.593 150.148 284.56 148.817 280.619 147.472C276.679 146.128 272.711 144.625 268.968 143.057C265.295 141.539 261.713 139.81 258.24 137.877C256.774 137.065 255.377 136.135 254.062 135.096C253.716 134.834 253.406 134.528 253.139 134.187C253.253 134.315 253.342 134.462 253.403 134.622C253.403 134.74 253.469 134.819 253.535 134.964C253.586 135.119 253.626 135.278 253.653 135.439C253.709 135.641 253.744 135.849 253.759 136.058C253.759 136.137 253.759 136.151 253.759 136.124V136.032C253.851 134.781 254.094 133.547 254.483 132.355C255.011 130.629 255.635 128.935 256.355 127.28C257.966 123.632 259.788 120.081 261.812 116.644C263.868 113.112 266.056 109.58 268.402 106.1C270.748 102.621 273.146 99.1543 275.558 95.9911L259.9 84.8408Z" fill="#25AFF4"/>
<g opacity="0.7">
<path opacity="0.7" d="M259.9 84.8408C257.383 88.7948 255.077 92.4061 252.81 96.281C250.543 100.156 248.315 103.991 246.22 107.998C244.124 112.005 242.134 116.143 240.328 120.572C239.391 122.891 238.59 125.263 237.929 127.676C237.08 130.616 236.688 133.671 236.77 136.73V137.244C236.765 137.332 236.765 137.42 236.77 137.508C236.77 137.983 236.901 138.457 236.994 138.932C237.086 139.406 237.204 139.775 237.336 140.25C237.468 140.724 237.613 140.974 237.758 141.343C238.262 142.484 238.908 143.556 239.682 144.533C240.759 145.879 241.984 147.099 243.333 148.171C245.406 149.804 247.61 151.263 249.923 152.533C253.992 154.758 258.181 156.756 262.471 158.517C266.622 160.283 270.761 161.891 274.926 163.407C279.091 164.922 283.19 166.385 287.526 167.835L292.547 151.228C288.593 150.148 284.56 148.817 280.619 147.472C276.679 146.128 272.711 144.625 268.968 143.057C265.295 141.539 261.713 139.81 258.24 137.877C256.774 137.065 255.377 136.135 254.062 135.096C253.716 134.834 253.406 134.528 253.139 134.187C253.253 134.315 253.342 134.462 253.403 134.622C253.403 134.74 253.469 134.819 253.535 134.964C253.586 135.119 253.626 135.278 253.653 135.439C253.709 135.641 253.744 135.849 253.759 136.058C253.759 136.137 253.759 136.151 253.759 136.124V136.032C253.851 134.781 254.094 133.547 254.483 132.355C255.011 130.629 255.635 128.935 256.355 127.28C257.966 123.632 259.788 120.081 261.812 116.644C263.868 113.112 266.056 109.58 268.402 106.1C270.748 102.621 273.146 99.1543 275.558 95.9911L259.9 84.8408Z" fill="white"/>
</g>
<path d="M273.239 130.575C273.326 130.574 273.413 130.551 273.489 130.507C273.565 130.463 273.629 130.4 273.674 130.325C273.712 130.267 273.739 130.203 273.752 130.135C273.765 130.067 273.764 129.997 273.749 129.929C273.734 129.861 273.706 129.797 273.666 129.741C273.626 129.684 273.575 129.636 273.515 129.6L271.459 128.282C269.54 127.072 268.034 125.307 267.139 123.222C266.245 121.137 266.005 118.829 266.451 116.605L270.589 95.6484C270.892 94.0815 271.715 92.6626 272.924 91.6212C274.134 90.5798 275.659 89.9768 277.253 89.9097C278.848 89.8426 280.418 90.3154 281.711 91.2516C283.003 92.1878 283.942 93.5326 284.376 95.0685L290.241 115.616C290.881 117.788 290.846 120.104 290.14 122.255C289.434 124.407 288.09 126.293 286.287 127.663L284.336 129.139C284.226 129.225 284.155 129.35 284.138 129.489C284.12 129.627 284.159 129.767 284.244 129.877C284.285 129.931 284.337 129.976 284.396 130.01C284.455 130.044 284.52 130.066 284.587 130.074C284.655 130.083 284.723 130.078 284.789 130.06C284.854 130.042 284.915 130.011 284.969 129.969L286.814 128.506C288.796 127.014 290.277 124.954 291.061 122.6C291.845 120.246 291.895 117.709 291.203 115.326L285.325 94.7785C284.82 93.024 283.741 91.4898 282.26 90.4223C280.779 89.3547 278.982 88.8157 277.158 88.8917C275.334 88.9677 273.588 89.6543 272.201 90.8414C270.814 92.0284 269.866 93.6471 269.509 95.4375L265.37 116.407C264.882 118.837 265.143 121.359 266.12 123.637C267.097 125.916 268.743 127.843 270.84 129.165L272.909 130.483C272.955 130.52 273.008 130.547 273.064 130.563C273.121 130.579 273.18 130.583 273.239 130.575Z" fill="#263238"/>
<path d="M270.075 96.0833L284.877 95.4639C284.946 95.4605 285.014 95.4435 285.076 95.4138C285.139 95.3842 285.195 95.3424 285.242 95.291C285.288 95.2396 285.324 95.1795 285.347 95.1142C285.371 95.0489 285.381 94.9796 285.377 94.9103C285.364 94.7728 285.3 94.6452 285.198 94.5526C285.095 94.4599 284.962 94.4089 284.824 94.4095L270.036 95.0289C269.967 95.0323 269.899 95.0493 269.836 95.079C269.773 95.1086 269.717 95.1504 269.671 95.2018C269.624 95.2532 269.588 95.3133 269.565 95.3787C269.542 95.444 269.531 95.5133 269.535 95.5825C269.537 95.6512 269.552 95.7188 269.58 95.7814C269.609 95.844 269.649 95.9003 269.699 95.947C269.75 95.9937 269.809 96.0298 269.874 96.0532C269.938 96.0766 270.007 96.0869 270.075 96.0833Z" fill="#263238"/>
<path d="M277.272 89.9415C277.408 89.9383 277.539 89.8835 277.636 89.7882C277.734 89.6928 277.792 89.5639 277.799 89.4275C277.799 86.7915 278.616 82.218 281.081 81.2163C281.149 81.1934 281.212 81.1568 281.265 81.1087C281.319 81.0606 281.362 81.0021 281.392 80.9367C281.422 80.8714 281.438 80.8005 281.44 80.7286C281.442 80.6567 281.429 80.5851 281.402 80.5185C281.375 80.4518 281.334 80.3913 281.283 80.3409C281.232 80.2904 281.171 80.2509 281.103 80.2249C281.036 80.1989 280.965 80.187 280.893 80.1897C280.821 80.1925 280.75 80.2099 280.685 80.241C277.034 81.7435 276.731 88.6235 276.731 89.467C276.731 89.6059 276.784 89.7395 276.88 89.8401C276.976 89.9407 277.107 90.0006 277.245 90.0074L277.272 89.9415Z" fill="#263238"/>
<path d="M322.545 107.853H322.65C322.786 107.825 322.906 107.743 322.982 107.627C323.059 107.511 323.086 107.37 323.059 107.234C321.319 98.5744 314.123 84.9067 307.784 80.8736C307.726 80.8377 307.661 80.8136 307.594 80.8027C307.527 80.7919 307.458 80.7945 307.392 80.8104C307.326 80.8264 307.263 80.8553 307.208 80.8956C307.153 80.9358 307.107 80.9866 307.072 81.045C307.033 81.1015 307.007 81.1652 306.994 81.2323C306.981 81.2993 306.982 81.3683 306.997 81.435C307.012 81.5016 307.04 81.5646 307.08 81.6199C307.12 81.6752 307.171 81.7217 307.23 81.7567C313.359 85.6316 320.344 98.8907 322.031 107.418C322.053 107.539 322.116 107.649 322.21 107.728C322.303 107.808 322.422 107.852 322.545 107.853Z" fill="#263238"/>
<path d="M318.222 109.211C319.039 111.306 320.858 112.572 322.176 112.031C323.494 111.491 324.008 109.395 323.191 107.247C322.374 105.098 320.555 103.886 319.237 104.439C317.919 104.993 317.392 107.115 318.222 109.211Z" fill="white"/>
<path d="M283.427 129.626C283.427 130.602 284.033 131.379 284.679 131.353C285.325 131.327 285.826 130.509 285.786 129.521C285.746 128.532 285.18 127.755 284.534 127.794C283.888 127.834 283.387 128.638 283.427 129.626Z" fill="white"/>
<path d="M272.066 130.101C272.066 131.076 272.659 131.854 273.318 131.827C273.977 131.801 274.451 130.984 274.412 129.995C274.372 129.007 273.818 128.243 273.094 128.269C272.369 128.295 272.026 129.152 272.066 130.101Z" fill="white"/>
<path d="M48.5592 111.82L49.8772 111.741C49.6579 108.935 50.0242 106.114 50.953 103.457C51.8817 100.8 53.3525 98.3652 55.2721 96.3068C57.1918 94.2484 59.5183 92.6114 62.1041 91.4998C64.6898 90.3881 67.4785 89.826 70.293 89.8492V88.5312C67.2979 88.5057 64.3303 89.103 61.5784 90.2851C58.8264 91.4673 56.3501 93.2084 54.3066 95.3981C52.2631 97.5879 50.697 100.178 49.7076 103.005C48.7182 105.832 48.3271 108.834 48.5592 111.82Z" fill="#25AFF4"/>
<path d="M47.8641 117.346L48.6281 128.259L47.3099 128.352L46.546 117.439L47.8641 117.346Z" fill="#25AFF4"/>
<path d="M70.293 93.1442H161.235C166.201 93.2258 170.96 95.1519 174.585 98.5478C178.21 101.944 180.442 106.567 180.847 111.517L181.677 123.761C181.866 126.117 181.562 128.487 180.784 130.719C180.006 132.951 178.772 134.996 177.16 136.725C175.548 138.453 173.594 139.827 171.421 140.758C169.249 141.69 166.907 142.158 164.543 142.134H73.6012L55.9663 153.008L53.1722 111.517C52.9815 109.162 53.284 106.793 54.0602 104.561C54.8363 102.329 56.0692 100.283 57.6802 98.5545C59.2912 96.8257 61.2448 95.4517 63.4164 94.5202C65.5881 93.5886 67.9301 93.12 70.293 93.1442Z" fill="#25AFF4"/>
<path d="M74.9059 110.687H159.139V113.745H74.9059V110.687Z" fill="white"/>
<path d="M75.644 121.534H138.183V124.592H75.644V121.534Z" fill="white"/>
<path d="M207.101 158.649H114.156C111.74 158.623 109.344 159.101 107.123 160.052C104.901 161.004 102.903 162.408 101.254 164.175C99.6062 165.943 98.3446 168.034 97.55 170.316C96.7554 172.599 96.4454 175.022 96.6398 177.43L97.4833 189.951C97.901 195.01 100.184 199.734 103.888 203.204C107.593 206.675 112.455 208.645 117.53 208.733H210.489L230.021 219.87L227.148 177.43C226.733 172.37 224.452 167.645 220.746 164.174C217.041 160.703 212.178 158.733 207.101 158.649Z" fill="white"/>
<path opacity="0.15" d="M207.101 158.649H114.156C111.74 158.623 109.344 159.101 107.123 160.052C104.901 161.004 102.903 162.408 101.254 164.175C99.6062 165.943 98.3446 168.034 97.55 170.316C96.7554 172.599 96.4454 175.022 96.6398 177.43L97.4833 189.951C97.901 195.01 100.184 199.734 103.888 203.204C107.593 206.675 112.455 208.645 117.53 208.733H210.489L230.021 219.87L227.148 177.43C226.733 172.37 224.452 167.645 220.746 164.174C217.041 160.703 212.178 158.733 207.101 158.649Z" fill="#25AFF4"/>
<path opacity="0.5" d="M118.874 176.587H205.019V179.724H118.874V176.587Z" fill="#25AFF4"/>
<path opacity="0.5" d="M171.726 187.671H205.77V190.808H171.726V187.671Z" fill="#25AFF4"/>
<path opacity="0.5" d="M141.636 187.671H163.383V190.808H141.636V187.671Z" fill="#25AFF4"/>
</svg>
