<svg width="432" height="431" viewBox="0 0 432 431" fill="none" xmlns="http://www.w3.org/2000/svg">
<path d="M431.1 429.83C431.1 429.97 334.64 430.09 215.68 430.09C96.72 430.09 0.23999 430 0.23999 429.83C0.23999 429.66 96.68 429.57 215.68 429.57C334.68 429.57 431.1 429.69 431.1 429.83Z" fill="#3D4F5C"/>
<path d="M157.65 301.44C157.65 301.44 129.21 320.76 127.65 365.86C127.13 380.99 134.56 429.16 134.56 429.16L300.89 429.83L269.78 300.72L217.45 288.72L157.65 301.44Z" fill="#25AFF4"/>
<path d="M221.19 334.92L198.53 429.45L255.17 429.83L221.19 334.92Z" fill="#3D4F5C"/>
<path d="M220.33 314.45C220.509 315.471 220.609 316.504 220.63 317.54C220.76 319.62 220.92 322.18 221.1 325.02C221.28 327.86 221.38 330.59 221.42 332.5C221.488 333.537 221.464 334.577 221.35 335.61C221.171 334.589 221.071 333.556 221.05 332.52C220.92 330.45 220.76 327.88 220.58 325.05C220.4 322.22 220.3 319.48 220.27 317.56C220.197 316.524 220.217 315.483 220.33 314.45Z" fill="#3D4F5C"/>
<path d="M230.59 324.87C230.59 324.92 230.22 325 229.59 325.35C228.764 325.845 228.106 326.577 227.7 327.45C227.386 328.077 227.239 328.775 227.274 329.476C227.309 330.177 227.525 330.857 227.9 331.45C228.33 332.193 228.974 332.788 229.749 333.157C230.524 333.525 231.393 333.65 232.24 333.515C233.087 333.379 233.874 332.99 234.495 332.398C235.116 331.806 235.544 331.04 235.72 330.2C235.897 329.528 235.898 328.822 235.723 328.149C235.547 327.477 235.202 326.86 234.72 326.36C234.063 325.655 233.21 325.163 232.27 324.95C231.61 324.8 231.27 324.84 231.21 324.79C231.15 324.74 231.31 324.79 231.49 324.73C231.762 324.691 232.038 324.691 232.31 324.73C233.323 324.878 234.26 325.352 234.98 326.08C235.488 326.581 235.877 327.189 236.12 327.86C236.388 328.646 236.427 329.493 236.23 330.3C236.036 331.236 235.561 332.091 234.869 332.75C234.177 333.41 233.301 333.844 232.356 333.993C231.412 334.143 230.445 334.002 229.583 333.589C228.721 333.176 228.005 332.51 227.53 331.68C227.094 330.974 226.869 330.159 226.88 329.33C226.909 328.633 227.09 327.95 227.41 327.33C227.868 326.412 228.612 325.668 229.53 325.21C229.772 325.084 230.032 324.993 230.3 324.94C230.49 324.86 230.58 324.85 230.59 324.87Z" fill="#3D4F5C"/>
<path d="M248.72 376.48C248.72 376.48 248.35 376.62 247.72 376.96C246.898 377.457 246.243 378.188 245.84 379.06C245.526 379.687 245.379 380.385 245.414 381.086C245.449 381.787 245.665 382.467 246.04 383.06C246.47 383.803 247.114 384.398 247.889 384.767C248.664 385.135 249.533 385.26 250.38 385.125C251.227 384.989 252.014 384.6 252.635 384.008C253.256 383.416 253.684 382.65 253.86 381.81C254.036 381.138 254.036 380.432 253.861 379.76C253.686 379.087 253.341 378.471 252.86 377.97C252.207 377.265 251.357 376.774 250.42 376.56C249.75 376.41 249.36 376.45 249.36 376.4C249.448 376.361 249.544 376.34 249.64 376.34C249.909 376.306 250.181 376.306 250.45 376.34C251.467 376.49 252.408 376.967 253.13 377.7C253.637 378.196 254.023 378.802 254.26 379.47C254.538 380.254 254.576 381.104 254.37 381.91C254.183 382.85 253.712 383.711 253.021 384.375C252.331 385.04 251.453 385.477 250.506 385.627C249.559 385.777 248.589 385.634 247.726 385.216C246.863 384.798 246.149 384.126 245.68 383.29C245.235 382.588 245.009 381.77 245.03 380.94C245.055 380.242 245.236 379.559 245.56 378.94C246.018 378.022 246.762 377.278 247.68 376.82C247.924 376.696 248.183 376.606 248.45 376.55C248.536 376.514 248.627 376.491 248.72 376.48Z" fill="#3D4F5C"/>
<path d="M189.91 339C189.806 339.159 189.685 339.306 189.55 339.44C189.31 339.72 188.95 340.13 188.46 340.64C187.057 342.072 185.561 343.408 183.98 344.64C178.716 348.675 172.645 351.53 166.18 353.01C162.63 353.862 158.97 354.158 155.33 353.89C152.328 353.673 149.443 352.635 146.99 350.89C145.352 349.694 144.036 348.11 143.16 346.28C142.94 345.782 142.759 345.267 142.62 344.74C142.564 344.559 142.533 344.37 142.53 344.18C142.58 344.18 142.73 344.94 143.35 346.18C144.268 347.93 145.592 349.435 147.21 350.57C149.627 352.232 152.444 353.216 155.37 353.42C158.963 353.648 162.569 353.338 166.07 352.5C172.468 351.034 178.492 348.255 183.76 344.34C185.347 343.149 186.866 341.871 188.31 340.51L189.48 339.38C189.75 339.11 189.89 339 189.91 339Z" fill="#3D4F5C"/>
<path d="M189.91 348.36C189.806 348.519 189.685 348.666 189.55 348.8C189.31 349.08 188.95 349.5 188.46 350.01C182.378 356.187 174.641 360.475 166.18 362.36C162.631 363.215 158.971 363.515 155.33 363.25C152.329 363.028 149.445 361.991 146.99 360.25C145.351 359.059 144.034 357.478 143.16 355.65C142.938 355.149 142.758 354.631 142.62 354.1C142.563 353.919 142.532 353.73 142.53 353.54C142.58 353.54 142.73 354.3 143.35 355.54C144.268 357.293 145.591 358.802 147.21 359.94C149.628 361.598 152.445 362.579 155.37 362.78C158.963 363.013 162.57 362.703 166.07 361.86C172.466 360.392 178.488 357.617 183.76 353.71C185.348 352.516 186.867 351.234 188.31 349.87L189.48 348.74C189.608 348.597 189.752 348.469 189.91 348.36Z" fill="#3D4F5C"/>
<path d="M191.38 345.53C191.416 345.661 191.439 345.795 191.45 345.93C191.45 346.22 191.52 346.62 191.58 347.12C191.7 348.2 191.87 349.74 192.08 351.71C192.5 355.71 193.3 361.44 193.66 368.61C193.866 372.521 193.782 376.441 193.41 380.34C193.001 384.831 191.992 389.247 190.41 393.47C188.666 398.167 185.904 402.419 182.32 405.92C180.418 407.762 178.279 409.342 175.96 410.62C173.561 411.927 170.968 412.842 168.28 413.33C162.92 414.201 157.423 413.183 152.73 410.45C148.353 407.97 144.665 404.436 142 400.17C139.65 396.314 137.96 392.093 137 387.68C136.145 383.843 135.683 379.93 135.62 376C135.599 370.335 136 364.676 136.82 359.07C137.11 357.07 137.33 355.57 137.48 354.5C137.56 354 137.63 353.61 137.67 353.31C137.688 353.174 137.719 353.041 137.76 352.91C137.773 353.046 137.773 353.184 137.76 353.32C137.76 353.62 137.68 354.01 137.62 354.51C137.49 355.59 137.3 357.13 137.05 359.09C136.319 364.693 135.985 370.34 136.05 375.99C136.134 379.885 136.61 383.761 137.47 387.56C138.445 391.914 140.135 396.077 142.47 399.88C145.082 404.078 148.702 407.556 153 410C157.591 412.672 162.968 413.666 168.21 412.81C170.844 412.34 173.384 411.445 175.73 410.16C178.012 408.908 180.117 407.357 181.99 405.55C185.528 402.107 188.26 397.923 189.99 393.3C191.563 389.119 192.571 384.747 192.99 380.3C193.38 376.423 193.484 372.522 193.3 368.63C192.99 361.48 192.3 355.72 191.89 351.73C191.69 349.73 191.56 348.18 191.48 347.13C191.48 346.63 191.42 346.23 191.4 345.93C191.38 345.63 191.38 345.53 191.38 345.53Z" fill="#3D4F5C"/>
<g opacity="0.2">
<path opacity="0.2" d="M139.34 395.06C141.14 401.16 141.91 402.74 145.28 407.61C148.392 412.225 152.946 415.679 158.23 417.43C162.007 418.734 166.055 419.051 169.99 418.351C173.924 417.651 177.614 415.957 180.71 413.43C186.82 408.32 188.98 400.43 190.04 395.08C187.38 398.66 184.55 403.75 181.2 406.7C177.85 409.65 173.42 412.23 169 413C163 414 155.85 412.2 150.72 408.94C145.59 405.68 142.49 399.84 139.31 395.07" fill="#3D4F5C"/>
</g>
<g opacity="0.2">
<path opacity="0.2" d="M143.62 356.27C144.761 358.813 146.503 361.04 148.696 362.76C150.889 364.479 153.468 365.639 156.21 366.14C161.62 367.14 168.63 365.43 172.01 360.35C160.11 364.53 148.28 364.63 143.62 356.27Z" fill="#3D4F5C"/>
</g>
<path d="M241.41 341.52C241.155 341.564 240.895 341.564 240.64 341.52C239.963 341.427 239.294 341.279 238.64 341.08C234.183 339.758 230.362 336.857 227.89 332.92C227.513 332.331 227.179 331.716 226.89 331.08C226.7 330.62 226.61 330.37 226.65 330.35C226.69 330.33 227.19 331.29 228.17 332.72C229.46 334.564 231.025 336.199 232.81 337.57C234.608 338.923 236.605 339.989 238.73 340.73C240.36 341.24 241.42 341.43 241.41 341.52Z" fill="#3D4F5C"/>
<g opacity="0.2">
<path opacity="0.2" d="M227.57 331C228.8 335.18 233.44 339.08 237.57 340.45C238.378 340.751 239.24 340.877 240.1 340.82C240.53 340.79 240.948 340.667 241.325 340.458C241.701 340.248 242.027 339.959 242.28 339.61C243.15 338.28 242.4 336.39 241.12 335.45C239.758 334.62 238.24 334.078 236.66 333.86C233.47 333.12 230.59 334.73 227.95 332.05" fill="#3D4F5C"/>
</g>
<g opacity="0.2">
<path opacity="0.2" d="M139.13 323.26C146.59 329.78 157.13 330.06 166.62 327.26C176.11 324.46 184.38 319.19 192.44 313.43C183.65 315.18 176.15 319.19 167.28 320.5C158.81 321.75 150 321.88 141.67 319.05" fill="#3D4F5C"/>
</g>
<path d="M282.19 423.42C282.134 423.468 282.07 423.506 282 423.53C281.809 423.632 281.612 423.723 281.41 423.8C280.633 424.114 279.814 424.316 278.98 424.4C275.887 424.656 272.8 423.829 270.25 422.06C266.93 419.95 263.91 416.4 260.68 412.46C257.215 408.136 254.101 403.541 251.37 398.72C246.413 389.949 242.618 380.57 240.08 370.82C239.08 367.08 238.5 364.02 238.13 361.89C237.97 360.89 237.84 360.04 237.74 359.44C237.691 359.155 237.657 358.868 237.64 358.58C237.736 358.853 237.807 359.134 237.85 359.42L238.33 361.85C238.76 363.96 239.43 367.01 240.43 370.72C243.065 380.402 246.891 389.72 251.82 398.46C254.543 403.258 257.632 407.838 261.06 412.16C264.25 416.1 267.23 419.65 270.45 421.75C272.938 423.516 275.954 424.381 279 424.2C280.094 424.086 281.167 423.824 282.19 423.42Z" fill="#3D4F5C"/>
<g opacity="0.2">
<path opacity="0.2" d="M246.23 386.52C246.23 386.52 260.99 405.08 271.76 409.63C275.41 411.18 279.43 412.44 281.92 415.52C282.542 416.225 283.003 417.057 283.271 417.959C283.539 418.861 283.606 419.81 283.47 420.74C283.428 420.96 283.361 421.175 283.27 421.38C281.72 425.33 274.27 424.78 270.86 422.28C269.37 421.19 270.25 421.89 269.05 420.99C265.6 418.39 247.13 397 246.23 386.52Z" fill="#3D4F5C"/>
</g>
<path d="M181.07 136.02L190.49 134.15L237.08 134.7L260.75 139.9L269.78 272.08L165.13 276.97L181.07 136.02Z" fill="white"/>
<path d="M248.84 266L251.07 205.88L247.36 136.17C262.08 139.96 282.21 144.17 293.36 156.88C300.59 165.13 307.68 175.68 310.36 192.67C313.44 212.67 317.5 250.92 320.04 272.32" fill="#25AFF4"/>
<path d="M263.64 256.14L191.29 267.89L188.73 223.21L184.73 134.88C163.73 135.74 139.83 153.09 132.66 166.61C127.66 175.99 123.47 186.89 122.16 197.44C119.65 217.44 115.4 251.71 112.86 273.12C112.092 279.627 112.783 286.223 114.883 292.429C116.983 298.636 120.439 304.296 125 309C135.5 319.83 151.94 323.58 166.72 320.52L276.88 289.52L263.64 256.14Z" fill="#25AFF4"/>
<path d="M256 255.34C256.006 255.255 256.023 255.171 256.05 255.09C256.11 254.91 256.18 254.67 256.26 254.37C256.47 253.7 256.75 252.77 257.12 251.58C257.9 249.12 259.01 245.58 260.39 241.2L271.74 205.76L271.89 206.07L260.16 201.22L259.7 201.03L260.11 200.76L262.82 198.98L271.67 193.2L271.57 193.48C267.07 177.86 263.11 164.08 260.26 154.17C258.87 149.25 257.75 145.29 256.96 142.53C256.6 141.18 256.31 140.13 256.1 139.38C256.013 139.053 255.943 138.783 255.89 138.57C255.857 138.48 255.837 138.386 255.83 138.29C255.83 138.29 255.83 138.37 255.93 138.55L256.19 139.36C256.42 140.1 256.74 141.14 257.14 142.48L260.59 154.07L272.06 193.34L272.11 193.52L271.95 193.63L263.11 199.42L260.4 201.19V200.73L272.12 205.6L272.34 205.69L272.27 205.91C267.65 220.1 263.62 232.45 260.74 241.3C259.29 245.68 258.14 249.19 257.33 251.63C256.93 252.81 256.61 253.74 256.39 254.4C256.29 254.69 256.2 254.92 256.14 255.11C256.102 255.192 256.055 255.269 256 255.34Z" fill="#3D4F5C"/>
<g opacity="0.2">
<path opacity="0.2" d="M272 193.56C271.41 195.729 270.133 197.648 268.36 199.03C266.98 199.82 267.77 200.87 268.91 201.97C270.28 203.29 272.48 203.65 273.49 205.25C274.5 206.85 273.93 208.68 273.41 210.36C268.4 226.299 262.32 241.881 255.21 257L272 205.83L260.29 201L272 193.56Z" fill="#3D4F5C"/>
</g>
<path d="M185.27 256.58C185.221 256.516 185.18 256.445 185.15 256.37C185.08 256.21 184.98 256.01 184.87 255.75L183.79 253.31C182.85 251.15 181.51 248.04 179.79 244.16L166.3 212.54L166.22 212.36L166.39 212.24L175.64 205.62V206L169.51 201.14L166.79 199L165.44 198L165.11 197.73C165.041 197.681 164.977 197.624 164.92 197.56C164.856 197.477 164.808 197.382 164.78 197.28C164.706 196.982 164.669 196.677 164.67 196.37C164.732 194.132 164.939 191.901 165.29 189.69C165.9 185.36 166.62 181.2 167.29 177.24C168.71 169.33 170.12 162.24 171.29 156.24C172.46 150.24 173.51 145.47 174.22 142.15C174.58 140.51 174.87 139.23 175.07 138.32L175.3 137.32C175.317 137.206 175.351 137.095 175.4 136.99C175.395 137.108 175.378 137.225 175.35 137.34C175.35 137.59 175.24 137.92 175.17 138.34C174.99 139.253 174.74 140.533 174.42 142.18C173.76 145.54 172.82 150.36 171.66 156.3C170.5 162.24 169.14 169.37 167.74 177.3C167.05 181.25 166.34 185.41 165.74 189.73C165.395 191.915 165.192 194.119 165.13 196.33C165.127 196.586 165.158 196.842 165.22 197.09C165.22 197.21 165.51 197.39 165.72 197.57L167.06 198.63L169.77 200.78L175.89 205.63L176.16 205.85L175.88 206.05L166.62 212.65L166.7 212.34L180.11 244C181.74 247.91 183.04 251 183.94 253.21C184.37 254.26 184.71 255.08 184.94 255.68L185.18 256.32C185.217 256.404 185.247 256.491 185.27 256.58Z" fill="#3D4F5C"/>
<path d="M272.748 213.193L199.851 201.947C198.535 201.744 197.304 202.646 197.101 203.962L181.379 305.876C181.176 307.192 182.078 308.422 183.393 308.625L256.291 319.871C257.606 320.074 258.837 319.172 259.04 317.857L274.763 215.943C274.965 214.627 274.064 213.396 272.748 213.193Z" fill="#25AFF4"/>
<g opacity="0.2">
<path opacity="0.2" d="M272.748 213.193L199.851 201.947C198.535 201.744 197.304 202.646 197.101 203.962L181.379 305.876C181.176 307.192 182.078 308.422 183.393 308.625L256.291 319.871C257.606 320.074 258.837 319.172 259.04 317.857L274.763 215.943C274.965 214.627 274.064 213.396 272.748 213.193Z" fill="#3D4F5C"/>
</g>
<path d="M270.446 215.16L201.453 204.516L186.133 303.821L255.126 314.465L270.446 215.16Z" fill="#EBEBEB"/>
<path d="M249.72 213.53C249.231 212.019 248.331 210.674 247.121 209.644C245.912 208.615 244.44 207.942 242.87 207.7L243.45 203.45C243.686 201.911 243.301 200.341 242.38 199.085C241.46 197.829 240.079 196.989 238.54 196.75C236.999 196.512 235.427 196.895 234.168 197.816C232.91 198.736 232.069 200.119 231.83 201.66L231.15 206.06L229.67 205.86C228.117 205.644 226.535 205.861 225.098 206.485C223.66 207.109 222.422 208.118 221.52 209.4L220.37 211L250.37 215.64L249.72 213.53ZM237.32 205.77C236.702 205.676 236.126 205.4 235.664 204.978C235.203 204.556 234.877 204.006 234.728 203.399C234.579 202.792 234.614 202.154 234.827 201.566C235.041 200.979 235.424 200.468 235.929 200.098C236.433 199.728 237.035 199.516 237.66 199.489C238.285 199.462 238.903 199.621 239.438 199.945C239.972 200.27 240.398 200.746 240.662 201.313C240.926 201.88 241.016 202.512 240.92 203.13C240.789 203.956 240.338 204.697 239.664 205.191C238.989 205.686 238.147 205.894 237.32 205.77Z" fill="#3D4F5C"/>
<path d="M224.83 222.55C221.677 222.332 218.539 221.938 215.43 221.37C212.298 220.971 209.191 220.403 206.12 219.67C209.269 219.888 212.404 220.282 215.51 220.85C218.645 221.249 221.756 221.816 224.83 222.55Z" fill="#3D4F5C"/>
<path d="M214.65 224.21C213.121 224.243 211.594 224.096 210.1 223.77C208.579 223.623 207.079 223.304 205.63 222.82C207.158 222.799 208.684 222.946 210.18 223.26C211.701 223.407 213.201 223.726 214.65 224.21Z" fill="#3D4F5C"/>
<path d="M257.24 239.79C257.24 239.93 245.54 238.24 231.17 236.03C216.8 233.82 205.17 231.89 205.17 231.75C205.17 231.61 216.86 233.29 231.24 235.51C245.62 237.73 257.26 239.64 257.24 239.79Z" fill="#3D4F5C"/>
<path d="M256.47 244.75C256.47 244.89 244.78 243.21 230.4 240.99C216.02 238.77 204.4 236.86 204.4 236.72C204.4 236.58 216.09 238.26 230.47 240.48C244.85 242.7 256.49 244.61 256.47 244.75Z" fill="#3D4F5C"/>
<path d="M255.71 249.72C255.71 249.86 244.01 248.17 229.64 245.96C215.27 243.75 203.64 241.82 203.64 241.68C203.64 241.54 215.34 243.22 229.72 245.44C244.1 247.66 255.73 249.57 255.71 249.72Z" fill="#3D4F5C"/>
<path d="M254.94 254.68C254.94 254.82 243.25 253.14 228.87 250.92C214.49 248.7 202.87 246.79 202.87 246.64C202.87 246.49 214.56 248.19 228.94 250.41C243.32 252.63 255 254.54 254.94 254.68Z" fill="#3D4F5C"/>
<path d="M254.17 259.64C254.17 259.79 242.48 258.1 228.1 255.88C213.72 253.66 202.1 251.75 202.1 251.61C202.1 251.47 213.79 253.15 228.17 255.37C242.55 257.59 254.2 259.5 254.17 259.64Z" fill="#3D4F5C"/>
<path d="M253.41 264.61C253.41 264.75 241.71 263.07 227.34 260.85C212.97 258.63 201.34 256.72 201.34 256.57C201.34 256.42 213.03 258.11 227.41 260.33C241.79 262.55 253.43 264.47 253.41 264.61Z" fill="#3D4F5C"/>
<path d="M226.69 265.07C226.355 265.087 226.02 265.067 225.69 265.01C225.02 264.94 224.07 264.82 222.89 264.66C220.52 264.34 217.26 263.87 213.67 263.32C210.08 262.77 206.83 262.23 204.48 261.82C203.3 261.62 202.36 261.44 201.7 261.31C201.356 261.269 201.02 261.182 200.7 261.05C201.035 261.027 201.371 261.047 201.7 261.11C202.37 261.18 203.32 261.3 204.5 261.46C206.87 261.77 210.13 262.25 213.72 262.8C217.31 263.35 220.56 263.89 222.91 264.3C224.09 264.5 225.03 264.68 225.69 264.81C226.034 264.851 226.37 264.938 226.69 265.07Z" fill="#3D4F5C"/>
<path d="M261.41 227.74C259.996 227.783 258.582 227.652 257.2 227.35C255.791 227.222 254.404 226.92 253.07 226.45C255.892 226.538 258.693 226.971 261.41 227.74Z" fill="#3D4F5C"/>
<path d="M213.18 274.06C210.897 273.968 208.624 273.704 206.38 273.27C204.11 273.009 201.864 272.574 199.66 271.97C201.943 272.061 204.217 272.325 206.46 272.76C208.729 273.024 210.976 273.459 213.18 274.06Z" fill="#3D4F5C"/>
<path d="M212.94 278.64C210.616 278.541 208.303 278.271 206.02 277.83C203.712 277.568 201.429 277.127 199.19 276.51C201.51 276.608 203.82 276.879 206.1 277.32C208.411 277.581 210.698 278.022 212.94 278.64Z" fill="#3D4F5C"/>
<path d="M252.5 279.44C250.285 279.448 248.082 279.11 245.97 278.44C247.079 278.352 248.195 278.433 249.28 278.68C250.387 278.757 251.475 279.014 252.5 279.44Z" fill="#3D4F5C"/>
<path d="M252.1 283.53C249.885 283.538 247.682 283.2 245.57 282.53C247.785 282.522 249.988 282.86 252.1 283.53Z" fill="#3D4F5C"/>
<path d="M205.9 282.4C204.828 282.489 203.748 282.411 202.7 282.17C201.63 282.09 200.579 281.837 199.59 281.42C200.659 281.325 201.736 281.403 202.78 281.65C203.854 281.727 204.908 281.98 205.9 282.4Z" fill="#3D4F5C"/>
<path d="M251.6 288.3C250.798 288.431 249.977 288.394 249.19 288.19C248.378 288.149 247.584 287.938 246.86 287.57C247.661 287.427 248.484 287.461 249.27 287.67C250.083 287.711 250.877 287.926 251.6 288.3Z" fill="#3D4F5C"/>
<path d="M197.52 292.05C197.913 292.015 198.307 292.015 198.7 292.05L202.02 292.15L213.88 292.62H214.15L214.09 292.88C213.793 294.166 213.057 295.308 212.01 296.11C211.455 296.554 210.807 296.866 210.114 297.023C209.422 297.181 208.702 297.18 208.01 297.02C207.271 296.849 206.585 296.499 206.012 296.003C205.438 295.506 204.995 294.877 204.72 294.17C204.468 293.411 204.449 292.593 204.667 291.823C204.884 291.053 205.328 290.365 205.94 289.85C206.389 289.444 206.932 289.155 207.52 289.01C207.667 288.972 207.818 288.949 207.97 288.94C208.133 288.92 208.297 288.92 208.46 288.94C208.569 288.958 208.673 289.002 208.761 289.068C208.85 289.134 208.922 289.22 208.97 289.32C209.036 289.492 209.057 289.678 209.03 289.86C208.898 290.979 208.527 292.057 207.94 293.02C207.369 293.942 206.618 294.738 205.73 295.36C204.865 296.009 203.812 296.36 202.73 296.36C202.209 296.323 201.708 296.142 201.284 295.836C200.86 295.531 200.53 295.113 200.33 294.63C199.947 293.75 199.877 292.766 200.13 291.84C200.722 290.298 201.684 288.924 202.93 287.84L203.2 287.57V287.95C203.36 289.33 203.095 290.725 202.44 291.95C201.953 292.876 201.271 293.684 200.44 294.32C199.923 294.721 199.346 295.038 198.73 295.26C198.519 295.344 198.296 295.398 198.07 295.42C198.883 295.123 199.643 294.698 200.32 294.16C201.092 293.516 201.721 292.719 202.17 291.82C202.772 290.636 202.998 289.296 202.82 287.98L203.14 288.08C201.957 289.141 201.048 290.472 200.49 291.96C200.272 292.789 200.342 293.667 200.69 294.45C200.856 294.852 201.132 295.2 201.485 295.455C201.838 295.709 202.256 295.86 202.69 295.89C203.645 295.88 204.571 295.561 205.33 294.98C206.176 294.388 206.886 293.625 207.415 292.739C207.944 291.853 208.28 290.865 208.4 289.84C208.422 289.751 208.422 289.659 208.4 289.57C208.4 289.52 208.4 289.5 208.26 289.48C208.018 289.466 207.775 289.49 207.54 289.55C207.036 289.678 206.569 289.925 206.18 290.27C205.651 290.722 205.267 291.319 205.077 291.988C204.887 292.657 204.898 293.368 205.11 294.03C205.351 294.64 205.731 295.184 206.221 295.619C206.711 296.055 207.297 296.369 207.93 296.536C208.564 296.703 209.228 296.72 209.869 296.583C210.51 296.446 211.11 296.161 211.62 295.75C212.587 295.026 213.27 293.985 213.55 292.81L213.76 293.08L202 292.39L198.68 292.17C198.291 292.154 197.904 292.114 197.52 292.05Z" fill="#3D4F5C"/>
<path d="M246.94 299.5C246.781 299.727 246.589 299.929 246.37 300.1C246.114 300.319 245.827 300.501 245.52 300.64C245.088 300.831 244.6 300.856 244.15 300.71C243.866 300.623 243.62 300.443 243.45 300.2C243.281 299.936 243.185 299.633 243.17 299.32C243.178 298.681 243.225 298.043 243.31 297.41C243.44 296.05 243.59 294.56 243.75 292.95L244.18 293.12L240.36 298.29L239.41 299.57L238.79 300.41L238.94 299.41C239.35 296.74 239.72 294.25 240.05 292.06L240.42 292.26C238.86 293.575 237.478 295.088 236.31 296.76C235.47 297.97 235.07 298.76 235.02 298.7C235.069 298.5 235.146 298.308 235.25 298.13C235.507 297.612 235.79 297.108 236.1 296.62C237.197 294.867 238.545 293.284 240.1 291.92L240.55 291.53L240.46 292.13C240.16 294.31 239.8 296.81 239.46 299.49L238.99 299.29L239.99 298.01C241.35 296.19 242.64 294.45 243.84 292.86L244.37 292.14L244.27 293.03C244.08 294.64 243.91 296.13 243.75 297.48C243.657 298.093 243.597 298.711 243.57 299.33C243.554 299.571 243.615 299.81 243.744 300.013C243.874 300.217 244.065 300.373 244.29 300.46C244.636 300.553 244.999 300.56 245.348 300.48C245.696 300.4 246.02 300.235 246.29 300C246.493 299.816 246.71 299.649 246.94 299.5Z" fill="#3D4F5C"/>
<path d="M248.7 296.78C245.436 297.022 242.161 297.093 238.89 296.99C235.62 297.062 232.349 296.962 229.09 296.69C232.35 296.441 235.622 296.368 238.89 296.47C242.163 296.398 245.438 296.501 248.7 296.78Z" fill="#3D4F5C"/>
<path d="M251.89 299.89C249.303 300.428 246.685 300.799 244.05 301C241.436 301.368 238.8 301.569 236.16 301.6C238.745 301.047 241.364 300.673 244 300.48C246.614 300.106 249.25 299.909 251.89 299.89Z" fill="#3D4F5C"/>
<g opacity="0.2">
<path opacity="0.2" d="M164.93 196.93C164.81 199.93 165.62 202.99 168.12 204.68C164.99 206.2 163.32 209.84 163.22 213.32C163.12 216.8 164.33 220.18 165.64 223.41C169.69 233.34 178.33 247.32 184.92 255.78C184.92 255.78 181.58 246.78 180.62 244.67C176.28 235.18 172.45 225.67 168.1 216.15C167.62 215.15 166.76 212.23 166.76 212.23C167.233 211.997 167.671 211.697 168.06 211.34C170.5 209.34 175.79 205.83 175.79 205.83C175.79 205.83 164.93 197.23 164.93 196.93Z" fill="#3D4F5C"/>
</g>
<path d="M164.78 217.33C164.92 217.33 164.67 228.88 164.21 243.11C163.75 257.34 163.27 268.88 163.13 268.87C162.99 268.86 163.23 257.33 163.69 243.09C164.15 228.85 164.63 217.32 164.78 217.33Z" fill="#3D4F5C"/>
<path d="M182 187H181C181 186.62 182.45 148.79 183.58 133.73C183.617 132.673 183.869 131.635 184.321 130.679C184.774 129.723 185.416 128.869 186.21 128.17C189.33 125.5 194 125.85 194.21 125.86L194.13 126.86C194.08 126.86 189.67 126.54 186.87 128.93C186.179 129.547 185.619 130.297 185.226 131.136C184.832 131.974 184.612 132.884 184.58 133.81C183.48 148.76 182.05 186.58 182 187Z" fill="#3D4F5C"/>
<path d="M191.37 250.28H189.6V248.28H191.37C193.226 248.28 195.007 247.542 196.32 246.23C197.632 244.917 198.37 243.137 198.37 241.28V220.1H200.37V241.28C200.37 243.667 199.422 245.956 197.734 247.644C196.046 249.332 193.757 250.28 191.37 250.28Z" fill="#455A64"/>
<path d="M192.09 249.52C192.048 249.943 191.882 250.344 191.613 250.673C191.343 251.002 190.982 251.243 190.575 251.367C190.168 251.491 189.734 251.491 189.327 251.367C188.92 251.244 188.559 251.003 188.289 250.674C188.019 250.346 187.853 249.944 187.811 249.521C187.769 249.098 187.853 248.672 188.054 248.297C188.254 247.922 188.561 247.615 188.936 247.414C189.311 247.213 189.737 247.129 190.16 247.17C190.727 247.228 191.247 247.508 191.609 247.948C191.97 248.388 192.143 248.953 192.09 249.52Z" fill="#3D4F5C"/>
<path d="M174.07 250.23H172.3C169.913 250.23 167.624 249.282 165.936 247.594C164.248 245.906 163.3 243.617 163.3 241.23L163.38 220.05H165.38L165.3 241.23C165.3 243.087 166.037 244.867 167.35 246.18C168.663 247.493 170.443 248.23 172.3 248.23H174.07V250.23Z" fill="#455A64"/>
<path d="M171.59 249.46C171.631 249.881 171.796 250.28 172.064 250.607C172.332 250.934 172.691 251.174 173.096 251.298C173.5 251.421 173.932 251.422 174.337 251.3C174.742 251.178 175.102 250.939 175.371 250.612C175.64 250.286 175.806 249.888 175.849 249.467C175.891 249.046 175.809 248.622 175.611 248.249C175.413 247.875 175.108 247.568 174.736 247.368C174.364 247.167 173.941 247.081 173.52 247.12C173.239 247.146 172.967 247.228 172.718 247.36C172.469 247.492 172.248 247.672 172.069 247.889C171.889 248.106 171.755 248.357 171.673 248.627C171.591 248.896 171.562 249.18 171.59 249.46Z" fill="#3D4F5C"/>
<path d="M162.79 222.49L162.54 207.39C162.35 195.88 170.76 186.39 181.29 186.2C183.855 186.177 186.395 186.694 188.747 187.718C191.099 188.741 193.209 190.248 194.94 192.14C198.619 196.121 200.684 201.33 200.73 206.75L200.98 221.86L197.98 221.91L197.73 206.8C197.694 202.12 195.91 197.623 192.73 194.19C191.289 192.598 189.527 191.329 187.561 190.467C185.594 189.606 183.467 189.17 181.32 189.19C172.44 189.34 165.32 197.47 165.52 207.33L165.77 222.43L162.79 222.49Z" fill="#3D4F5C"/>
<path d="M248.21 187.56C248.21 187.16 243.62 147.85 242.3 135.25L242.21 134.33C241.8 130.05 241.32 125.21 236.59 123.93L236.85 122.93C242.25 124.39 242.78 129.83 243.21 134.2L243.3 135.11C244.61 147.71 249.16 187.02 249.2 187.42L248.21 187.56Z" fill="#3D4F5C"/>
<path d="M256.301 188.41C260.491 184.22 260.491 177.426 256.301 173.236C252.111 169.045 245.317 169.045 241.126 173.236C236.936 177.426 236.936 184.22 241.126 188.41C245.317 192.601 252.111 192.601 256.301 188.41Z" fill="#3D4F5C"/>
<path d="M253.89 180.82C253.89 181.847 253.585 182.851 253.015 183.704C252.444 184.558 251.633 185.223 250.684 185.616C249.735 186.008 248.691 186.111 247.684 185.91C246.677 185.708 245.752 185.213 245.027 184.486C244.301 183.76 243.808 182.834 243.609 181.826C243.409 180.819 243.514 179.775 243.908 178.827C244.302 177.879 244.969 177.069 245.824 176.5C246.679 175.931 247.683 175.628 248.71 175.63C249.391 175.63 250.065 175.764 250.695 176.025C251.324 176.286 251.895 176.669 252.376 177.151C252.857 177.633 253.239 178.205 253.499 178.835C253.758 179.464 253.891 180.139 253.89 180.82Z" fill="#455A64"/>
<path d="M185.27 256.58L171.8 289.71L279.25 319.5C284.162 320.869 289.317 321.13 294.342 320.265C299.367 319.401 304.138 317.432 308.31 314.5C319.55 306.57 322.31 292.7 320.94 278.97L319 264.37L185.27 256.58Z" fill="#25AFF4"/>
<path d="M299.11 292.54C299 292.54 298.77 290.28 297.66 286.79C297.375 285.837 297.041 284.899 296.66 283.98C296.28 282.98 295.75 281.98 295.22 280.86C293.987 278.545 292.537 276.352 290.89 274.31C289.213 272.294 287.352 270.439 285.33 268.77C284.33 268.04 283.47 267.31 282.56 266.77C281.738 266.203 280.886 265.679 280.01 265.2C276.81 263.43 274.62 262.75 274.66 262.64C275.184 262.747 275.696 262.905 276.19 263.11C276.787 263.304 277.371 263.534 277.94 263.8C278.61 264.11 279.39 264.42 280.19 264.88C281.088 265.34 281.96 265.851 282.8 266.41C283.73 266.97 284.65 267.7 285.63 268.41C287.698 270.08 289.597 271.949 291.3 273.99C292.965 276.06 294.418 278.291 295.64 280.65C296.17 281.76 296.69 282.8 297.06 283.83C297.448 284.763 297.782 285.718 298.06 286.69C298.311 287.484 298.515 288.292 298.67 289.11C298.829 289.73 298.939 290.362 299 291C299.083 291.509 299.12 292.024 299.11 292.54Z" fill="#3D4F5C"/>
<g opacity="0.2">
<path opacity="0.2" d="M169.4 270.68C161.2 271.36 154.87 272.11 146.4 273.15C141.11 273.8 135.62 273.43 133.89 268.4C132.16 263.37 133.26 257.61 136.1 253.1C138.94 248.59 143.4 238.1 167.28 246.1L169.4 270.68Z" fill="#3D4F5C"/>
</g>
<path d="M180.46 269.23L180.52 269.01L180.75 268.35L181.65 265.83L185.1 256.52L185.15 256.39H185.28L221.83 259.7L257.19 263.06L267.9 264.13L270.81 264.45L271.56 264.55C271.649 264.552 271.737 264.569 271.82 264.6H271.56H270.8L267.88 264.38L257.15 263.46L221.78 260.26L185.25 256.79L185.43 256.67L181.83 265.93L180.83 268.41L180.56 269.05C180.51 269.17 180.47 269.24 180.46 269.23Z" fill="#3D4F5C"/>
<g opacity="0.2">
<path opacity="0.2" d="M224.67 303.4C239.93 307.49 249.21 305.12 263.07 297.54C265.909 295.875 268.635 294.025 271.23 292C273.206 290.384 274.964 288.519 276.46 286.45C258.61 293.28 243.78 298.45 225.38 303.59" fill="#3D4F5C"/>
</g>
<path d="M180.51 268.87L184 259.12L175.89 246.44C175.188 245.341 174.269 244.397 173.189 243.666C172.109 242.936 170.891 242.433 169.61 242.19L139.77 236.56C139.399 237.677 139.45 238.892 139.915 239.974C140.379 241.056 141.224 241.93 142.29 242.43C146.2 244.66 163.79 248.75 163.79 248.75L136.7 248.29C136.7 248.29 135.86 252.2 138.93 253.6C142 255 161.3 255.71 161.3 255.71L136.59 259.19C136.59 259.19 136.45 263.11 142.1 263.19C147.664 263.124 153.222 262.773 158.75 262.14C158.979 262.108 159.211 262.166 159.398 262.303C159.584 262.439 159.711 262.642 159.75 262.87C159.784 263.09 159.734 263.315 159.61 263.5C159.486 263.686 159.297 263.817 159.08 263.87L142.65 267.75C142.177 267.857 141.752 268.117 141.442 268.49C141.131 268.863 140.953 269.329 140.935 269.813C140.917 270.298 141.059 270.776 141.341 271.171C141.622 271.567 142.026 271.858 142.49 272C142.788 272.072 143.095 272.092 143.4 272.06C146.2 271.78 162.92 269.66 162.92 269.66L163.79 271.61L180.51 268.89" fill="#FFC6A6"/>
<path d="M168.24 265.86C168.013 265.322 167.702 264.822 167.32 264.38C166.878 263.929 166.337 263.586 165.74 263.38C165.002 263.154 164.229 263.07 163.46 263.13C161.8 263.25 160.3 263.73 159.18 263.87C158.575 264.017 157.945 264.017 157.34 263.87C157.922 263.705 158.513 263.575 159.11 263.48C160.523 263.062 161.968 262.761 163.43 262.58C164.27 262.514 165.114 262.623 165.91 262.9C166.558 263.151 167.134 263.556 167.59 264.08C167.83 264.305 168.013 264.584 168.126 264.893C168.239 265.202 168.278 265.533 168.24 265.86Z" fill="#FFC6A6"/>
<path d="M170.94 258.43C170.89 258.43 170.86 258.16 170.64 257.73C170.315 257.133 169.821 256.646 169.22 256.33C167.71 255.45 165.16 255.74 162.48 255.92C159.8 256.1 157.34 256.5 155.57 256.73C154.62 256.91 153.657 257.007 152.69 257.02C153.606 256.71 154.551 256.493 155.51 256.37C157.798 255.921 160.108 255.587 162.43 255.37C163.713 255.253 165.002 255.203 166.29 255.22C167.376 255.194 168.449 255.456 169.4 255.98C170.044 256.352 170.544 256.93 170.82 257.62C170.945 257.87 170.987 258.154 170.94 258.43Z" fill="#FFC6A6"/>
<path d="M173 254.11C172.977 253.317 172.761 252.541 172.37 251.85C171.924 251.127 171.306 250.525 170.57 250.1C169.638 249.612 168.618 249.313 167.57 249.22C165.33 249.01 163.23 249.22 161.7 249.1C160.869 249.099 160.049 248.9 159.31 248.52C159.31 248.44 160.23 248.71 161.72 248.74C163.21 248.77 165.28 248.49 167.63 248.74C168.748 248.833 169.831 249.174 170.8 249.74C171.596 250.225 172.245 250.916 172.68 251.74C172.982 252.284 173.137 252.898 173.13 253.52C173.11 253.89 173 254.11 173 254.11Z" fill="#FFC6A6"/>
<path d="M269.87 254.08C269.872 253.537 269.922 252.995 270.02 252.46C270.15 251.46 270.4 249.92 270.75 248.08C271.44 244.4 272.66 239.37 273.95 233.82C275.091 229.093 275.962 224.306 276.56 219.48C276.68 218.55 276.73 217.71 276.8 216.97C276.87 216.23 276.91 215.6 276.93 215.07C276.925 214.527 276.972 213.984 277.07 213.45C277.135 213.991 277.155 214.536 277.13 215.08C277.13 215.6 277.13 216.25 277.13 216.99C277.13 217.73 277.07 218.58 276.96 219.51C276.474 224.371 275.652 229.193 274.5 233.94C273.2 239.5 271.93 244.5 271.15 248.16C270.76 249.98 270.45 251.47 270.26 252.49C270.173 253.03 270.043 253.561 269.87 254.08Z" fill="#3D4F5C"/>
<path d="M280.24 319.68C280.039 319.676 279.841 319.643 279.65 319.58L277.99 319.21L271.91 317.71C266.78 316.42 259.71 314.55 251.91 312.39C244.11 310.23 237.12 308.16 232.07 306.61L226.07 304.75L224.45 304.21C224.293 304.157 224.142 304.086 224 304C224.198 304.013 224.393 304.054 224.58 304.12L226.23 304.56L232.23 306.27L252.11 311.9L272 317.36L278 319.01L279.64 319.48C279.847 319.525 280.048 319.592 280.24 319.68Z" fill="#3D4F5C"/>
<path d="M177.3 29.63C179.5 22.84 190.77 16.71 196.95 13.15C206.2 7.84 214.77 8.9 220.05 13.63C229.59 5.63 242.16 -2.07 254.21 1.08C266.26 4.23 276.05 16.57 273.85 28.84C272.56 36.07 267.55 42.55 267.85 49.84C268.05 54.84 270.7 59.36 272.85 63.9C275 68.44 276.58 73.72 274.7 78.36C272.95 82.67 268.58 85.36 266.23 89.36C264.31 92.64 263.87 96.54 262.64 100.13C258.1 113.43 242.4 120.89 228.54 118.55C214.68 116.21 203.13 105.78 196.54 93.34C189.95 80.9 187.83 66.62 187.07 52.59" fill="#3D4F5C"/>
<path d="M187.51 39L190.28 149.9C191.28 162.61 202.99 171.9 216.59 170.72C230.32 169.54 240.81 158.17 240.02 145.31C239.19 131.82 238.57 117.59 238.57 117.59C238.57 117.59 255.76 113.59 257.9 90.67C258.99 78.93 257.09 59.67 255.1 44.41C254.71 41.3676 253.708 38.4356 252.155 35.7904C250.603 33.1453 248.531 30.8416 246.064 29.018C243.598 27.1944 240.788 25.8886 237.804 25.1792C234.82 24.4698 231.723 24.3714 228.7 24.89" fill="#FFC6A6"/>
<path d="M250 60.8C250.059 61.5568 249.818 62.3064 249.33 62.8879C248.842 63.4694 248.146 63.8363 247.39 63.91C247.022 63.9648 246.647 63.9452 246.287 63.8525C245.927 63.7597 245.589 63.5957 245.294 63.37C244.998 63.1444 244.751 62.8617 244.566 62.5388C244.382 62.2158 244.264 61.8592 244.22 61.49C244.164 60.7326 244.405 59.9832 244.892 59.4007C245.38 58.8182 246.075 58.4485 246.83 58.37C247.198 58.3166 247.574 58.3376 247.934 58.4315C248.294 58.5254 248.632 58.6905 248.927 58.9169C249.223 59.1433 249.47 59.4266 249.654 59.75C249.838 60.0734 249.956 60.4304 250 60.8Z" fill="#3D4F5C"/>
<path d="M252.89 57.84C252.55 58.24 250.24 56.75 247.11 56.96C243.98 57.17 241.79 58.88 241.43 58.52C241.25 58.36 241.57 57.66 242.52 56.86C243.816 55.8321 245.398 55.2312 247.05 55.14C248.675 55.033 250.292 55.4425 251.67 56.31C252.68 57 253.05 57.65 252.89 57.84Z" fill="#3D4F5C"/>
<path d="M220 63.94C220.061 64.6985 219.822 65.4507 219.334 66.0343C218.846 66.618 218.147 66.9864 217.39 67.06C217.022 67.1133 216.646 67.0924 216.286 66.9985C215.926 66.9045 215.588 66.7395 215.293 66.513C214.998 66.2866 214.75 66.0033 214.566 65.6799C214.382 65.3565 214.264 64.9996 214.22 64.63C214.164 63.8726 214.405 63.1232 214.892 62.5407C215.38 61.9583 216.075 61.5885 216.83 61.51C217.198 61.4567 217.574 61.4776 217.934 61.5715C218.294 61.6654 218.632 61.8305 218.927 62.0569C219.223 62.2834 219.47 62.5666 219.654 62.89C219.838 63.2134 219.956 63.5704 220 63.94Z" fill="#3D4F5C"/>
<path d="M222.16 60.41C221.82 60.81 219.51 59.32 216.38 59.53C213.25 59.74 211.06 61.45 210.7 61.09C210.52 60.93 210.84 60.23 211.8 59.43C213.093 58.4041 214.672 57.8033 216.32 57.71C217.945 57.603 219.562 58.0125 220.94 58.88C222 59.56 222.32 60.22 222.16 60.41Z" fill="#3D4F5C"/>
<path d="M235 82.88C235 82.71 236.89 82.25 240 81.64C240.79 81.51 241.54 81.3 241.64 80.74C241.654 79.911 241.413 79.0977 240.95 78.41C240.08 76.52 239.16 74.55 238.2 72.48C234.36 64.02 231.52 57.05 231.86 56.9C232.2 56.75 235.59 63.48 239.44 71.9C240.36 73.98 241.25 75.97 242.09 77.9C242.661 78.8294 242.881 79.9325 242.71 81.01C242.612 81.2991 242.45 81.5621 242.235 81.7788C242.02 81.9954 241.758 82.16 241.47 82.26C241.038 82.4109 240.587 82.5017 240.13 82.53C237 82.92 235 83.06 235 82.88Z" fill="#3D4F5C"/>
<path d="M238.58 117.55C227.91 118.403 217.213 116.277 207.68 111.41C207.68 111.41 216.27 126.68 238.83 123.09L238.58 117.55Z" fill="#FFC6A6"/>
<path d="M222.18 48.09C221.92 48.96 218.77 48.76 215.13 49.44C211.49 50.12 208.58 51.31 208.04 50.58C207.8 50.23 208.27 49.39 209.41 48.49C210.933 47.3628 212.701 46.6124 214.57 46.3C216.437 45.956 218.358 46.0553 220.18 46.59C221.56 47.05 222.28 47.68 222.18 48.09Z" fill="#3D4F5C"/>
<path d="M251.15 48.85C250.65 49.6 248.44 49 245.85 49.13C243.26 49.26 241.09 49.92 240.54 49.21C240.29 48.86 240.54 48.13 241.54 47.39C242.777 46.5007 244.25 45.9992 245.772 45.9494C247.295 45.8995 248.798 46.3035 250.09 47.11C251 47.78 251.37 48.49 251.15 48.85Z" fill="#3D4F5C"/>
<path d="M230.16 88.77C232.61 88.77 233.83 89.49 235.91 90.77C236.536 91.1001 237.051 91.608 237.39 92.23C237.55 92.6769 237.605 93.1545 237.551 93.6261C237.498 94.0977 237.336 94.5506 237.08 94.95C236.569 95.8582 235.809 96.6014 234.889 97.0921C233.97 97.5829 232.929 97.8007 231.89 97.72C230.854 97.6112 229.878 97.1817 229.098 96.4915C228.319 95.8013 227.774 94.8848 227.54 93.87C227.346 92.8468 227.499 91.7883 227.973 90.8613C228.447 89.9342 229.217 89.1914 230.16 88.75" fill="#FFC6A6"/>
<path d="M238.47 94C238.47 94.24 237.69 94.6 236.32 94.52C234.588 94.3592 232.913 93.8125 231.42 92.92C229.914 92.0817 228.58 90.9653 227.49 89.63C226.68 88.63 226.43 87.75 226.64 87.63C227.05 87.36 229.11 89.52 232.35 91.3C233.69 92.0734 235.099 92.7195 236.56 93.23C237.68 93.61 238.44 93.74 238.47 94Z" fill="#3D4F5C"/>
<path d="M223.02 74.48C223.478 74.48 223.85 74.1084 223.85 73.65C223.85 73.1916 223.478 72.82 223.02 72.82C222.562 72.82 222.19 73.1916 222.19 73.65C222.19 74.1084 222.562 74.48 223.02 74.48Z" fill="#FFC6A6"/>
<path d="M247.35 69.58C247.35 69.7442 247.301 69.9046 247.21 70.0411C247.119 70.1776 246.989 70.284 246.838 70.3468C246.686 70.4096 246.519 70.4261 246.358 70.3941C246.197 70.362 246.049 70.283 245.933 70.1669C245.817 70.0508 245.738 69.9029 245.706 69.7419C245.674 69.5809 245.69 69.414 245.753 69.2624C245.816 69.1107 245.922 68.9811 246.059 68.8899C246.195 68.7987 246.356 68.75 246.52 68.75C246.74 68.75 246.951 68.8374 247.107 68.9931C247.263 69.1488 247.35 69.3599 247.35 69.58Z" fill="#FFC6A6"/>
<path d="M251.94 71.74C251.953 71.8573 251.941 71.976 251.905 72.0884C251.869 72.2008 251.809 72.3043 251.731 72.3922C251.652 72.4801 251.555 72.5504 251.448 72.5985C251.34 72.6466 251.223 72.6715 251.105 72.6715C250.987 72.6715 250.87 72.6466 250.763 72.5985C250.655 72.5504 250.558 72.4801 250.48 72.3922C250.401 72.3043 250.341 72.2008 250.305 72.0884C250.269 71.976 250.257 71.8573 250.27 71.74C250.293 71.5343 250.39 71.3441 250.544 71.206C250.698 71.0679 250.898 70.9915 251.105 70.9915C251.312 70.9915 251.512 71.0679 251.666 71.206C251.82 71.3441 251.917 71.5343 251.94 71.74Z" fill="#FFC6A6"/>
<path d="M253.33 68.27C253.33 68.4342 253.281 68.5946 253.19 68.7311C253.099 68.8676 252.969 68.974 252.818 69.0368C252.666 69.0996 252.499 69.1161 252.338 69.0841C252.177 69.052 252.029 68.973 251.913 68.8569C251.797 68.7408 251.718 68.5929 251.686 68.4319C251.654 68.2709 251.67 68.104 251.733 67.9524C251.796 67.8007 251.902 67.6711 252.039 67.5799C252.175 67.4887 252.336 67.44 252.5 67.44C252.72 67.44 252.931 67.5274 253.087 67.6831C253.243 67.8388 253.33 68.0499 253.33 68.27Z" fill="#FFC6A6"/>
<path d="M220.05 77.32C220.052 77.4865 220.004 77.6499 219.913 77.7894C219.822 77.9288 219.692 78.038 219.538 78.1031C219.385 78.1683 219.216 78.1863 219.052 78.1551C218.889 78.1238 218.738 78.0446 218.62 77.9275C218.501 77.8104 218.42 77.6608 218.387 77.4976C218.354 77.3344 218.37 77.165 218.433 77.0109C218.496 76.8568 218.604 76.725 218.742 76.6323C218.881 76.5395 219.043 76.49 219.21 76.49C219.431 76.49 219.643 76.5771 219.8 76.7325C219.958 76.8878 220.047 77.0989 220.05 77.32Z" fill="#FFC6A6"/>
<path d="M216.93 74C216.93 74.1641 216.881 74.3246 216.79 74.4611C216.699 74.5976 216.569 74.704 216.418 74.7668C216.266 74.8296 216.099 74.8461 215.938 74.814C215.777 74.782 215.629 74.703 215.513 74.5869C215.397 74.4708 215.318 74.3229 215.286 74.1619C215.254 74.0009 215.27 73.834 215.333 73.6824C215.396 73.5307 215.502 73.4011 215.639 73.3099C215.775 73.2187 215.936 73.17 216.1 73.17C216.32 73.17 216.531 73.2574 216.687 73.4131C216.843 73.5687 216.93 73.7799 216.93 74Z" fill="#FFC6A6"/>
<path d="M230.53 63.94C230.437 62.7609 230.253 61.5907 229.98 60.44C229.158 57.3125 227.304 54.5538 224.72 52.61C222.956 51.2699 220.9 50.3653 218.72 49.97C216.222 49.5128 213.646 49.7303 211.26 50.6C209.974 51.0589 208.767 51.7133 207.68 52.54C206.529 53.3769 205.517 54.3892 204.68 55.54C202.894 57.9708 201.93 60.9085 201.93 63.925C201.93 66.9415 202.894 69.8792 204.68 72.31C206.337 74.5846 208.625 76.323 211.26 77.31C213.646 78.1797 216.222 78.3972 218.72 77.94C220.9 77.5446 222.956 76.6401 224.72 75.3C227.301 73.3576 229.154 70.6032 229.98 67.48C230.252 66.3289 230.436 65.1589 230.53 63.98C230.545 64.0559 230.545 64.134 230.53 64.21V64.9C230.53 65.2751 230.499 65.6496 230.44 66.02C230.389 66.5262 230.299 67.0278 230.17 67.52C229.855 68.8928 229.328 70.2084 228.61 71.42C226.893 74.3594 224.199 76.6037 220.998 77.7621C217.797 78.9205 214.291 78.9198 211.09 77.76C209.756 77.2853 208.502 76.6109 207.37 75.76C206.173 74.8976 205.122 73.8474 204.26 72.65C202.397 70.1377 201.391 67.0928 201.391 63.965C201.391 60.8372 202.397 57.7923 204.26 55.28C205.122 54.0826 206.173 53.0324 207.37 52.17C208.502 51.319 209.756 50.6447 211.09 50.17C213.557 49.2848 216.216 49.0776 218.79 49.57C220.825 49.9644 222.753 50.7871 224.447 51.9836C226.14 53.1802 227.559 54.7231 228.61 56.51C229.327 57.7223 229.853 59.0377 230.17 60.41C230.3 60.9054 230.39 61.4103 230.44 61.92C230.5 62.287 230.53 62.6582 230.53 63.03V63.72C230.543 63.7928 230.543 63.8672 230.53 63.94Z" fill="white"/>
<path d="M236.8 59.57C235.687 59.2638 234.534 59.1289 233.38 59.17C232.242 59.3758 231.141 59.7464 230.11 60.27C230.11 60.27 230.32 59.89 230.88 59.51C231.615 59.0358 232.45 58.7412 233.32 58.65C234.195 58.5509 235.081 58.6676 235.9 58.99C236.52 59.24 236.83 59.51 236.8 59.57Z" fill="white"/>
<path d="M227.66 21.65C225.66 39.72 212.22 55.99 194.88 61.47C200.47 69.53 196.95 84.87 197.09 97.67C197.23 109.57 197.22 112.97 189.51 119.04C183.14 120.57 179.51 103.12 174.73 98.24C169.95 93.36 165.46 87.35 165.81 80.57C165.98 77.39 167.22 74.35 167.39 71.18C167.59 67.66 166.46 64.18 165.84 60.75C163.08 45.4 171 28.89 184.41 20.86C197.82 12.83 215.63 13.37 228.9 21.58" fill="#3D4F5C"/>
<path d="M189.39 95.94C187.728 90.1028 184.871 84.6746 181 80L181.29 80.62C180.094 77.8929 178.294 75.4737 176.024 73.5453C173.755 71.617 171.077 70.2302 168.193 69.4898C165.309 68.7494 162.294 68.6749 159.377 69.2719C156.46 69.8689 153.716 71.1218 151.355 72.9357C148.993 74.7496 147.075 77.077 145.746 79.7417C144.417 82.4063 143.712 85.3385 143.683 88.3161C143.655 91.2937 144.304 94.2387 145.582 96.9283C146.86 99.6178 148.733 101.981 151.06 103.84C148.81 103.34 146.53 105.28 146.06 107.53C145.886 108.675 145.945 109.843 146.236 110.963C146.526 112.084 147.041 113.134 147.75 114.05C152.44 120.91 163.07 122.72 169.75 117.8C175.05 121.39 182.88 119.3 186.81 114.25C190.74 109.2 191.2 102.08 189.39 95.94Z" fill="#3D4F5C"/>
<path d="M167.92 69.47C167.712 69.2738 167.521 69.0596 167.35 68.83C166.885 68.1606 166.546 67.4115 166.35 66.62C165.74 64.55 166.03 61.28 167.67 57.82C168.561 55.9257 169.788 54.2081 171.29 52.75C172.935 51.0196 174.759 49.4676 176.73 48.12C178.911 46.6176 181.29 45.4262 183.8 44.58C186.39 43.69 189.14 43 191.94 42.3C194.74 41.6 197.48 40.91 200.04 40.01C202.508 39.1595 204.905 38.1163 207.21 36.89C211.108 34.8145 214.733 32.2615 218 29.29C220.202 27.2766 222.236 25.0859 224.08 22.74C224.74 21.91 225.22 21.24 225.55 20.74C225.706 20.5042 225.883 20.2832 226.08 20.08C225.95 20.3299 225.803 20.5705 225.64 20.8C225.33 21.27 224.88 21.96 224.24 22.8C222.447 25.2102 220.438 27.4527 218.24 29.5C214.97 32.535 211.327 35.1426 207.4 37.26C205.077 38.5048 202.659 39.5647 200.17 40.43C197.58 41.34 194.83 42.04 192.03 42.75C189.23 43.46 186.49 44.13 183.92 45C181.44 45.825 179.085 46.9858 176.92 48.45C174.972 49.7781 173.163 51.2991 171.52 52.99C170.056 54.436 168.864 56.1329 168 58C166.35 61.37 166 64.56 166.55 66.59C166.805 67.6336 167.271 68.6139 167.92 69.47Z" fill="#455A64"/>
<path d="M226.06 20.13C225.917 20.3305 225.76 20.521 225.59 20.7C225.27 21.07 224.78 21.59 224.15 22.26C222.336 24.1266 220.409 25.8799 218.38 27.51C215.379 29.9769 212.038 31.9977 208.46 33.51C206.311 34.3039 204.096 34.903 201.84 35.3C199.51 35.77 197.08 36.13 194.6 36.51C189.928 37.0685 185.313 38.0355 180.81 39.4C177.156 40.5926 173.763 42.4693 170.81 44.93C168.825 46.5942 167.187 48.633 165.99 50.93C165.678 51.5611 165.401 52.2087 165.16 52.87C165.089 53.1069 164.992 53.335 164.87 53.55C164.917 53.3092 164.98 53.0719 165.06 52.84C165.26 52.1555 165.51 51.487 165.81 50.84C166.954 48.4742 168.575 46.3702 170.57 44.66C173.525 42.1245 176.945 40.1885 180.64 38.96C185.161 37.5476 189.8 36.5435 194.5 35.96C196.99 35.59 199.41 35.22 201.72 34.77C203.95 34.3838 206.142 33.8016 208.27 33.03C211.813 31.5576 215.132 29.5951 218.13 27.2C220.176 25.6092 222.135 23.9101 224 22.11L225.51 20.63C225.676 20.4453 225.86 20.2777 226.06 20.13Z" fill="#455A64"/>
<path d="M251.45 0.349994C251.45 0.459994 249.5 0.529994 246.45 1.34999C245.623 1.56527 244.809 1.82566 244.01 2.13C243.14 2.42 242.26 2.85 241.31 3.27C237.266 5.22306 233.706 8.05137 230.89 11.55C230.27 12.38 229.65 13.14 229.17 13.93C228.692 14.6342 228.254 15.3654 227.86 16.12C226.39 18.88 225.86 20.78 225.78 20.74C225.846 20.2892 225.96 19.8468 226.12 19.42C226.264 18.9012 226.444 18.3933 226.66 17.9C226.914 17.2166 227.208 16.5487 227.54 15.9C227.913 15.1195 228.337 14.3646 228.81 13.64C229.28 12.84 229.89 12.05 230.51 11.2C231.941 9.42678 233.553 7.80797 235.32 6.36999C237.117 4.97419 239.058 3.77407 241.11 2.79C242.008 2.3678 242.93 1.9972 243.87 1.68C245.358 1.15806 246.891 0.776397 248.45 0.539997C248.978 0.437636 249.513 0.374129 250.05 0.349994C250.515 0.295363 250.985 0.295363 251.45 0.349994Z" fill="#455A64"/>
<path d="M267.56 86.69C267.56 86.69 267.56 86.62 267.71 86.49L268.18 85.94C268.6 85.45 269.23 84.74 269.94 83.75C270.834 82.5833 271.511 81.2658 271.94 79.86C272.184 78.9854 272.255 78.0718 272.15 77.17C272.008 76.1632 271.668 75.1945 271.15 74.32C270.07 72.45 268.3 70.82 266.68 68.8C263.037 64.2417 260.698 58.7816 259.91 53C259.588 49.7604 259.508 46.5014 259.67 43.25C259.831 40.0273 259.531 36.798 258.78 33.66C257.981 30.9232 256.598 28.3922 254.726 26.2412C252.855 24.0902 250.54 22.3703 247.94 21.2C245.784 20.2337 243.461 19.697 241.1 19.62C236.706 19.4426 232.376 20.7184 228.78 23.25L228.18 23.67C228.05 23.76 227.98 23.81 227.97 23.8C228.905 22.9381 229.951 22.2049 231.08 21.62C234.15 19.9724 237.597 19.1555 241.08 19.25C243.492 19.3093 245.869 19.8357 248.08 20.8C250.755 21.9813 253.139 23.7326 255.067 25.9314C256.995 28.1302 258.419 30.7235 259.24 33.53C260.005 36.7135 260.311 39.9899 260.15 43.26C259.989 46.4879 260.066 49.7233 260.38 52.94C261.141 58.6385 263.428 64.0253 267 68.53C268.58 70.53 270.36 72.19 271.46 74.14C271.993 75.062 272.333 76.0826 272.46 77.14C272.56 78.0846 272.471 79.0397 272.2 79.95C271.74 81.3807 271.018 82.7134 270.07 83.88C269.498 84.6278 268.884 85.3423 268.23 86.02L267.71 86.54C267.666 86.5959 267.616 86.6463 267.56 86.69Z" fill="#455A64"/>
<path d="M265.24 60.41C265.146 59.231 264.963 58.0609 264.69 56.91C263.868 53.7825 262.014 51.0238 259.43 49.08C257.531 47.6514 255.305 46.7202 252.954 46.3709C250.603 46.0216 248.203 46.2654 245.97 47.08C243.335 48.0669 241.047 49.8054 239.39 52.08C237.603 54.5086 236.639 57.4448 236.639 60.46C236.639 63.4751 237.603 66.4114 239.39 68.84C240.222 69.9948 241.235 71.0079 242.39 71.84C243.479 72.66 244.686 73.3107 245.97 73.77C247.841 74.4496 249.832 74.7313 251.818 74.597C253.804 74.4628 255.739 73.9155 257.501 72.9902C259.263 72.065 260.813 70.7821 262.051 69.2237C263.289 67.6653 264.188 65.8657 264.69 63.94C264.963 62.7891 265.146 61.619 265.24 60.44C265.255 60.5193 265.255 60.6007 265.24 60.68C265.24 60.86 265.24 61.09 265.24 61.36C265.24 61.7351 265.21 62.1097 265.15 62.48C265.098 62.9894 265.008 63.4942 264.88 63.99C264.563 65.3622 264.037 66.6776 263.32 67.89C262.374 69.5016 261.128 70.9171 259.65 72.06C257.71 73.5563 255.423 74.5388 253.002 74.9164C250.581 75.294 248.104 75.0544 245.8 74.22C244.464 73.7505 243.209 73.0757 242.08 72.22C240.885 71.3506 239.836 70.2976 238.97 69.1C237.106 66.5898 236.1 63.5464 236.1 60.42C236.1 57.2935 237.106 54.2501 238.97 51.74C239.832 50.5426 240.883 49.4924 242.08 48.63C243.212 47.779 244.466 47.1047 245.8 46.63C248.266 45.742 250.925 45.5313 253.5 46.02C255.541 46.4188 257.474 47.2497 259.168 48.4571C260.861 49.6645 262.277 51.2202 263.32 53.02C264.038 54.2281 264.564 55.5404 264.88 56.91C265.008 57.4058 265.098 57.9105 265.15 58.42C265.21 58.7903 265.24 59.1648 265.24 59.54C265.24 59.81 265.24 60.04 265.24 60.23C265.249 60.2896 265.249 60.3503 265.24 60.41Z" fill="white"/>
<path d="M189.37 119.41C189.193 119.322 189.028 119.211 188.88 119.08C188.57 118.85 188.13 118.5 187.55 118.08C185.933 116.785 184.416 115.371 183.01 113.85C180.84 111.605 179.356 108.789 178.73 105.73C178.523 103.925 178.442 102.107 178.49 100.29C178.524 98.3867 177.98 96.5178 176.93 94.93C175.753 93.405 174.445 91.9862 173.02 90.69C171.699 89.4104 170.609 87.9116 169.8 86.26C169.084 84.7655 168.56 83.1863 168.24 81.56C167.939 80.1505 167.802 78.711 167.83 77.27C167.83 75.94 168.14 74.78 168.26 73.76C168.377 72.8883 168.397 72.0062 168.32 71.13C168.15 69.69 167.87 68.92 167.92 68.9C168.012 69.0753 168.086 69.2596 168.14 69.45C168.307 69.99 168.434 70.5415 168.52 71.1C168.628 71.9935 168.628 72.8966 168.52 73.79C168.43 74.79 168.19 75.99 168.16 77.28C168.175 80.3147 168.858 83.3088 170.16 86.05C170.956 87.6474 172.021 89.0953 173.31 90.33C174.771 91.639 176.11 93.0783 177.31 94.63C177.891 95.4654 178.321 96.3962 178.58 97.38C178.809 98.3268 178.933 99.296 178.95 100.27C178.901 102.066 178.971 103.863 179.16 105.65C179.74 108.645 181.151 111.417 183.23 113.65C184.603 115.183 186.076 116.622 187.64 117.96L189 119C189.136 119.124 189.26 119.262 189.37 119.41Z" fill="#455A64"/>
<path d="M178 96.12C178.017 96.2561 178.017 96.3939 178 96.53C178 96.8 178 97.19 177.92 97.7C177.751 99.1373 177.415 100.55 176.92 101.91C175.34 106.474 172.203 110.336 168.059 112.818C163.915 115.299 159.03 116.242 154.26 115.48C152.831 115.264 151.432 114.885 150.09 114.35C149.61 114.17 149.26 113.97 149.02 113.86C148.78 113.75 148.66 113.67 148.67 113.65C150.497 114.325 152.386 114.817 154.31 115.12C156.401 115.39 158.52 115.353 160.6 115.01C165.751 114.221 170.389 111.446 173.52 107.28C174.802 105.609 175.833 103.759 176.58 101.79C177.232 99.9493 177.708 98.0508 178 96.12Z" fill="#455A64"/>
<path d="M174.15 91.42C174.108 91.8866 174.011 92.3465 173.86 92.79C173.506 94.016 173.033 95.2049 172.45 96.34C170.504 100.109 167.556 103.268 163.93 105.47C160.295 107.647 156.165 108.859 151.93 108.99C150.657 109.029 149.382 108.962 148.12 108.79C147.654 108.748 147.195 108.654 146.75 108.51C148.47 108.634 150.196 108.67 151.92 108.62C156.071 108.391 160.103 107.155 163.67 105.02C167.217 102.858 170.134 99.8031 172.13 96.16C172.906 94.6259 173.581 93.0425 174.15 91.42Z" fill="#455A64"/>
<path d="M144.9 81.46C145.175 81.2459 145.477 81.0709 145.8 80.94C146.158 80.7472 146.529 80.5801 146.91 80.44C147.409 80.2308 147.92 80.0505 148.44 79.9C149.786 79.4958 151.17 79.2278 152.57 79.1C154.285 78.9503 156.012 78.9838 157.72 79.2C159.426 79.4407 161.102 79.8597 162.72 80.45C164.034 80.9546 165.294 81.5912 166.48 82.35C166.935 82.6364 167.373 82.9503 167.79 83.29C168.121 83.5273 168.432 83.7915 168.72 84.08C168.987 84.3037 169.225 84.5589 169.43 84.84C169.36 84.92 168.31 83.84 166.28 82.66C165.093 81.9607 163.844 81.3715 162.55 80.9C160.957 80.355 159.317 79.96 157.65 79.72C155.992 79.5117 154.318 79.4614 152.65 79.57C151.275 79.6768 149.913 79.9078 148.58 80.26C146.26 80.86 145 81.55 144.9 81.46Z" fill="#455A64"/>
<path d="M167.92 79.61C167.83 79.72 161.52 74.36 153.84 67.61C146.16 60.86 140 55.37 140.09 55.26C140.18 55.15 146.49 60.52 154.18 67.26C161.87 74 168 79.51 167.92 79.61Z" fill="#25AFF4"/>
<path d="M196.73 68.66C197.207 67.7235 197.917 66.9249 198.79 66.34C199.552 65.6136 200.489 65.0969 201.51 64.84C200.764 65.5392 199.962 66.1747 199.11 66.74C198.367 67.4404 197.572 68.0823 196.73 68.66Z" fill="white"/>
<path d="M168.65 74.29C168.6 74.2277 168.557 74.1607 168.52 74.09C168.43 73.92 168.32 73.72 168.18 73.48C167.792 72.671 167.529 71.8078 167.4 70.92C167.03 67.5941 167.978 64.2557 170.04 61.62C170.691 60.7361 171.439 59.9277 172.27 59.21C173.181 58.447 174.166 57.777 175.21 57.21C177.528 55.9958 180.016 55.1395 182.59 54.67C188 53.54 194.09 53.81 200.29 52.89C203.324 52.4888 206.268 51.5794 209 50.2C211.496 48.8432 213.752 47.0866 215.68 45C218.952 41.4459 221.572 37.3432 223.42 32.88C225.06 29.09 226.09 25.88 226.84 23.72L227.69 21.19L227.92 20.54C227.943 20.4642 227.974 20.3906 228.01 20.32C228.01 20.32 228.01 20.4 228.01 20.55L227.83 21.22L227 23.82C226.074 26.9556 224.982 30.0399 223.73 33.06C221.91 37.5924 219.292 41.7617 216 45.37C214.034 47.4944 211.729 49.2785 209.18 50.65C206.411 52.0646 203.422 52.9979 200.34 53.41C194.06 54.35 188 54.05 182.65 55.15C177.3 56.25 172.71 58.48 170.3 61.84C168.277 64.3825 167.304 67.6027 167.58 70.84C167.753 72.0392 168.114 73.2036 168.65 74.29Z" fill="#FAFAFA"/>
<path d="M175 114C174.791 115.383 174.387 116.73 173.8 118C173.124 119.527 172.246 120.957 171.19 122.25C169.789 123.978 168.072 125.424 166.13 126.51C163.752 127.799 161.095 128.485 158.39 128.51C155.268 128.582 152.201 127.684 149.61 125.94C146.761 123.968 144.699 121.054 143.79 117.71C143.304 115.949 143.202 114.104 143.49 112.3C143.807 110.443 144.52 108.677 145.58 107.12C147.309 104.497 149.961 102.619 153.01 101.86V102.36C149.917 101.882 146.979 100.686 144.43 98.87C142.067 97.2032 140.184 94.9443 138.97 92.32C137.902 89.9615 137.444 87.3719 137.64 84.79C137.805 82.5591 138.554 80.4108 139.81 78.56C140.867 77.058 142.23 75.7969 143.81 74.86C144.984 74.1669 146.265 73.6735 147.6 73.4C148.436 73.2342 149.289 73.1704 150.14 73.21L150.79 73.28C150.863 73.2691 150.937 73.2691 151.01 73.28C149.877 73.2214 148.741 73.3088 147.63 73.54C146.329 73.8376 145.085 74.3478 143.95 75.05C142.435 75.9895 141.133 77.2364 140.13 78.71C138.928 80.5195 138.221 82.6123 138.08 84.78C137.913 87.2902 138.373 89.8024 139.42 92.09C140.614 94.6318 142.451 96.8173 144.75 98.43C147.246 100.188 150.114 101.348 153.13 101.82L154.42 102.02L153.15 102.32C150.225 103.052 147.683 104.859 146.03 107.38C145.011 108.883 144.329 110.589 144.03 112.38C143.756 114.114 143.851 115.886 144.31 117.58C145.177 120.825 147.164 123.659 149.92 125.58C152.426 127.278 155.394 128.161 158.42 128.11C161.061 128.1 163.66 127.445 165.99 126.2C167.901 125.157 169.597 123.763 170.99 122.09C172.051 120.827 172.945 119.432 173.65 117.94C174.087 116.994 174.458 116.018 174.76 115.02C174.85 114.7 174.92 114.44 174.97 114.23L175 114Z" fill="#3D4F5C"/>
<path d="M169.11 70.75C169.025 70.7251 168.944 70.688 168.87 70.64L168.17 70.27C167.295 69.7687 166.462 69.1968 165.68 68.56C162.775 66.1872 160.558 63.0795 159.26 59.56C157.754 55.3881 157.621 50.844 158.88 46.5911C160.139 42.3382 162.725 38.5992 166.26 35.92C169.089 33.8355 172.269 32.2773 175.65 31.32C179.03 30.3656 182.498 29.7526 186 29.49C189.36 29.17 192.6 29.02 195.68 28.81C198.595 28.6266 201.499 28.2928 204.38 27.81C206.882 27.3799 209.336 26.7102 211.71 25.81C215.156 24.5388 218.296 22.5596 220.93 20C221.623 19.2803 222.268 18.5153 222.86 17.71L223.32 17.08C223.367 17.003 223.425 16.9325 223.49 16.87C222.832 18.0624 222.018 19.162 221.07 20.14C218.456 22.7896 215.296 24.8372 211.81 26.14C209.42 27.0691 206.945 27.7624 204.42 28.21C201.526 28.6972 198.609 29.031 195.68 29.21C189.53 29.7 182.68 29.75 175.83 31.78C172.511 32.7224 169.386 34.246 166.6 36.28C163.135 38.896 160.591 42.5444 159.333 46.6994C158.075 50.8544 158.168 55.3016 159.6 59.4C160.854 62.8626 162.992 65.9375 165.8 68.32C166.562 68.9718 167.371 69.5668 168.22 70.1L168.88 70.51C168.967 70.5792 169.045 70.66 169.11 70.75Z" fill="#3D4F5C"/>
<path d="M280.55 56C280.435 56.1369 280.293 56.2484 280.133 56.3276C279.973 56.4068 279.798 56.4519 279.62 56.46C279.101 56.4701 278.59 56.324 278.155 56.0404C277.72 55.7569 277.38 55.3491 277.18 54.87C277.026 54.5222 276.958 54.1424 276.983 53.7628C277.007 53.3832 277.123 53.0152 277.32 52.69C277.782 51.9212 278.485 51.327 279.32 51C280.339 50.6314 281.436 50.5298 282.505 50.7049C283.575 50.8799 284.582 51.3258 285.43 52C286.453 52.7381 287.241 53.7554 287.7 54.93C288.185 56.2066 288.283 57.5982 287.98 58.93C287.673 60.3736 286.892 61.6728 285.76 62.62C284.561 63.6132 283.097 64.2321 281.55 64.4C279.899 64.5197 278.242 64.2674 276.702 63.6617C275.162 63.0559 273.777 62.1122 272.65 60.9C271.408 59.6715 270.437 58.1965 269.8 56.57C269.149 54.8794 268.976 53.0423 269.3 51.26C269.646 49.5172 270.189 47.8196 270.92 46.2C271.59 44.6 272.21 43.02 272.73 41.44C273.77 38.4046 274.441 35.2554 274.73 32.06C274.998 29.177 274.823 26.2699 274.21 23.44C273.664 20.9618 272.7 18.5946 271.36 16.44C269.429 13.306 266.657 10.7768 263.36 9.13998C262.459 8.73123 261.526 8.39679 260.57 8.13998L259.81 7.94999C259.723 7.93252 259.638 7.90219 259.56 7.85999H259.82L260.59 7.99998C261.572 8.22325 262.53 8.54141 263.45 8.94999C266.821 10.5513 269.663 13.0844 271.64 16.25C273.031 18.3955 274.046 20.7629 274.64 23.25C275.284 26.1226 275.479 29.0775 275.22 32.01C274.938 35.2457 274.267 38.4355 273.22 41.51C272.7 43.11 272.07 44.71 271.4 46.3C270.691 47.9033 270.161 49.5802 269.82 51.3C269.521 52.9793 269.687 54.7082 270.3 56.3C270.904 57.8648 271.835 59.2829 273.03 60.46C274.1 61.6206 275.416 62.5273 276.881 63.1138C278.347 63.7004 279.925 63.9519 281.5 63.85C282.967 63.7003 284.358 63.1231 285.5 62.19C286.564 61.3138 287.303 60.1061 287.6 58.76C287.893 57.5045 287.813 56.1907 287.37 54.98C286.939 53.8696 286.204 52.9027 285.25 52.19C284.453 51.5425 283.503 51.1106 282.491 50.9355C281.479 50.7604 280.438 50.848 279.47 51.19C278.686 51.4792 278.021 52.021 277.58 52.73C277.389 53.0235 277.274 53.3591 277.242 53.7077C277.211 54.0562 277.265 54.4071 277.4 54.73C277.582 55.1814 277.891 55.5697 278.291 55.847C278.691 56.1242 279.164 56.2782 279.65 56.29C279.97 56.2753 280.281 56.1751 280.55 56Z" fill="#3D4F5C"/>
<g opacity="0.2">
<path opacity="0.2" d="M274.17 282.32C279.03 280.95 284.07 285.32 289 284.19C292 283.49 294.26 280.81 295.62 278C296.98 275.19 297.71 272.09 299.15 269.31C300.59 266.53 302.99 263.98 306.09 263.55C308.93 263.17 312.3 264.5 314.41 262.55C316.04 261.05 315.82 258.27 314.52 256.48C313.22 254.69 311.16 253.64 309.17 252.66C306.987 251.468 304.667 250.548 302.26 249.92C299.829 249.301 297.255 249.6 295.03 250.76C290.87 253.18 290.03 258.67 288.82 263.33C288.082 266.608 286.694 269.706 284.74 272.44C282.755 275.182 279.815 277.08 276.5 277.76C275.223 277.806 273.972 278.127 272.83 278.7C271.78 279.42 271.37 281.22 272.46 281.89" fill="#3D4F5C"/>
</g>
<path d="M248.84 264.35L267.06 258L283.39 232.47C284.187 231.225 285.229 230.155 286.453 229.326C287.677 228.497 289.058 227.927 290.51 227.65L319.8 222.12C320.172 223.236 320.122 224.45 319.659 225.531C319.197 226.613 318.354 227.488 317.29 227.99C313.38 230.22 295.79 234.32 295.79 234.32L322.88 233.86C322.88 233.86 323.71 237.77 320.64 239.17C317.57 240.57 298.27 241.27 298.27 241.27L323 244.79C323 244.79 323.14 248.72 317.49 248.79C311.927 248.739 306.369 248.406 300.84 247.79C300.611 247.755 300.377 247.813 300.19 247.949C300.003 248.086 299.877 248.291 299.84 248.52C299.804 248.741 299.853 248.967 299.977 249.152C300.102 249.338 300.292 249.47 300.51 249.52L316.94 253.4C317.414 253.505 317.839 253.765 318.151 254.137C318.462 254.51 318.641 254.975 318.66 255.46C318.68 255.945 318.538 256.422 318.258 256.819C317.977 257.215 317.574 257.507 317.11 257.65C316.81 257.726 316.498 257.747 316.19 257.71C313.4 257.43 296.67 255.31 296.67 255.31C296.67 255.31 290.77 275.99 286.95 277.66C283.13 279.33 275.12 279.79 275.12 279.79L258.12 286.52L248.84 264.35Z" fill="#FFC6A6"/>
<path d="M321 233.78C320.533 233.879 320.057 233.926 319.58 233.92L315.7 234.11C312.43 234.25 307.9 234.41 302.91 234.54L295.86 234.72C293.963 234.641 292.068 234.912 290.27 235.52C289.086 235.986 288.081 236.816 287.4 237.89C287.181 238.303 286.991 238.731 286.83 239.17C286.81 239.048 286.81 238.923 286.83 238.8C286.907 238.453 287.028 238.117 287.19 237.8C287.841 236.63 288.866 235.711 290.1 235.19C291.929 234.512 293.871 234.193 295.82 234.25L302.82 234.03C307.82 233.9 312.35 233.8 315.62 233.75H319.5C320 233.718 320.502 233.728 321 233.78Z" fill="#FFC6A6"/>
<path d="M321.41 244.86C320.971 244.877 320.532 244.847 320.1 244.77L316.56 244.32C313.56 243.93 309.44 243.32 304.89 242.66C302.62 242.34 300.45 241.93 298.49 241.76C296.771 241.553 295.029 241.866 293.49 242.66C292.464 243.23 291.579 244.023 290.9 244.98C290.42 245.66 290.23 246.09 290.19 246.07C290.206 245.955 290.24 245.844 290.29 245.74C290.412 245.435 290.559 245.141 290.73 244.86C291.373 243.824 292.259 242.959 293.31 242.34C294.898 241.454 296.722 241.084 298.53 241.28C300.53 241.43 302.7 241.83 304.98 242.14C309.53 242.82 313.65 243.47 316.62 243.96L320.14 244.57C320.572 244.625 320.997 244.722 321.41 244.86Z" fill="#FFC6A6"/>
<path d="M307.66 251.15C306.693 251.013 305.737 250.806 304.8 250.53C303.04 250.1 300.62 249.46 297.94 248.91C297.302 248.761 296.654 248.664 296 248.62C295.415 248.643 294.844 248.811 294.34 249.11C293.445 249.605 292.691 250.321 292.15 251.19C291.702 252.038 291.408 252.959 291.28 253.91C291.196 253.652 291.176 253.378 291.22 253.11C291.272 252.376 291.477 251.661 291.82 251.01C292.357 250.045 293.145 249.244 294.1 248.69C294.674 248.348 295.323 248.149 295.99 248.11C296.68 248.147 297.365 248.241 298.04 248.39C300.76 248.96 303.16 249.65 304.89 250.17C305.844 250.404 306.772 250.732 307.66 251.15Z" fill="#FFC6A6"/>
<path d="M113.59 278.08L168.24 271.36L264.09 255.78L276.46 286.87C240.46 299.35 203.52 310.61 167.28 320.51C164.318 321.101 161.299 321.356 158.28 321.27C146.18 321.32 116.34 316.46 113.59 278.08Z" fill="#25AFF4"/>
<path d="M276.46 286.87C276.367 286.691 276.283 286.508 276.21 286.32C276.04 285.93 275.82 285.39 275.52 284.69C274.93 283.23 274.07 281.13 272.98 278.45L263.89 255.85L264.12 255.98L217.55 263.76C206.55 265.65 196 266.88 186.44 268.15C181.65 268.78 177.11 269.41 172.88 270.15C170.76 270.49 168.72 270.823 166.76 271.15C164.882 271.451 163.022 271.858 161.19 272.37C155.671 274.109 151.023 277.885 148.19 282.93C147.414 284.287 146.774 285.717 146.28 287.2C146.11 287.71 146 288.11 145.93 288.37C145.896 288.507 145.849 288.641 145.79 288.77C145.883 288.228 146.013 287.694 146.18 287.17C146.635 285.663 147.249 284.208 148.01 282.83C149.212 280.641 150.759 278.659 152.59 276.96C155.041 274.719 157.947 273.034 161.11 272.02C162.955 271.495 164.828 271.071 166.72 270.75C168.72 270.39 170.72 270.02 172.84 269.67C177.08 268.97 181.62 268.31 186.4 267.67C195.97 266.38 206.51 265.14 217.49 263.24L264.08 255.57H264.25L264.31 255.73C268.03 265.17 271.09 272.95 273.23 278.39L275.67 284.67C275.94 285.38 276.14 285.93 276.3 286.32C276.46 286.71 276.46 286.87 276.46 286.87Z" fill="#3D4F5C"/>
<path d="M143 319.62C143.149 319.636 143.297 319.666 143.44 319.71L144.71 320.02C145.83 320.26 147.48 320.64 149.64 320.9C155.742 321.652 161.928 321.354 167.93 320.02C169.83 319.62 171.79 319.08 173.84 318.5L180.22 316.7L194.22 312.7C204.11 309.82 214.96 306.59 226.31 303.06C245.31 297.16 262.77 291.38 276.31 286.71L276.19 286.98C272.45 277.48 269.38 269.71 267.25 264.28C266.2 261.59 265.39 259.48 264.82 258.02C264.55 257.32 264.35 256.78 264.2 256.38C264.05 255.98 264.01 255.82 264.01 255.82C264.01 255.82 264.1 256 264.26 256.36C264.42 256.72 264.64 257.29 264.93 257.98L267.46 264.19L276.57 286.83L276.65 287.03L276.45 287.1C262.89 291.84 245.45 297.65 226.45 303.56C215.1 307.09 204.24 310.31 194.34 313.17L180.26 317.17L173.87 318.93C171.87 319.5 169.87 320.04 167.94 320.43C161.895 321.739 155.669 321.986 149.54 321.16C147.316 320.858 145.125 320.343 143 319.62Z" fill="#3D4F5C"/>
<path d="M164.18 271.36C163.732 271.478 163.273 271.549 162.81 271.57L159.06 271.94L146.7 273.15L134.34 274.47L130.59 274.86C130.134 274.938 129.672 274.965 129.21 274.94C129.655 274.809 130.11 274.715 130.57 274.66C131.45 274.52 132.72 274.33 134.3 274.11C137.45 273.67 141.81 273.11 146.64 272.64C151.47 272.17 155.86 271.79 159.03 271.58C160.62 271.47 161.91 271.4 162.8 271.36C163.259 271.321 163.721 271.321 164.18 271.36Z" fill="#3D4F5C"/>
<path d="M359.58 90.6C358.58 82.67 351.89 75.28 343.9 75.28C339.19 75.28 334.7 77.74 331.48 81.19C330.335 82.3498 329.282 83.5969 328.33 84.92C327.653 83.4355 326.864 82.0047 325.97 80.64C323.49 76.64 319.58 73.33 314.97 72.4C307.13 70.84 299.11 76.76 296.58 84.34C294.05 91.92 296.16 100.42 300.31 107.24C304.46 114.06 311.61 122.99 324.78 127.41C333.85 126.25 346.01 118.2 351.42 112.32C356.83 106.44 360.56 98.53 359.58 90.6Z" fill="#25AFF4"/>
<path d="M356.7 104.83H356.44L355.67 104.78L352.67 104.53L341.81 103.53L342 103.41L337.48 115.21L337.2 115.92L337.02 115.18C335.65 109.45 334.1 103.04 332.47 96.28L331 90.13L331.46 90.2299L323.17 101.63L323.09 101.73H323L303.91 99.7299L298.51 99.13L297.08 98.95L296.59 98.86C296.756 98.8445 296.924 98.8445 297.09 98.86L298.52 98.97L303.94 99.44L323.04 101.24L322.83 101.34L331.08 89.91L331.41 89.46L331.54 90C332.02 92 332.54 94.07 333.02 96.17C334.63 102.93 336.16 109.35 337.53 115.08H337.07L341.69 103.31L341.74 103.18H341.88L352.73 104.34L355.68 104.69L356.44 104.79L356.7 104.83Z" fill="#FAFAFA"/>
</svg>
