<svg width="200" height="504" viewBox="0 0 200 504" fill="none" xmlns="http://www.w3.org/2000/svg">
<mask id="path-1-inside-1" fill="white">
<path d="M102.969 288.145C102.272 296.89 107.843 343.178 110.719 361.328C112.088 369.926 115.841 383.935 114.49 391.373C112.562 401.74 112.005 415.156 113.067 422.968C113.736 427.712 115.843 449.592 112.828 457.594C111.251 461.791 108.359 483.297 108.359 483.297C100.827 503.557 105.078 502.56 105.078 502.56C107.41 505.609 111.404 502.8 111.404 502.8C114.447 504.866 116.554 502.309 116.554 502.309C119.166 504.612 122.211 502.025 122.211 502.025C125.492 503.84 128.535 500.494 128.535 500.494C130.419 501.505 130.88 500.228 130.88 500.228C136.534 499.842 127.725 480.563 127.725 480.563C125.616 463.249 129.819 453.612 129.819 453.612C143.585 410.119 144.284 398.577 138.782 382.186C137.232 377.455 136.839 375.581 137.553 373.527C139.201 368.785 138 349.715 140.01 342.142C143.89 327.537 147.717 290.497 149.712 273.215C152.392 249.935 140.217 218.722 140.217 218.722C137.55 206.02 141.46 160.763 141.46 160.763C146.919 169.813 146.71 185.789 146.71 185.789C145.844 202.544 159.415 228.151 159.415 228.151C165.936 238.733 168.406 248.773 168.406 249.518C168.406 252.566 167.78 259.946 167.78 259.946L168.03 266.373C168.142 268.009 169.007 273.645 168.867 276.368C167.849 293.131 170.348 289.977 170.348 289.977C172.457 289.977 174.776 276.488 174.776 276.488C174.776 279.967 173.978 290.38 175.739 294.308C177.846 298.993 179.396 293.504 179.423 292.403C179.98 271.06 181.184 276.652 181.184 276.652C182.356 293.966 183.796 297.877 186.378 296.524C188.333 295.529 186.545 275.746 186.545 275.746C189.895 287.498 192.435 289.369 192.435 289.369C197.964 293.504 194.545 282.082 193.777 279.82C189.686 267.802 189.56 263.637 189.56 263.637C194.671 274.436 198.523 274.036 198.523 274.036C203.508 272.34 194.167 257.049 188.693 249.723C185.901 245.99 182.299 240.993 181.253 238.025C179.549 232.997 178.263 216.836 178.263 216.836C177.747 197.766 173.322 189.482 173.322 189.482C165.755 176.579 164.331 152.511 164.331 152.511L163.997 111.876C161.344 84.1578 142.173 83.9575 142.173 83.9575C122.795 80.8845 120.099 74.2158 120.099 74.2158C115.995 67.9233 118.34 55.8609 118.34 55.8609C121.745 52.9101 123.059 45.0762 123.059 45.0762C128.713 40.4569 128.436 33.6978 125.824 33.7711C123.729 33.8297 124.203 31.9806 124.203 31.9806C127.739 1.55359 102.384 0 102.384 0H98.5135C98.5135 0 73.1471 1.55359 76.6782 31.9732C76.6782 31.9732 77.1528 33.8248 75.0388 33.7638C72.434 33.6905 72.191 40.4496 77.8247 45.0688C77.8247 45.0688 79.1362 52.9003 82.5435 55.8536C82.5435 55.8536 84.8891 67.9159 80.7848 74.2085C80.7848 74.2085 78.0975 80.8772 58.711 83.9502C58.711 83.9502 39.5079 84.1505 36.8963 111.868L36.534 152.504C36.534 152.504 35.1377 176.572 27.5413 189.475C27.5413 189.475 23.1366 197.761 22.6276 216.829C22.6276 216.829 21.3367 232.99 19.6399 238.017C18.6058 240.971 15.006 245.968 12.1903 249.716C6.66897 257.027 -2.61042 272.287 2.35371 274.028C2.35371 274.028 6.22643 274.429 11.3167 263.63C11.3167 263.63 11.2112 267.765 7.12754 279.813C6.32503 282.045 2.9109 293.468 8.44138 289.362C8.44138 289.362 11.0026 287.488 14.3319 275.738C14.3319 275.738 12.5457 295.522 14.5336 296.516C17.1315 297.872 18.5485 293.959 19.7202 276.645C19.7202 276.645 20.9216 271.053 21.4788 292.395C21.5063 293.497 23.022 298.986 25.1383 294.301C26.9245 290.373 26.122 279.976 26.122 276.481C26.122 276.481 28.4126 289.97 30.5541 289.97C30.5541 289.97 33.0741 293.123 32.0399 276.361C31.8726 273.623 32.7737 268.002 32.886 266.365L33.1291 259.939C33.1291 259.939 32.5008 252.576 32.5008 249.51C32.5008 248.751 34.9726 238.726 41.4913 228.144C41.4913 228.144 55.0492 202.524 54.1756 185.781C54.1756 185.781 53.9876 169.806 59.447 160.755C59.447 160.755 63.322 206.01 60.6967 218.715C60.6967 218.715 48.5007 249.928 51.1903 273.208C53.1713 290.536 56.9913 327.527 60.8801 342.135C62.9116 349.693 61.7101 368.758 63.3381 373.519C64.0718 375.588 63.6866 377.494 62.1091 382.179C56.6359 398.57 57.333 410.114 71.0996 453.605C71.0996 453.605 75.3369 463.242 73.1953 480.556C73.1953 480.556 64.3997 499.834 70.0334 500.22C70.0334 500.22 70.4736 501.498 72.379 500.486C72.379 500.486 75.4217 503.833 78.7097 502.018C78.7097 502.018 81.7547 504.607 84.3571 502.301C84.3571 502.301 86.4437 504.859 89.4864 502.792C89.4864 502.792 93.4806 505.663 95.8538 502.553C95.8538 502.553 100.07 503.55 92.5634 483.289C92.5634 483.289 89.6881 461.81 88.1037 457.587C85.0817 449.587 87.2164 427.661 87.8607 422.961C88.8994 415.105 88.3422 401.721 86.4437 391.366C85.0542 383.945 88.8168 369.933 90.2063 361.32C93.061 343.188 98.6557 296.897 97.9564 288.138L100.268 289.002C101.923 289.007 102.969 288.145 102.969 288.145Z"/>
</mask>
<path d="M102.969 288.145C102.272 296.89 107.843 343.178 110.719 361.328C112.088 369.926 115.841 383.935 114.49 391.373C112.562 401.74 112.005 415.156 113.067 422.968C113.736 427.712 115.843 449.592 112.828 457.594C111.251 461.791 108.359 483.297 108.359 483.297C100.827 503.557 105.078 502.56 105.078 502.56C107.41 505.609 111.404 502.8 111.404 502.8C114.447 504.866 116.554 502.309 116.554 502.309C119.166 504.612 122.211 502.025 122.211 502.025C125.492 503.84 128.535 500.494 128.535 500.494C130.419 501.505 130.88 500.228 130.88 500.228C136.534 499.842 127.725 480.563 127.725 480.563C125.616 463.249 129.819 453.612 129.819 453.612C143.585 410.119 144.284 398.577 138.782 382.186C137.232 377.455 136.839 375.581 137.553 373.527C139.201 368.785 138 349.715 140.01 342.142C143.89 327.537 147.717 290.497 149.712 273.215C152.392 249.935 140.217 218.722 140.217 218.722C137.55 206.02 141.46 160.763 141.46 160.763C146.919 169.813 146.71 185.789 146.71 185.789C145.844 202.544 159.415 228.151 159.415 228.151C165.936 238.733 168.406 248.773 168.406 249.518C168.406 252.566 167.78 259.946 167.78 259.946L168.03 266.373C168.142 268.009 169.007 273.645 168.867 276.368C167.849 293.131 170.348 289.977 170.348 289.977C172.457 289.977 174.776 276.488 174.776 276.488C174.776 279.967 173.978 290.38 175.739 294.308C177.846 298.993 179.396 293.504 179.423 292.403C179.98 271.06 181.184 276.652 181.184 276.652C182.356 293.966 183.796 297.877 186.378 296.524C188.333 295.529 186.545 275.746 186.545 275.746C189.895 287.498 192.435 289.369 192.435 289.369C197.964 293.504 194.545 282.082 193.777 279.82C189.686 267.802 189.56 263.637 189.56 263.637C194.671 274.436 198.523 274.036 198.523 274.036C203.508 272.34 194.167 257.049 188.693 249.723C185.901 245.99 182.299 240.993 181.253 238.025C179.549 232.997 178.263 216.836 178.263 216.836C177.747 197.766 173.322 189.482 173.322 189.482C165.755 176.579 164.331 152.511 164.331 152.511L163.997 111.876C161.344 84.1578 142.173 83.9575 142.173 83.9575C122.795 80.8845 120.099 74.2158 120.099 74.2158C115.995 67.9233 118.34 55.8609 118.34 55.8609C121.745 52.9101 123.059 45.0762 123.059 45.0762C128.713 40.4569 128.436 33.6978 125.824 33.7711C123.729 33.8297 124.203 31.9806 124.203 31.9806C127.739 1.55359 102.384 0 102.384 0H98.5135C98.5135 0 73.1471 1.55359 76.6782 31.9732C76.6782 31.9732 77.1528 33.8248 75.0388 33.7638C72.434 33.6905 72.191 40.4496 77.8247 45.0688C77.8247 45.0688 79.1362 52.9003 82.5435 55.8536C82.5435 55.8536 84.8891 67.9159 80.7848 74.2085C80.7848 74.2085 78.0975 80.8772 58.711 83.9502C58.711 83.9502 39.5079 84.1505 36.8963 111.868L36.534 152.504C36.534 152.504 35.1377 176.572 27.5413 189.475C27.5413 189.475 23.1366 197.761 22.6276 216.829C22.6276 216.829 21.3367 232.99 19.6399 238.017C18.6058 240.971 15.006 245.968 12.1903 249.716C6.66897 257.027 -2.61042 272.287 2.35371 274.028C2.35371 274.028 6.22643 274.429 11.3167 263.63C11.3167 263.63 11.2112 267.765 7.12754 279.813C6.32503 282.045 2.9109 293.468 8.44138 289.362C8.44138 289.362 11.0026 287.488 14.3319 275.738C14.3319 275.738 12.5457 295.522 14.5336 296.516C17.1315 297.872 18.5485 293.959 19.7202 276.645C19.7202 276.645 20.9216 271.053 21.4788 292.395C21.5063 293.497 23.022 298.986 25.1383 294.301C26.9245 290.373 26.122 279.976 26.122 276.481C26.122 276.481 28.4126 289.97 30.5541 289.97C30.5541 289.97 33.0741 293.123 32.0399 276.361C31.8726 273.623 32.7737 268.002 32.886 266.365L33.1291 259.939C33.1291 259.939 32.5008 252.576 32.5008 249.51C32.5008 248.751 34.9726 238.726 41.4913 228.144C41.4913 228.144 55.0492 202.524 54.1756 185.781C54.1756 185.781 53.9876 169.806 59.447 160.755C59.447 160.755 63.322 206.01 60.6967 218.715C60.6967 218.715 48.5007 249.928 51.1903 273.208C53.1713 290.536 56.9913 327.527 60.8801 342.135C62.9116 349.693 61.7101 368.758 63.3381 373.519C64.0718 375.588 63.6866 377.494 62.1091 382.179C56.6359 398.57 57.333 410.114 71.0996 453.605C71.0996 453.605 75.3369 463.242 73.1953 480.556C73.1953 480.556 64.3997 499.834 70.0334 500.22C70.0334 500.22 70.4736 501.498 72.379 500.486C72.379 500.486 75.4217 503.833 78.7097 502.018C78.7097 502.018 81.7547 504.607 84.3571 502.301C84.3571 502.301 86.4437 504.859 89.4864 502.792C89.4864 502.792 93.4806 505.663 95.8538 502.553C95.8538 502.553 100.07 503.55 92.5634 483.289C92.5634 483.289 89.6881 461.81 88.1037 457.587C85.0817 449.587 87.2164 427.661 87.8607 422.961C88.8994 415.105 88.3422 401.721 86.4437 391.366C85.0542 383.945 88.8168 369.933 90.2063 361.32C93.061 343.188 98.6557 296.897 97.9564 288.138L100.268 289.002C101.923 289.007 102.969 288.145 102.969 288.145Z" fill="white" stroke="#668499" stroke-width="2" mask="url(#path-1-inside-1)"/>
</svg>
