<svg width="93" height="80" viewBox="0 0 93 80" fill="blue" xmlns="http://www.w3.org/2000/svg">
<path fill-rule="evenodd" clip-rule="evenodd" d="M36.1649 74.5909H36.1189L36.0402 74.5265C23.5595 64.3213 9.4391 52.7754 3.19532 38.9463C1.13969 34.5343 0.0503076 29.7341 5.25137e-05 24.8671C-0.0136758 18.1888 2.6648 11.7869 7.43016 7.10816C12.1955 2.42944 18.6455 -0.131129 25.3224 0.00517624C30.7581 0.0137619 36.0767 1.58474 40.6447 4.53096C42.2295 5.55963 43.6952 6.75855 45.016 8.10539C43.4073 11.2861 42.9451 12.8675 42.4291 15.5466C42.2924 16.2559 42.4423 15.9769 42.9139 15.0992C43.9399 13.1893 46.4887 8.44482 50.9224 4.8793C51.0939 4.7612 51.2669 4.64508 51.4412 4.53096C56.0072 1.58416 61.3245 0.0130885 66.7589 0.00517624C73.4357 -0.131129 79.8857 2.42944 84.6511 7.10816C89.4165 11.7869 92.0949 18.1888 92.0812 24.8671C92.0342 29.7419 90.9448 34.5503 88.8859 38.9693C82.629 52.8275 68.467 64.3883 55.967 74.5909L55.9209 74.6277C55.5182 74.9558 55.1291 75.2786 54.7502 75.593C51.785 78.0528 49.4379 80 45.9919 80C42.6005 80 40.1887 77.9696 37.4099 75.6301C37.0042 75.2885 36.5905 74.9402 36.1649 74.5909ZM39.251 26.4777C39.251 22.9002 42.1512 20 45.7287 20C49.3063 20 52.2064 22.9002 52.2064 26.4777V34.251L59.9798 34.251C63.5574 34.251 66.4576 37.1512 66.4576 40.7287C66.4576 44.3063 63.5574 47.2064 59.9798 47.2064H52.2064V54.9797C52.2064 58.5573 49.3063 61.4574 45.7287 61.4574C42.1512 61.4574 39.251 58.5573 39.251 54.9797V47.2064H31.4777C27.9002 47.2064 25 44.3063 25 40.7287C25 37.1512 27.9002 34.251 31.4777 34.251H39.251V26.4777Z" fill="white" fill-opacity="0.99"/>
<rect x="39.251" y="34.251" width="12.9555" height="12.9555" fill="white" fill-opacity="0.15"/>
<path d="M39.251 47.2064H52.2064V54.9797C52.2064 58.5573 49.3063 61.4574 45.7287 61.4574C42.1512 61.4574 39.251 58.5573 39.251 54.9797V47.2064Z" fill="white" fill-opacity="0.3"/>
<path d="M52.2065 34.251H59.9798C63.5574 34.251 66.4576 37.1512 66.4576 40.7287C66.4576 44.3063 63.5574 47.2064 59.9798 47.2064H52.2065V34.251Z" fill="white" fill-opacity="0.3"/>
</svg>
